ISO-10303-21;
HEADER;
FILE_DESCRIPTION(('FreeCAD Model'),'2;1');
FILE_NAME('Open CASCADE Shape Model','2026-08-08T12:10:09',('FreeCAD'),(
    'FreeCAD'),'Open CASCADE STEP processor 7.8','FreeCAD','Unknown');
FILE_SCHEMA(('AUTOMOTIVE_DESIGN { 1 0 10303 214 1 1 1 1 }'));
ENDSEC;
DATA;
#1 = APPLICATION_PROTOCOL_DEFINITION('international standard',
  'automotive_design',2000,#2);
#2 = APPLICATION_CONTEXT(
  'core data for automotive mechanical design processes');
#3 = SHAPE_DEFINITION_REPRESENTATION(#4,#10);
#4 = PRODUCT_DEFINITION_SHAPE('','',#5);
#5 = PRODUCT_DEFINITION('design','',#6,#9);
#6 = PRODUCT_DEFINITION_FORMATION('','',#7);
#7 = PRODUCT('Open CASCADE STEP translator 7.8 1',
  'Open CASCADE STEP translator 7.8 1','',(#8));
#8 = PRODUCT_CONTEXT('',#2,'mechanical');
#9 = PRODUCT_DEFINITION_CONTEXT('part definition',#2,'design');
#10 = ADVANCED_BREP_SHAPE_REPRESENTATION('',(#11,#15),#2121);
#11 = AXIS2_PLACEMENT_3D('',#12,#13,#14);
#12 = CARTESIAN_POINT('',(0.,0.,0.));
#13 = DIRECTION('',(0.,0.,1.));
#14 = DIRECTION('',(1.,0.,-0.));
#15 = MANIFOLD_SOLID_BREP('',#16);
#16 = CLOSED_SHELL('',(#17,#50,#68,#92,#117,#142,#167,#192,#217,#242,
    #267,#292,#317,#342,#367,#392,#417,#442,#467,#492,#517,#542,#567,
    #592,#617,#642,#667,#692,#717,#742,#767,#792,#817,#842,#867,#892,
    #917,#942,#967,#992,#1017,#1042,#1067,#1087,#1112,#1137,#1162,#1187,
    #1212,#1237,#1262,#1287,#1312,#1337,#1362,#1387,#1412,#1437,#1462,
    #1487,#1512,#1537,#1562,#1587,#1612,#1637,#1662,#1687,#1712,#1737,
    #1762,#1787,#1812,#1837,#1862,#1887,#1912,#1937,#1962,#1987,#2012,
    #2037,#2062,#2080,#2104));
#17 = ADVANCED_FACE('',(#18),#45,.T.);
#18 = FACE_BOUND('',#19,.T.);
#19 = EDGE_LOOP('',(#20,#29,#37,#44));
#20 = ORIENTED_EDGE('',*,*,#21,.T.);
#21 = EDGE_CURVE('',#22,#22,#24,.T.);
#22 = VERTEX_POINT('',#23);
#23 = CARTESIAN_POINT('',(70.,0.,-2.));
#24 = CIRCLE('',#25,70.);
#25 = AXIS2_PLACEMENT_3D('',#26,#27,#28);
#26 = CARTESIAN_POINT('',(0.,0.,-2.));
#27 = DIRECTION('',(0.,0.,1.));
#28 = DIRECTION('',(1.,0.,0.));
#29 = ORIENTED_EDGE('',*,*,#30,.T.);
#30 = EDGE_CURVE('',#22,#31,#33,.T.);
#31 = VERTEX_POINT('',#32);
#32 = CARTESIAN_POINT('',(70.,0.,0.));
#33 = LINE('',#34,#35);
#34 = CARTESIAN_POINT('',(70.,0.,-2.));
#35 = VECTOR('',#36,1.);
#36 = DIRECTION('',(0.,0.,1.));
#37 = ORIENTED_EDGE('',*,*,#38,.F.);
#38 = EDGE_CURVE('',#31,#31,#39,.T.);
#39 = CIRCLE('',#40,70.);
#40 = AXIS2_PLACEMENT_3D('',#41,#42,#43);
#41 = CARTESIAN_POINT('',(0.,0.,0.));
#42 = DIRECTION('',(0.,0.,1.));
#43 = DIRECTION('',(1.,0.,0.));
#44 = ORIENTED_EDGE('',*,*,#30,.F.);
#45 = CYLINDRICAL_SURFACE('',#46,70.);
#46 = AXIS2_PLACEMENT_3D('',#47,#48,#49);
#47 = CARTESIAN_POINT('',(0.,0.,-2.));
#48 = DIRECTION('',(0.,0.,1.));
#49 = DIRECTION('',(1.,0.,0.));
#50 = ADVANCED_FACE('',(#51),#63,.T.);
#51 = FACE_BOUND('',#52,.T.);
#52 = EDGE_LOOP('',(#53,#54,#62));
#53 = ORIENTED_EDGE('',*,*,#38,.T.);
#54 = ORIENTED_EDGE('',*,*,#55,.T.);
#55 = EDGE_CURVE('',#31,#56,#58,.T.);
#56 = VERTEX_POINT('',#57);
#57 = CARTESIAN_POINT('',(0.,0.,60.));
#58 = LINE('',#59,#60);
#59 = CARTESIAN_POINT('',(70.,0.,0.));
#60 = VECTOR('',#61,1.);
#61 = DIRECTION('',(-0.759256602365,0.,0.650791373456));
#62 = ORIENTED_EDGE('',*,*,#55,.F.);
#63 = CONICAL_SURFACE('',#64,70.,0.862170054667);
#64 = AXIS2_PLACEMENT_3D('',#65,#66,#67);
#65 = CARTESIAN_POINT('',(0.,0.,0.));
#66 = DIRECTION('',(-0.,-0.,-1.));
#67 = DIRECTION('',(1.,0.,0.));
#68 = ADVANCED_FACE('',(#69),#87,.F.);
#69 = FACE_BOUND('',#70,.T.);
#70 = EDGE_LOOP('',(#71,#79,#86));
#71 = ORIENTED_EDGE('',*,*,#72,.T.);
#72 = EDGE_CURVE('',#56,#73,#75,.T.);
#73 = VERTEX_POINT('',#74);
#74 = CARTESIAN_POINT('',(13.332291625973,0.,58.5));
#75 = LINE('',#76,#77);
#76 = CARTESIAN_POINT('',(0.,0.,60.));
#77 = VECTOR('',#78,1.);
#78 = DIRECTION('',(0.993730345718,0.,-0.111803398875));
#79 = ORIENTED_EDGE('',*,*,#80,.F.);
#80 = EDGE_CURVE('',#73,#73,#81,.T.);
#81 = CIRCLE('',#82,13.332291625973);
#82 = AXIS2_PLACEMENT_3D('',#83,#84,#85);
#83 = CARTESIAN_POINT('',(0.,0.,58.5));
#84 = DIRECTION('',(0.,0.,1.));
#85 = DIRECTION('',(1.,0.,0.));
#86 = ORIENTED_EDGE('',*,*,#72,.F.);
#87 = CONICAL_SURFACE('',#88,0.,1.458758684144);
#88 = AXIS2_PLACEMENT_3D('',#89,#90,#91);
#89 = CARTESIAN_POINT('',(0.,0.,60.));
#90 = DIRECTION('',(-0.,-0.,-1.));
#91 = DIRECTION('',(1.,0.,0.));
#92 = ADVANCED_FACE('',(#93),#112,.F.);
#93 = FACE_BOUND('',#94,.T.);
#94 = EDGE_LOOP('',(#95,#96,#104,#111));
#95 = ORIENTED_EDGE('',*,*,#80,.T.);
#96 = ORIENTED_EDGE('',*,*,#97,.T.);
#97 = EDGE_CURVE('',#73,#98,#100,.T.);
#98 = VERTEX_POINT('',#99);
#99 = CARTESIAN_POINT('',(18.734993995195,0.,57.));
#100 = LINE('',#101,#102);
#101 = CARTESIAN_POINT('',(13.332291625973,0.,58.5));
#102 = VECTOR('',#103,1.);
#103 = DIRECTION('',(0.96355242581,0.,-0.267519574454));
#104 = ORIENTED_EDGE('',*,*,#105,.F.);
#105 = EDGE_CURVE('',#98,#98,#106,.T.);
#106 = CIRCLE('',#107,18.734993995195);
#107 = AXIS2_PLACEMENT_3D('',#108,#109,#110);
#108 = CARTESIAN_POINT('',(0.,0.,57.));
#109 = DIRECTION('',(0.,0.,1.));
#110 = DIRECTION('',(1.,0.,0.));
#111 = ORIENTED_EDGE('',*,*,#97,.F.);
#112 = CONICAL_SURFACE('',#113,13.332291625973,1.299978469498);
#113 = AXIS2_PLACEMENT_3D('',#114,#115,#116);
#114 = CARTESIAN_POINT('',(0.,0.,58.5));
#115 = DIRECTION('',(-0.,-0.,-1.));
#116 = DIRECTION('',(1.,0.,0.));
#117 = ADVANCED_FACE('',(#118),#137,.F.);
#118 = FACE_BOUND('',#119,.T.);
#119 = EDGE_LOOP('',(#120,#121,#129,#136));
#120 = ORIENTED_EDGE('',*,*,#105,.T.);
#121 = ORIENTED_EDGE('',*,*,#122,.T.);
#122 = EDGE_CURVE('',#98,#123,#125,.T.);
#123 = VERTEX_POINT('',#124);
#124 = CARTESIAN_POINT('',(22.798026230356,0.,55.5));
#125 = LINE('',#126,#127);
#126 = CARTESIAN_POINT('',(18.734993995195,0.,57.));
#127 = VECTOR('',#128,1.);
#128 = DIRECTION('',(0.938111216715,0.,-0.346334152335));
#129 = ORIENTED_EDGE('',*,*,#130,.F.);
#130 = EDGE_CURVE('',#123,#123,#131,.T.);
#131 = CIRCLE('',#132,22.798026230356);
#132 = AXIS2_PLACEMENT_3D('',#133,#134,#135);
#133 = CARTESIAN_POINT('',(0.,0.,55.5));
#134 = DIRECTION('',(0.,0.,1.));
#135 = DIRECTION('',(1.,0.,0.));
#136 = ORIENTED_EDGE('',*,*,#122,.F.);
#137 = CONICAL_SURFACE('',#138,18.734993995195,1.21713574575);
#138 = AXIS2_PLACEMENT_3D('',#139,#140,#141);
#139 = CARTESIAN_POINT('',(0.,0.,57.));
#140 = DIRECTION('',(-0.,-0.,-1.));
#141 = DIRECTION('',(1.,0.,0.));
#142 = ADVANCED_FACE('',(#143),#162,.F.);
#143 = FACE_BOUND('',#144,.T.);
#144 = EDGE_LOOP('',(#145,#146,#154,#161));
#145 = ORIENTED_EDGE('',*,*,#130,.T.);
#146 = ORIENTED_EDGE('',*,*,#147,.T.);
#147 = EDGE_CURVE('',#123,#148,#150,.T.);
#148 = VERTEX_POINT('',#149);
#149 = CARTESIAN_POINT('',(26.153393661244,0.,54.));
#150 = LINE('',#151,#152);
#151 = CARTESIAN_POINT('',(22.798026230356,0.,55.5));
#152 = VECTOR('',#153,1.);
#153 = DIRECTION('',(0.912928304756,0.,-0.408119970567));
#154 = ORIENTED_EDGE('',*,*,#155,.F.);
#155 = EDGE_CURVE('',#148,#148,#156,.T.);
#156 = CIRCLE('',#157,26.153393661244);
#157 = AXIS2_PLACEMENT_3D('',#158,#159,#160);
#158 = CARTESIAN_POINT('',(0.,0.,54.));
#159 = DIRECTION('',(0.,0.,1.));
#160 = DIRECTION('',(1.,0.,0.));
#161 = ORIENTED_EDGE('',*,*,#147,.F.);
#162 = CONICAL_SURFACE('',#163,22.798026230356,1.150402554498);
#163 = AXIS2_PLACEMENT_3D('',#164,#165,#166);
#164 = CARTESIAN_POINT('',(0.,0.,55.5));
#165 = DIRECTION('',(-0.,-0.,-1.));
#166 = DIRECTION('',(1.,0.,0.));
#167 = ADVANCED_FACE('',(#168),#187,.F.);
#168 = FACE_BOUND('',#169,.T.);
#169 = EDGE_LOOP('',(#170,#171,#179,#186));
#170 = ORIENTED_EDGE('',*,*,#155,.T.);
#171 = ORIENTED_EDGE('',*,*,#172,.T.);
#172 = EDGE_CURVE('',#148,#173,#175,.T.);
#173 = VERTEX_POINT('',#174);
#174 = CARTESIAN_POINT('',(29.047375096556,0.,52.5));
#175 = LINE('',#176,#177);
#176 = CARTESIAN_POINT('',(26.153393661244,0.,54.));
#177 = VECTOR('',#178,1.);
#178 = DIRECTION('',(0.887827604971,0.,-0.460176209566));
#179 = ORIENTED_EDGE('',*,*,#180,.F.);
#180 = EDGE_CURVE('',#173,#173,#181,.T.);
#181 = CIRCLE('',#182,29.047375096556);
#182 = AXIS2_PLACEMENT_3D('',#183,#184,#185);
#183 = CARTESIAN_POINT('',(0.,0.,52.5));
#184 = DIRECTION('',(0.,0.,1.));
#185 = DIRECTION('',(1.,0.,0.));
#186 = ORIENTED_EDGE('',*,*,#172,.F.);
#187 = CONICAL_SURFACE('',#188,26.153393661244,1.092602665755);
#188 = AXIS2_PLACEMENT_3D('',#189,#190,#191);
#189 = CARTESIAN_POINT('',(0.,0.,54.));
#190 = DIRECTION('',(-0.,-0.,-1.));
#191 = DIRECTION('',(1.,0.,0.));
#192 = ADVANCED_FACE('',(#193),#212,.F.);
#193 = FACE_BOUND('',#194,.T.);
#194 = EDGE_LOOP('',(#195,#196,#204,#211));
#195 = ORIENTED_EDGE('',*,*,#180,.T.);
#196 = ORIENTED_EDGE('',*,*,#197,.T.);
#197 = EDGE_CURVE('',#173,#198,#200,.T.);
#198 = VERTEX_POINT('',#199);
#199 = CARTESIAN_POINT('',(31.606961258558,0.,51.));
#200 = LINE('',#201,#202);
#201 = CARTESIAN_POINT('',(29.047375096556,0.,52.5));
#202 = VECTOR('',#203,1.);
#203 = DIRECTION('',(0.862763706921,0.,-0.505607343716));
#204 = ORIENTED_EDGE('',*,*,#205,.F.);
#205 = EDGE_CURVE('',#198,#198,#206,.T.);
#206 = CIRCLE('',#207,31.606961258558);
#207 = AXIS2_PLACEMENT_3D('',#208,#209,#210);
#208 = CARTESIAN_POINT('',(0.,0.,51.));
#209 = DIRECTION('',(0.,0.,1.));
#210 = DIRECTION('',(1.,0.,0.));
#211 = ORIENTED_EDGE('',*,*,#197,.F.);
#212 = CONICAL_SURFACE('',#213,29.047375096556,1.040710555163);
#213 = AXIS2_PLACEMENT_3D('',#214,#215,#216);
#214 = CARTESIAN_POINT('',(0.,0.,52.5));
#215 = DIRECTION('',(-0.,-0.,-1.));
#216 = DIRECTION('',(1.,0.,0.));
#217 = ADVANCED_FACE('',(#218),#237,.F.);
#218 = FACE_BOUND('',#219,.T.);
#219 = EDGE_LOOP('',(#220,#221,#229,#236));
#220 = ORIENTED_EDGE('',*,*,#205,.T.);
#221 = ORIENTED_EDGE('',*,*,#222,.T.);
#222 = EDGE_CURVE('',#198,#223,#225,.T.);
#223 = VERTEX_POINT('',#224);
#224 = CARTESIAN_POINT('',(33.907963666372,0.,49.5));
#225 = LINE('',#226,#227);
#226 = CARTESIAN_POINT('',(31.606961258558,0.,51.));
#227 = VECTOR('',#228,1.);
#228 = DIRECTION('',(0.837719482521,0.,-0.546100786124));
#229 = ORIENTED_EDGE('',*,*,#230,.F.);
#230 = EDGE_CURVE('',#223,#223,#231,.T.);
#231 = CIRCLE('',#232,33.907963666372);
#232 = AXIS2_PLACEMENT_3D('',#233,#234,#235);
#233 = CARTESIAN_POINT('',(0.,0.,49.5));
#234 = DIRECTION('',(0.,0.,1.));
#235 = DIRECTION('',(1.,0.,0.));
#236 = ORIENTED_EDGE('',*,*,#222,.F.);
#237 = CONICAL_SURFACE('',#238,31.606961258558,0.993093746872);
#238 = AXIS2_PLACEMENT_3D('',#239,#240,#241);
#239 = CARTESIAN_POINT('',(0.,0.,51.));
#240 = DIRECTION('',(-0.,-0.,-1.));
#241 = DIRECTION('',(1.,0.,0.));
#242 = ADVANCED_FACE('',(#243),#262,.F.);
#243 = FACE_BOUND('',#244,.T.);
#244 = EDGE_LOOP('',(#245,#246,#254,#261));
#245 = ORIENTED_EDGE('',*,*,#230,.T.);
#246 = ORIENTED_EDGE('',*,*,#247,.T.);
#247 = EDGE_CURVE('',#223,#248,#250,.T.);
#248 = VERTEX_POINT('',#249);
#249 = CARTESIAN_POINT('',(36.,0.,48.));
#250 = LINE('',#251,#252);
#251 = CARTESIAN_POINT('',(33.907963666372,0.,49.5));
#252 = VECTOR('',#253,1.);
#253 = DIRECTION('',(0.81268701335,0.,-0.582700453348));
#254 = ORIENTED_EDGE('',*,*,#255,.F.);
#255 = EDGE_CURVE('',#248,#248,#256,.T.);
#256 = CIRCLE('',#257,36.);
#257 = AXIS2_PLACEMENT_3D('',#258,#259,#260);
#258 = CARTESIAN_POINT('',(0.,0.,48.));
#259 = DIRECTION('',(0.,0.,1.));
#260 = DIRECTION('',(1.,0.,0.));
#261 = ORIENTED_EDGE('',*,*,#247,.F.);
#262 = CONICAL_SURFACE('',#263,33.907963666372,0.948748708965);
#263 = AXIS2_PLACEMENT_3D('',#264,#265,#266);
#264 = CARTESIAN_POINT('',(0.,0.,49.5));
#265 = DIRECTION('',(-0.,-0.,-1.));
#266 = DIRECTION('',(1.,0.,0.));
#267 = ADVANCED_FACE('',(#268),#287,.F.);
#268 = FACE_BOUND('',#269,.T.);
#269 = EDGE_LOOP('',(#270,#271,#279,#286));
#270 = ORIENTED_EDGE('',*,*,#255,.T.);
#271 = ORIENTED_EDGE('',*,*,#272,.T.);
#272 = EDGE_CURVE('',#248,#273,#275,.T.);
#273 = VERTEX_POINT('',#274);
#274 = CARTESIAN_POINT('',(37.917673979294,0.,46.5));
#275 = LINE('',#276,#277);
#276 = CARTESIAN_POINT('',(36.,0.,48.));
#277 = VECTOR('',#278,1.);
#278 = DIRECTION('',(0.787662129408,0.,-0.616107433729));
#279 = ORIENTED_EDGE('',*,*,#280,.F.);
#280 = EDGE_CURVE('',#273,#273,#281,.T.);
#281 = CIRCLE('',#282,37.917673979294);
#282 = AXIS2_PLACEMENT_3D('',#283,#284,#285);
#283 = CARTESIAN_POINT('',(0.,0.,46.5));
#284 = DIRECTION('',(0.,0.,1.));
#285 = DIRECTION('',(1.,0.,0.));
#286 = ORIENTED_EDGE('',*,*,#272,.F.);
#287 = CONICAL_SURFACE('',#288,36.,0.907005156501);
#288 = AXIS2_PLACEMENT_3D('',#289,#290,#291);
#289 = CARTESIAN_POINT('',(0.,0.,48.));
#290 = DIRECTION('',(-0.,-0.,-1.));
#291 = DIRECTION('',(1.,0.,0.));
#292 = ADVANCED_FACE('',(#293),#312,.F.);
#293 = FACE_BOUND('',#294,.T.);
#294 = EDGE_LOOP('',(#295,#296,#304,#311));
#295 = ORIENTED_EDGE('',*,*,#280,.T.);
#296 = ORIENTED_EDGE('',*,*,#297,.T.);
#297 = EDGE_CURVE('',#273,#298,#300,.T.);
#298 = VERTEX_POINT('',#299);
#299 = CARTESIAN_POINT('',(39.686269665969,0.,45.));
#300 = LINE('',#301,#302);
#301 = CARTESIAN_POINT('',(37.917673979294,0.,46.5));
#302 = VECTOR('',#303,1.);
#303 = DIRECTION('',(0.762642424344,0.,-0.646820324812));
#304 = ORIENTED_EDGE('',*,*,#305,.F.);
#305 = EDGE_CURVE('',#298,#298,#306,.T.);
#306 = CIRCLE('',#307,39.686269665969);
#307 = AXIS2_PLACEMENT_3D('',#308,#309,#310);
#308 = CARTESIAN_POINT('',(0.,0.,45.));
#309 = DIRECTION('',(0.,0.,1.));
#310 = DIRECTION('',(1.,0.,0.));
#311 = ORIENTED_EDGE('',*,*,#297,.F.);
#312 = CONICAL_SURFACE('',#313,37.917673979294,0.867388586991);
#313 = AXIS2_PLACEMENT_3D('',#314,#315,#316);
#314 = CARTESIAN_POINT('',(0.,0.,46.5));
#315 = DIRECTION('',(-0.,-0.,-1.));
#316 = DIRECTION('',(1.,0.,0.));
#317 = ADVANCED_FACE('',(#318),#337,.F.);
#318 = FACE_BOUND('',#319,.T.);
#319 = EDGE_LOOP('',(#320,#321,#329,#336));
#320 = ORIENTED_EDGE('',*,*,#305,.T.);
#321 = ORIENTED_EDGE('',*,*,#322,.T.);
#322 = EDGE_CURVE('',#298,#323,#325,.T.);
#323 = VERTEX_POINT('',#324);
#324 = CARTESIAN_POINT('',(41.324931941868,0.,43.5));
#325 = LINE('',#326,#327);
#326 = CARTESIAN_POINT('',(39.686269665969,0.,45.));
#327 = VECTOR('',#328,1.);
#328 = DIRECTION('',(0.737626411673,0.,-0.675209061552));
#329 = ORIENTED_EDGE('',*,*,#330,.F.);
#330 = EDGE_CURVE('',#323,#323,#331,.T.);
#331 = CIRCLE('',#332,41.324931941868);
#332 = AXIS2_PLACEMENT_3D('',#333,#334,#335);
#333 = CARTESIAN_POINT('',(0.,0.,43.5));
#334 = DIRECTION('',(0.,0.,1.));
#335 = DIRECTION('',(1.,0.,0.));
#336 = ORIENTED_EDGE('',*,*,#322,.F.);
#337 = CONICAL_SURFACE('',#338,39.686269665969,0.829548236635);
#338 = AXIS2_PLACEMENT_3D('',#339,#340,#341);
#339 = CARTESIAN_POINT('',(0.,0.,45.));
#340 = DIRECTION('',(-0.,-0.,-1.));
#341 = DIRECTION('',(1.,0.,0.));
#342 = ADVANCED_FACE('',(#343),#362,.F.);
#343 = FACE_BOUND('',#344,.T.);
#344 = EDGE_LOOP('',(#345,#346,#354,#361));
#345 = ORIENTED_EDGE('',*,*,#330,.T.);
#346 = ORIENTED_EDGE('',*,*,#347,.T.);
#347 = EDGE_CURVE('',#323,#348,#350,.T.);
#348 = VERTEX_POINT('',#349);
#349 = CARTESIAN_POINT('',(42.848570571257,0.,42.));
#350 = LINE('',#351,#352);
#351 = CARTESIAN_POINT('',(41.324931941868,0.,43.5));
#352 = VECTOR('',#353,1.);
#353 = DIRECTION('',(0.712613123314,0.,-0.701557222528));
#354 = ORIENTED_EDGE('',*,*,#355,.F.);
#355 = EDGE_CURVE('',#348,#348,#356,.T.);
#356 = CIRCLE('',#357,42.848570571257);
#357 = AXIS2_PLACEMENT_3D('',#358,#359,#360);
#358 = CARTESIAN_POINT('',(0.,0.,42.));
#359 = DIRECTION('',(0.,0.,1.));
#360 = DIRECTION('',(1.,0.,0.));
#361 = ORIENTED_EDGE('',*,*,#347,.F.);
#362 = CONICAL_SURFACE('',#363,41.324931941868,0.793215945449);
#363 = AXIS2_PLACEMENT_3D('',#364,#365,#366);
#364 = CARTESIAN_POINT('',(0.,0.,43.5));
#365 = DIRECTION('',(-0.,-0.,-1.));
#366 = DIRECTION('',(1.,0.,0.));
#367 = ADVANCED_FACE('',(#368),#387,.F.);
#368 = FACE_BOUND('',#369,.T.);
#369 = EDGE_LOOP('',(#370,#371,#379,#386));
#370 = ORIENTED_EDGE('',*,*,#355,.T.);
#371 = ORIENTED_EDGE('',*,*,#372,.T.);
#372 = EDGE_CURVE('',#348,#373,#375,.T.);
#373 = VERTEX_POINT('',#374);
#374 = CARTESIAN_POINT('',(44.269063690121,0.,40.5));
#375 = LINE('',#376,#377);
#376 = CARTESIAN_POINT('',(42.848570571257,0.,42.));
#377 = VECTOR('',#378,1.);
#378 = DIRECTION('',(0.687601901574,0.,-0.726087890652));
#379 = ORIENTED_EDGE('',*,*,#380,.F.);
#380 = EDGE_CURVE('',#373,#373,#381,.T.);
#381 = CIRCLE('',#382,44.269063690121);
#382 = AXIS2_PLACEMENT_3D('',#383,#384,#385);
#383 = CARTESIAN_POINT('',(0.,0.,40.5));
#384 = DIRECTION('',(0.,0.,1.));
#385 = DIRECTION('',(1.,0.,0.));
#386 = ORIENTED_EDGE('',*,*,#372,.F.);
#387 = CONICAL_SURFACE('',#388,42.848570571257,0.758181099407);
#388 = AXIS2_PLACEMENT_3D('',#389,#390,#391);
#389 = CARTESIAN_POINT('',(0.,0.,42.));
#390 = DIRECTION('',(-0.,-0.,-1.));
#391 = DIRECTION('',(1.,0.,0.));
#392 = ADVANCED_FACE('',(#393),#412,.F.);
#393 = FACE_BOUND('',#394,.T.);
#394 = EDGE_LOOP('',(#395,#396,#404,#411));
#395 = ORIENTED_EDGE('',*,*,#380,.T.);
#396 = ORIENTED_EDGE('',*,*,#397,.T.);
#397 = EDGE_CURVE('',#373,#398,#400,.T.);
#398 = VERTEX_POINT('',#399);
#399 = CARTESIAN_POINT('',(45.596052460712,0.,39.));
#400 = LINE('',#401,#402);
#401 = CARTESIAN_POINT('',(44.269063690121,0.,40.5));
#402 = VECTOR('',#403,1.);
#403 = DIRECTION('',(0.662592283887,0.,-0.748980283675));
#404 = ORIENTED_EDGE('',*,*,#405,.F.);
#405 = EDGE_CURVE('',#398,#398,#406,.T.);
#406 = CIRCLE('',#407,45.596052460712);
#407 = AXIS2_PLACEMENT_3D('',#408,#409,#410);
#408 = CARTESIAN_POINT('',(0.,0.,39.));
#409 = DIRECTION('',(0.,0.,1.));
#410 = DIRECTION('',(1.,0.,0.));
#411 = ORIENTED_EDGE('',*,*,#397,.F.);
#412 = CONICAL_SURFACE('',#413,44.269063690121,0.724274569464);
#413 = AXIS2_PLACEMENT_3D('',#414,#415,#416);
#414 = CARTESIAN_POINT('',(0.,0.,40.5));
#415 = DIRECTION('',(-0.,-0.,-1.));
#416 = DIRECTION('',(1.,0.,0.));
#417 = ADVANCED_FACE('',(#418),#437,.F.);
#418 = FACE_BOUND('',#419,.T.);
#419 = EDGE_LOOP('',(#420,#421,#429,#436));
#420 = ORIENTED_EDGE('',*,*,#405,.T.);
#421 = ORIENTED_EDGE('',*,*,#422,.T.);
#422 = EDGE_CURVE('',#398,#423,#425,.T.);
#423 = VERTEX_POINT('',#424);
#424 = CARTESIAN_POINT('',(46.837484987988,0.,37.5));
#425 = LINE('',#426,#427);
#426 = CARTESIAN_POINT('',(45.596052460712,0.,39.));
#427 = VECTOR('',#428,1.);
#428 = DIRECTION('',(0.637583935363,0.,-0.770380896289));
#429 = ORIENTED_EDGE('',*,*,#430,.F.);
#430 = EDGE_CURVE('',#423,#423,#431,.T.);
#431 = CIRCLE('',#432,46.837484987988);
#432 = AXIS2_PLACEMENT_3D('',#433,#434,#435);
#433 = CARTESIAN_POINT('',(0.,0.,37.5));
#434 = DIRECTION('',(0.,0.,1.));
#435 = DIRECTION('',(1.,0.,0.));
#436 = ORIENTED_EDGE('',*,*,#422,.F.);
#437 = CONICAL_SURFACE('',#438,45.596052460712,0.691357984831);
#438 = AXIS2_PLACEMENT_3D('',#439,#440,#441);
#439 = CARTESIAN_POINT('',(0.,0.,39.));
#440 = DIRECTION('',(-0.,-0.,-1.));
#441 = DIRECTION('',(1.,0.,0.));
#442 = ADVANCED_FACE('',(#443),#462,.F.);
#443 = FACE_BOUND('',#444,.T.);
#444 = EDGE_LOOP('',(#445,#446,#454,#461));
#445 = ORIENTED_EDGE('',*,*,#430,.T.);
#446 = ORIENTED_EDGE('',*,*,#447,.T.);
#447 = EDGE_CURVE('',#423,#448,#450,.T.);
#448 = VERTEX_POINT('',#449);
#449 = CARTESIAN_POINT('',(48.,0.,36.));
#450 = LINE('',#451,#452);
#451 = CARTESIAN_POINT('',(46.837484987988,0.,37.5));
#452 = VECTOR('',#453,1.);
#453 = DIRECTION('',(0.612576607519,0.,-0.790411222036));
#454 = ORIENTED_EDGE('',*,*,#455,.F.);
#455 = EDGE_CURVE('',#448,#448,#456,.T.);
#456 = CIRCLE('',#457,48.);
#457 = AXIS2_PLACEMENT_3D('',#458,#459,#460);
#458 = CARTESIAN_POINT('',(0.,0.,36.));
#459 = DIRECTION('',(0.,0.,1.));
#460 = DIRECTION('',(1.,0.,0.));
#461 = ORIENTED_EDGE('',*,*,#447,.F.);
#462 = CONICAL_SURFACE('',#463,46.837484987988,0.659316320865);
#463 = AXIS2_PLACEMENT_3D('',#464,#465,#466);
#464 = CARTESIAN_POINT('',(0.,0.,37.5));
#465 = DIRECTION('',(-0.,-0.,-1.));
#466 = DIRECTION('',(1.,0.,0.));
#467 = ADVANCED_FACE('',(#468),#487,.F.);
#468 = FACE_BOUND('',#469,.T.);
#469 = EDGE_LOOP('',(#470,#471,#479,#486));
#470 = ORIENTED_EDGE('',*,*,#455,.T.);
#471 = ORIENTED_EDGE('',*,*,#472,.T.);
#472 = EDGE_CURVE('',#448,#473,#475,.T.);
#473 = VERTEX_POINT('',#474);
#474 = CARTESIAN_POINT('',(49.089204515861,0.,34.5));
#475 = LINE('',#476,#477);
#476 = CARTESIAN_POINT('',(48.,0.,36.));
#477 = VECTOR('',#478,1.);
#478 = DIRECTION('',(0.587570112038,0.,-0.809173259221));
#479 = ORIENTED_EDGE('',*,*,#480,.F.);
#480 = EDGE_CURVE('',#473,#473,#481,.T.);
#481 = CIRCLE('',#482,49.089204515861);
#482 = AXIS2_PLACEMENT_3D('',#483,#484,#485);
#483 = CARTESIAN_POINT('',(0.,0.,34.5));
#484 = DIRECTION('',(0.,0.,1.));
#485 = DIRECTION('',(1.,0.,0.));
#486 = ORIENTED_EDGE('',*,*,#472,.F.);
#487 = CONICAL_SURFACE('',#488,48.,0.628052628421);
#488 = AXIS2_PLACEMENT_3D('',#489,#490,#491);
#489 = CARTESIAN_POINT('',(0.,0.,36.));
#490 = DIRECTION('',(-0.,-0.,-1.));
#491 = DIRECTION('',(1.,0.,0.));
#492 = ADVANCED_FACE('',(#493),#512,.F.);
#493 = FACE_BOUND('',#494,.T.);
#494 = EDGE_LOOP('',(#495,#496,#504,#511));
#495 = ORIENTED_EDGE('',*,*,#480,.T.);
#496 = ORIENTED_EDGE('',*,*,#497,.T.);
#497 = EDGE_CURVE('',#473,#498,#500,.T.);
#498 = VERTEX_POINT('',#499);
#499 = CARTESIAN_POINT('',(50.10987926547,0.,33.));
#500 = LINE('',#501,#502);
#501 = CARTESIAN_POINT('',(49.089204515861,0.,34.5));
#502 = VECTOR('',#503,1.);
#503 = DIRECTION('',(0.562564303543,0.,-0.826753533031));
#504 = ORIENTED_EDGE('',*,*,#505,.F.);
#505 = EDGE_CURVE('',#498,#498,#506,.T.);
#506 = CIRCLE('',#507,50.10987926547);
#507 = AXIS2_PLACEMENT_3D('',#508,#509,#510);
#508 = CARTESIAN_POINT('',(0.,0.,33.));
#509 = DIRECTION('',(0.,0.,1.));
#510 = DIRECTION('',(1.,0.,0.));
#511 = ORIENTED_EDGE('',*,*,#497,.F.);
#512 = CONICAL_SURFACE('',#513,49.089204515861,0.597484192959);
#513 = AXIS2_PLACEMENT_3D('',#514,#515,#516);
#514 = CARTESIAN_POINT('',(0.,0.,34.5));
#515 = DIRECTION('',(-0.,-0.,-1.));
#516 = DIRECTION('',(1.,0.,0.));
#517 = ADVANCED_FACE('',(#518),#537,.F.);
#518 = FACE_BOUND('',#519,.T.);
#519 = EDGE_LOOP('',(#520,#521,#529,#536));
#520 = ORIENTED_EDGE('',*,*,#505,.T.);
#521 = ORIENTED_EDGE('',*,*,#522,.T.);
#522 = EDGE_CURVE('',#498,#523,#525,.T.);
#523 = VERTEX_POINT('',#524);
#524 = CARTESIAN_POINT('',(51.066133591648,0.,31.5));
#525 = LINE('',#526,#527);
#526 = CARTESIAN_POINT('',(50.10987926547,0.,33.));
#527 = VECTOR('',#528,1.);
#528 = DIRECTION('',(0.537559067965,0.,-0.843226095688));
#529 = ORIENTED_EDGE('',*,*,#530,.F.);
#530 = EDGE_CURVE('',#523,#523,#531,.T.);
#531 = CIRCLE('',#532,51.066133591648);
#532 = AXIS2_PLACEMENT_3D('',#533,#534,#535);
#533 = CARTESIAN_POINT('',(0.,0.,31.5));
#534 = DIRECTION('',(0.,0.,1.));
#535 = DIRECTION('',(1.,0.,0.));
#536 = ORIENTED_EDGE('',*,*,#522,.F.);
#537 = CONICAL_SURFACE('',#538,50.10987926547,0.567539675483);
#538 = AXIS2_PLACEMENT_3D('',#539,#540,#541);
#539 = CARTESIAN_POINT('',(0.,0.,33.));
#540 = DIRECTION('',(-0.,-0.,-1.));
#541 = DIRECTION('',(1.,0.,0.));
#542 = ADVANCED_FACE('',(#543),#562,.F.);
#543 = FACE_BOUND('',#544,.T.);
#544 = EDGE_LOOP('',(#545,#546,#554,#561));
#545 = ORIENTED_EDGE('',*,*,#530,.T.);
#546 = ORIENTED_EDGE('',*,*,#547,.T.);
#547 = EDGE_CURVE('',#523,#548,#550,.T.);
#548 = VERTEX_POINT('',#549);
#549 = CARTESIAN_POINT('',(51.961524227066,0.,30.));
#550 = LINE('',#551,#552);
#551 = CARTESIAN_POINT('',(51.066133591648,0.,31.5));
#552 = VECTOR('',#553,1.);
#553 = DIRECTION('',(0.512554314492,0.,-0.858654805318));
#554 = ORIENTED_EDGE('',*,*,#555,.F.);
#555 = EDGE_CURVE('',#548,#548,#556,.T.);
#556 = CIRCLE('',#557,51.961524227066);
#557 = AXIS2_PLACEMENT_3D('',#558,#559,#560);
#558 = CARTESIAN_POINT('',(0.,0.,30.));
#559 = DIRECTION('',(0.,0.,1.));
#560 = DIRECTION('',(1.,0.,0.));
#561 = ORIENTED_EDGE('',*,*,#547,.F.);
#562 = CONICAL_SURFACE('',#563,51.066133591648,0.538156944348);
#563 = AXIS2_PLACEMENT_3D('',#564,#565,#566);
#564 = CARTESIAN_POINT('',(0.,0.,31.5));
#565 = DIRECTION('',(-0.,-0.,-1.));
#566 = DIRECTION('',(1.,0.,0.));
#567 = ADVANCED_FACE('',(#568),#587,.F.);
#568 = FACE_BOUND('',#569,.T.);
#569 = EDGE_LOOP('',(#570,#571,#579,#586));
#570 = ORIENTED_EDGE('',*,*,#555,.T.);
#571 = ORIENTED_EDGE('',*,*,#572,.T.);
#572 = EDGE_CURVE('',#548,#573,#575,.T.);
#573 = VERTEX_POINT('',#574);
#574 = CARTESIAN_POINT('',(52.799147720394,0.,28.5));
#575 = LINE('',#576,#577);
#576 = CARTESIAN_POINT('',(51.961524227066,0.,30.));
#577 = VECTOR('',#578,1.);
#578 = DIRECTION('',(0.487549969883,0.,-0.873095084665));
#579 = ORIENTED_EDGE('',*,*,#580,.F.);
#580 = EDGE_CURVE('',#573,#573,#581,.T.);
#581 = CIRCLE('',#582,52.799147720394);
#582 = AXIS2_PLACEMENT_3D('',#583,#584,#585);
#583 = CARTESIAN_POINT('',(0.,0.,28.5));
#584 = DIRECTION('',(0.,0.,1.));
#585 = DIRECTION('',(1.,0.,0.));
#586 = ORIENTED_EDGE('',*,*,#572,.F.);
#587 = CONICAL_SURFACE('',#588,51.961524227066,0.509281403658);
#588 = AXIS2_PLACEMENT_3D('',#589,#590,#591);
#589 = CARTESIAN_POINT('',(0.,0.,30.));
#590 = DIRECTION('',(-0.,-0.,-1.));
#591 = DIRECTION('',(1.,0.,0.));
#592 = ADVANCED_FACE('',(#593),#612,.F.);
#593 = FACE_BOUND('',#594,.T.);
#594 = EDGE_LOOP('',(#595,#596,#604,#611));
#595 = ORIENTED_EDGE('',*,*,#580,.T.);
#596 = ORIENTED_EDGE('',*,*,#597,.T.);
#597 = EDGE_CURVE('',#573,#598,#600,.T.);
#598 = VERTEX_POINT('',#599);
#599 = CARTESIAN_POINT('',(53.581713298475,0.,27.));
#600 = LINE('',#601,#602);
#601 = CARTESIAN_POINT('',(52.799147720394,0.,28.5));
#602 = VECTOR('',#603,1.);
#603 = DIRECTION('',(0.462545974358,0.,-0.886595297532));
#604 = ORIENTED_EDGE('',*,*,#605,.F.);
#605 = EDGE_CURVE('',#598,#598,#606,.T.);
#606 = CIRCLE('',#607,53.581713298475);
#607 = AXIS2_PLACEMENT_3D('',#608,#609,#610);
#608 = CARTESIAN_POINT('',(0.,0.,27.));
#609 = DIRECTION('',(0.,0.,1.));
#610 = DIRECTION('',(1.,0.,0.));
#611 = ORIENTED_EDGE('',*,*,#597,.F.);
#612 = CONICAL_SURFACE('',#613,52.799147720394,0.480864685382);
#613 = AXIS2_PLACEMENT_3D('',#614,#615,#616);
#614 = CARTESIAN_POINT('',(0.,0.,28.5));
#615 = DIRECTION('',(-0.,-0.,-1.));
#616 = DIRECTION('',(1.,0.,0.));
#617 = ADVANCED_FACE('',(#618),#637,.F.);
#618 = FACE_BOUND('',#619,.T.);
#619 = EDGE_LOOP('',(#620,#621,#629,#636));
#620 = ORIENTED_EDGE('',*,*,#605,.T.);
#621 = ORIENTED_EDGE('',*,*,#622,.T.);
#622 = EDGE_CURVE('',#598,#623,#625,.T.);
#623 = VERTEX_POINT('',#624);
#624 = CARTESIAN_POINT('',(54.311600970695,0.,25.5));
#625 = LINE('',#626,#627);
#626 = CARTESIAN_POINT('',(53.581713298475,0.,27.));
#627 = VECTOR('',#628,1.);
#628 = DIRECTION('',(0.437542278593,0.,-0.899197839434));
#629 = ORIENTED_EDGE('',*,*,#630,.F.);
#630 = EDGE_CURVE('',#623,#623,#631,.T.);
#631 = CIRCLE('',#632,54.311600970695);
#632 = AXIS2_PLACEMENT_3D('',#633,#634,#635);
#633 = CARTESIAN_POINT('',(0.,0.,25.5));
#634 = DIRECTION('',(0.,0.,1.));
#635 = DIRECTION('',(1.,0.,0.));
#636 = ORIENTED_EDGE('',*,*,#622,.F.);
#637 = CONICAL_SURFACE('',#638,53.581713298475,0.452863612329);
#638 = AXIS2_PLACEMENT_3D('',#639,#640,#641);
#639 = CARTESIAN_POINT('',(0.,0.,27.));
#640 = DIRECTION('',(-0.,-0.,-1.));
#641 = DIRECTION('',(1.,0.,0.));
#642 = ADVANCED_FACE('',(#643),#662,.F.);
#643 = FACE_BOUND('',#644,.T.);
#644 = EDGE_LOOP('',(#645,#646,#654,#661));
#645 = ORIENTED_EDGE('',*,*,#630,.T.);
#646 = ORIENTED_EDGE('',*,*,#647,.T.);
#647 = EDGE_CURVE('',#623,#648,#650,.T.);
#648 = VERTEX_POINT('',#649);
#649 = CARTESIAN_POINT('',(54.99090833947,0.,24.));
#650 = LINE('',#651,#652);
#651 = CARTESIAN_POINT('',(54.311600970695,0.,25.5));
#652 = VECTOR('',#653,1.);
#653 = DIRECTION('',(0.41253884148,0.,-0.910940011346));
#654 = ORIENTED_EDGE('',*,*,#655,.F.);
#655 = EDGE_CURVE('',#648,#648,#656,.T.);
#656 = CIRCLE('',#657,54.99090833947);
#657 = AXIS2_PLACEMENT_3D('',#658,#659,#660);
#658 = CARTESIAN_POINT('',(0.,0.,24.));
#659 = DIRECTION('',(0.,0.,1.));
#660 = DIRECTION('',(1.,0.,0.));
#661 = ORIENTED_EDGE('',*,*,#647,.F.);
#662 = CONICAL_SURFACE('',#663,54.311600970695,0.425239365839);
#663 = AXIS2_PLACEMENT_3D('',#664,#665,#666);
#664 = CARTESIAN_POINT('',(0.,0.,25.5));
#665 = DIRECTION('',(-0.,-0.,-1.));
#666 = DIRECTION('',(1.,0.,0.));
#667 = ADVANCED_FACE('',(#668),#687,.F.);
#668 = FACE_BOUND('',#669,.T.);
#669 = EDGE_LOOP('',(#670,#671,#679,#686));
#670 = ORIENTED_EDGE('',*,*,#655,.T.);
#671 = ORIENTED_EDGE('',*,*,#672,.T.);
#672 = EDGE_CURVE('',#648,#673,#675,.T.);
#673 = VERTEX_POINT('',#674);
#674 = CARTESIAN_POINT('',(55.621488653217,0.,22.5));
#675 = LINE('',#676,#677);
#676 = CARTESIAN_POINT('',(54.99090833947,0.,24.));
#677 = VECTOR('',#678,1.);
#678 = DIRECTION('',(0.387535628428,0.,-0.921854726461));
#679 = ORIENTED_EDGE('',*,*,#680,.F.);
#680 = EDGE_CURVE('',#673,#673,#681,.T.);
#681 = CIRCLE('',#682,55.621488653217);
#682 = AXIS2_PLACEMENT_3D('',#683,#684,#685);
#683 = CARTESIAN_POINT('',(0.,0.,22.5));
#684 = DIRECTION('',(0.,0.,1.));
#685 = DIRECTION('',(1.,0.,0.));
#686 = ORIENTED_EDGE('',*,*,#672,.F.);
#687 = CONICAL_SURFACE('',#688,54.99090833947,0.397956810282);
#688 = AXIS2_PLACEMENT_3D('',#689,#690,#691);
#689 = CARTESIAN_POINT('',(0.,0.,24.));
#690 = DIRECTION('',(-0.,-0.,-1.));
#691 = DIRECTION('',(1.,0.,0.));
#692 = ADVANCED_FACE('',(#693),#712,.F.);
#693 = FACE_BOUND('',#694,.T.);
#694 = EDGE_LOOP('',(#695,#696,#704,#711));
#695 = ORIENTED_EDGE('',*,*,#680,.T.);
#696 = ORIENTED_EDGE('',*,*,#697,.T.);
#697 = EDGE_CURVE('',#673,#698,#700,.T.);
#698 = VERTEX_POINT('',#699);
#699 = CARTESIAN_POINT('',(56.204981985586,0.,21.));
#700 = LINE('',#701,#702);
#701 = CARTESIAN_POINT('',(55.621488653217,0.,22.5));
#702 = VECTOR('',#703,1.);
#703 = DIRECTION('',(0.362532610072,0.,-0.931971086802));
#704 = ORIENTED_EDGE('',*,*,#705,.F.);
#705 = EDGE_CURVE('',#698,#698,#706,.T.);
#706 = CIRCLE('',#707,56.204981985586);
#707 = AXIS2_PLACEMENT_3D('',#708,#709,#710);
#708 = CARTESIAN_POINT('',(0.,0.,21.));
#709 = DIRECTION('',(0.,0.,1.));
#710 = DIRECTION('',(1.,0.,0.));
#711 = ORIENTED_EDGE('',*,*,#697,.F.);
#712 = CONICAL_SURFACE('',#713,55.621488653217,0.370983939071);
#713 = AXIS2_PLACEMENT_3D('',#714,#715,#716);
#714 = CARTESIAN_POINT('',(0.,0.,22.5));
#715 = DIRECTION('',(-0.,-0.,-1.));
#716 = DIRECTION('',(1.,0.,0.));
#717 = ADVANCED_FACE('',(#718),#737,.F.);
#718 = FACE_BOUND('',#719,.T.);
#719 = EDGE_LOOP('',(#720,#721,#729,#736));
#720 = ORIENTED_EDGE('',*,*,#705,.T.);
#721 = ORIENTED_EDGE('',*,*,#722,.T.);
#722 = EDGE_CURVE('',#698,#723,#725,.T.);
#723 = VERTEX_POINT('',#724);
#724 = CARTESIAN_POINT('',(56.742840958133,0.,19.5));
#725 = LINE('',#726,#727);
#726 = CARTESIAN_POINT('',(56.204981985586,0.,21.));
#727 = VECTOR('',#728,1.);
#728 = DIRECTION('',(0.337529761267,0.,-0.941314857133));
#729 = ORIENTED_EDGE('',*,*,#730,.F.);
#730 = EDGE_CURVE('',#723,#723,#731,.T.);
#731 = CIRCLE('',#732,56.742840958133);
#732 = AXIS2_PLACEMENT_3D('',#733,#734,#735);
#733 = CARTESIAN_POINT('',(0.,0.,19.5));
#734 = DIRECTION('',(0.,0.,1.));
#735 = DIRECTION('',(1.,0.,0.));
#736 = ORIENTED_EDGE('',*,*,#722,.F.);
#737 = CONICAL_SURFACE('',#738,56.204981985586,0.344291415867);
#738 = AXIS2_PLACEMENT_3D('',#739,#740,#741);
#739 = CARTESIAN_POINT('',(0.,0.,21.));
#740 = DIRECTION('',(-0.,-0.,-1.));
#741 = DIRECTION('',(1.,0.,0.));
#742 = ADVANCED_FACE('',(#743),#762,.F.);
#743 = FACE_BOUND('',#744,.T.);
#744 = EDGE_LOOP('',(#745,#746,#754,#761));
#745 = ORIENTED_EDGE('',*,*,#730,.T.);
#746 = ORIENTED_EDGE('',*,*,#747,.T.);
#747 = EDGE_CURVE('',#723,#748,#750,.T.);
#748 = VERTEX_POINT('',#749);
#749 = CARTESIAN_POINT('',(57.236352085017,0.,18.));
#750 = LINE('',#751,#752);
#751 = CARTESIAN_POINT('',(56.742840958133,0.,19.5));
#752 = VECTOR('',#753,1.);
#753 = DIRECTION('',(0.312527060299,0.,-0.949908856986));
#754 = ORIENTED_EDGE('',*,*,#755,.F.);
#755 = EDGE_CURVE('',#748,#748,#756,.T.);
#756 = CIRCLE('',#757,57.236352085017);
#757 = AXIS2_PLACEMENT_3D('',#758,#759,#760);
#758 = CARTESIAN_POINT('',(0.,0.,18.));
#759 = DIRECTION('',(0.,0.,1.));
#760 = DIRECTION('',(1.,0.,0.));
#761 = ORIENTED_EDGE('',*,*,#747,.F.);
#762 = CONICAL_SURFACE('',#763,56.742840958133,0.317852191052);
#763 = AXIS2_PLACEMENT_3D('',#764,#765,#766);
#764 = CARTESIAN_POINT('',(0.,0.,19.5));
#765 = DIRECTION('',(-0.,-0.,-1.));
#766 = DIRECTION('',(1.,0.,0.));
#767 = ADVANCED_FACE('',(#768),#787,.F.);
#768 = FACE_BOUND('',#769,.T.);
#769 = EDGE_LOOP('',(#770,#771,#779,#786));
#770 = ORIENTED_EDGE('',*,*,#755,.T.);
#771 = ORIENTED_EDGE('',*,*,#772,.T.);
#772 = EDGE_CURVE('',#748,#773,#775,.T.);
#773 = VERTEX_POINT('',#774);
#774 = CARTESIAN_POINT('',(57.686653569088,0.,16.5));
#775 = LINE('',#776,#777);
#776 = CARTESIAN_POINT('',(57.236352085017,0.,18.));
#777 = VECTOR('',#778,1.);
#778 = DIRECTION('',(0.28752448826,0.,-0.957773286666));
#779 = ORIENTED_EDGE('',*,*,#780,.F.);
#780 = EDGE_CURVE('',#773,#773,#781,.T.);
#781 = CIRCLE('',#782,57.686653569088);
#782 = AXIS2_PLACEMENT_3D('',#783,#784,#785);
#783 = CARTESIAN_POINT('',(0.,0.,16.5));
#784 = DIRECTION('',(0.,0.,1.));
#785 = DIRECTION('',(1.,0.,0.));
#786 = ORIENTED_EDGE('',*,*,#772,.F.);
#787 = CONICAL_SURFACE('',#788,57.236352085017,0.291641178204);
#788 = AXIS2_PLACEMENT_3D('',#789,#790,#791);
#789 = CARTESIAN_POINT('',(0.,0.,18.));
#790 = DIRECTION('',(-0.,-0.,-1.));
#791 = DIRECTION('',(1.,0.,0.));
#792 = ADVANCED_FACE('',(#793),#812,.F.);
#793 = FACE_BOUND('',#794,.T.);
#794 = EDGE_LOOP('',(#795,#796,#804,#811));
#795 = ORIENTED_EDGE('',*,*,#780,.T.);
#796 = ORIENTED_EDGE('',*,*,#797,.T.);
#797 = EDGE_CURVE('',#773,#798,#800,.T.);
#798 = VERTEX_POINT('',#799);
#799 = CARTESIAN_POINT('',(58.094750193111,0.,15.));
#800 = LINE('',#801,#802);
#801 = CARTESIAN_POINT('',(57.686653569088,0.,16.5));
#802 = VECTOR('',#803,1.);
#803 = DIRECTION('',(0.262522028554,0.,-0.964925999507));
#804 = ORIENTED_EDGE('',*,*,#805,.F.);
#805 = EDGE_CURVE('',#798,#798,#806,.T.);
#806 = CIRCLE('',#807,58.094750193111);
#807 = AXIS2_PLACEMENT_3D('',#808,#809,#810);
#808 = CARTESIAN_POINT('',(0.,0.,15.));
#809 = DIRECTION('',(0.,0.,1.));
#810 = DIRECTION('',(1.,0.,0.));
#811 = ORIENTED_EDGE('',*,*,#797,.F.);
#812 = CONICAL_SURFACE('',#813,57.686653569088,0.265634978767);
#813 = AXIS2_PLACEMENT_3D('',#814,#815,#816);
#814 = CARTESIAN_POINT('',(0.,0.,16.5));
#815 = DIRECTION('',(-0.,-0.,-1.));
#816 = DIRECTION('',(1.,0.,0.));
#817 = ADVANCED_FACE('',(#818),#837,.F.);
#818 = FACE_BOUND('',#819,.T.);
#819 = EDGE_LOOP('',(#820,#821,#829,#836));
#820 = ORIENTED_EDGE('',*,*,#805,.T.);
#821 = ORIENTED_EDGE('',*,*,#822,.T.);
#822 = EDGE_CURVE('',#798,#823,#825,.T.);
#823 = VERTEX_POINT('',#824);
#824 = CARTESIAN_POINT('',(58.461525809715,0.,13.5));
#825 = LINE('',#826,#827);
#826 = CARTESIAN_POINT('',(58.094750193111,0.,15.));
#827 = VECTOR('',#828,1.);
#828 = DIRECTION('',(0.237519666489,0.,-0.971382729943));
#829 = ORIENTED_EDGE('',*,*,#830,.F.);
#830 = EDGE_CURVE('',#823,#823,#831,.T.);
#831 = CIRCLE('',#832,58.461525809715);
#832 = AXIS2_PLACEMENT_3D('',#833,#834,#835);
#833 = CARTESIAN_POINT('',(0.,0.,13.5));
#834 = DIRECTION('',(0.,0.,1.));
#835 = DIRECTION('',(1.,0.,0.));
#836 = ORIENTED_EDGE('',*,*,#822,.F.);
#837 = CONICAL_SURFACE('',#838,58.094750193111,0.23981164566);
#838 = AXIS2_PLACEMENT_3D('',#839,#840,#841);
#839 = CARTESIAN_POINT('',(0.,0.,15.));
#840 = DIRECTION('',(-0.,-0.,-1.));
#841 = DIRECTION('',(1.,0.,0.));
#842 = ADVANCED_FACE('',(#843),#862,.F.);
#843 = FACE_BOUND('',#844,.T.);
#844 = EDGE_LOOP('',(#845,#846,#854,#861));
#845 = ORIENTED_EDGE('',*,*,#830,.T.);
#846 = ORIENTED_EDGE('',*,*,#847,.T.);
#847 = EDGE_CURVE('',#823,#848,#850,.T.);
#848 = VERTEX_POINT('',#849);
#849 = CARTESIAN_POINT('',(58.787753826796,0.,12.));
#850 = LINE('',#851,#852);
#851 = CARTESIAN_POINT('',(58.461525809715,0.,13.5));
#852 = VECTOR('',#853,1.);
#853 = DIRECTION('',(0.212517388949,0.,-0.97715728488));
#854 = ORIENTED_EDGE('',*,*,#855,.F.);
#855 = EDGE_CURVE('',#848,#848,#856,.T.);
#856 = CIRCLE('',#857,58.787753826796);
#857 = AXIS2_PLACEMENT_3D('',#858,#859,#860);
#858 = CARTESIAN_POINT('',(0.,0.,12.));
#859 = DIRECTION('',(0.,0.,1.));
#860 = DIRECTION('',(1.,0.,0.));
#861 = ORIENTED_EDGE('',*,*,#847,.F.);
#862 = CONICAL_SURFACE('',#863,58.461525809715,0.214150478484);
#863 = AXIS2_PLACEMENT_3D('',#864,#865,#866);
#864 = CARTESIAN_POINT('',(0.,0.,13.5));
#865 = DIRECTION('',(-0.,-0.,-1.));
#866 = DIRECTION('',(1.,0.,0.));
#867 = ADVANCED_FACE('',(#868),#887,.F.);
#868 = FACE_BOUND('',#869,.T.);
#869 = EDGE_LOOP('',(#870,#871,#879,#886));
#870 = ORIENTED_EDGE('',*,*,#855,.T.);
#871 = ORIENTED_EDGE('',*,*,#872,.T.);
#872 = EDGE_CURVE('',#848,#873,#875,.T.);
#873 = VERTEX_POINT('',#874);
#874 = CARTESIAN_POINT('',(59.074106002546,0.,10.5));
#875 = LINE('',#876,#877);
#876 = CARTESIAN_POINT('',(58.787753826796,0.,12.));
#877 = VECTOR('',#878,1.);
#878 = DIRECTION('',(0.18751518412,0.,-0.982261704295));
#879 = ORIENTED_EDGE('',*,*,#880,.F.);
#880 = EDGE_CURVE('',#873,#873,#881,.T.);
#881 = CIRCLE('',#882,59.074106002546);
#882 = AXIS2_PLACEMENT_3D('',#883,#884,#885);
#883 = CARTESIAN_POINT('',(0.,0.,10.5));
#884 = DIRECTION('',(0.,0.,1.));
#885 = DIRECTION('',(1.,0.,0.));
#886 = ORIENTED_EDGE('',*,*,#872,.F.);
#887 = CONICAL_SURFACE('',#888,58.787753826796,0.188631844477);
#888 = AXIS2_PLACEMENT_3D('',#889,#890,#891);
#889 = CARTESIAN_POINT('',(0.,0.,12.));
#890 = DIRECTION('',(-0.,-0.,-1.));
#891 = DIRECTION('',(1.,0.,0.));
#892 = ADVANCED_FACE('',(#893),#912,.F.);
#893 = FACE_BOUND('',#894,.T.);
#894 = EDGE_LOOP('',(#895,#896,#904,#911));
#895 = ORIENTED_EDGE('',*,*,#880,.T.);
#896 = ORIENTED_EDGE('',*,*,#897,.T.);
#897 = EDGE_CURVE('',#873,#898,#900,.T.);
#898 = VERTEX_POINT('',#899);
#899 = CARTESIAN_POINT('',(59.321159799856,0.,9.));
#900 = LINE('',#901,#902);
#901 = CARTESIAN_POINT('',(59.074106002546,0.,10.5));
#902 = VECTOR('',#903,1.);
#903 = DIRECTION('',(0.162513041267,0.,-0.986706395752));
#904 = ORIENTED_EDGE('',*,*,#905,.F.);
#905 = EDGE_CURVE('',#898,#898,#906,.T.);
#906 = CIRCLE('',#907,59.321159799856);
#907 = AXIS2_PLACEMENT_3D('',#908,#909,#910);
#908 = CARTESIAN_POINT('',(0.,0.,9.));
#909 = DIRECTION('',(0.,0.,1.));
#910 = DIRECTION('',(1.,0.,0.));
#911 = ORIENTED_EDGE('',*,*,#897,.F.);
#912 = CONICAL_SURFACE('',#913,59.074106002546,0.16323702047);
#913 = AXIS2_PLACEMENT_3D('',#914,#915,#916);
#914 = CARTESIAN_POINT('',(0.,0.,10.5));
#915 = DIRECTION('',(-0.,-0.,-1.));
#916 = DIRECTION('',(1.,0.,0.));
#917 = ADVANCED_FACE('',(#918),#937,.F.);
#918 = FACE_BOUND('',#919,.T.);
#919 = EDGE_LOOP('',(#920,#921,#929,#936));
#920 = ORIENTED_EDGE('',*,*,#905,.T.);
#921 = ORIENTED_EDGE('',*,*,#922,.T.);
#922 = EDGE_CURVE('',#898,#923,#925,.T.);
#923 = VERTEX_POINT('',#924);
#924 = CARTESIAN_POINT('',(59.529404498953,0.,7.5));
#925 = LINE('',#926,#927);
#926 = CARTESIAN_POINT('',(59.321159799856,0.,9.));
#927 = VECTOR('',#928,1.);
#928 = DIRECTION('',(0.137510950537,0.,-0.990500246584));
#929 = ORIENTED_EDGE('',*,*,#930,.F.);
#930 = EDGE_CURVE('',#923,#923,#931,.T.);
#931 = CIRCLE('',#932,59.529404498953);
#932 = AXIS2_PLACEMENT_3D('',#933,#934,#935);
#933 = CARTESIAN_POINT('',(0.,0.,7.5));
#934 = DIRECTION('',(0.,0.,1.));
#935 = DIRECTION('',(1.,0.,0.));
#936 = ORIENTED_EDGE('',*,*,#922,.F.);
#937 = CONICAL_SURFACE('',#938,59.321159799856,0.137948051972);
#938 = AXIS2_PLACEMENT_3D('',#939,#940,#941);
#939 = CARTESIAN_POINT('',(0.,0.,9.));
#940 = DIRECTION('',(-0.,-0.,-1.));
#941 = DIRECTION('',(1.,0.,0.));
#942 = ADVANCED_FACE('',(#943),#962,.F.);
#943 = FACE_BOUND('',#944,.T.);
#944 = EDGE_LOOP('',(#945,#946,#954,#961));
#945 = ORIENTED_EDGE('',*,*,#930,.T.);
#946 = ORIENTED_EDGE('',*,*,#947,.T.);
#947 = EDGE_CURVE('',#923,#948,#950,.T.);
#948 = VERTEX_POINT('',#949);
#949 = CARTESIAN_POINT('',(59.699246226397,0.,6.));
#950 = LINE('',#951,#952);
#951 = CARTESIAN_POINT('',(59.529404498953,0.,7.5));
#952 = VECTOR('',#953,1.);
#953 = DIRECTION('',(0.1125089028,0.,-0.993650716696));
#954 = ORIENTED_EDGE('',*,*,#955,.F.);
#955 = EDGE_CURVE('',#948,#948,#956,.T.);
#956 = CIRCLE('',#957,59.699246226397);
#957 = AXIS2_PLACEMENT_3D('',#958,#959,#960);
#958 = CARTESIAN_POINT('',(0.,0.,6.));
#959 = DIRECTION('',(0.,0.,1.));
#960 = DIRECTION('',(1.,0.,0.));
#961 = ORIENTED_EDGE('',*,*,#947,.F.);
#962 = CONICAL_SURFACE('',#963,59.529404498953,0.112747626165);
#963 = AXIS2_PLACEMENT_3D('',#964,#965,#966);
#964 = CARTESIAN_POINT('',(0.,0.,7.5));
#965 = DIRECTION('',(-0.,-0.,-1.));
#966 = DIRECTION('',(1.,0.,0.));
#967 = ADVANCED_FACE('',(#968),#987,.F.);
#968 = FACE_BOUND('',#969,.T.);
#969 = EDGE_LOOP('',(#970,#971,#979,#986));
#970 = ORIENTED_EDGE('',*,*,#955,.T.);
#971 = ORIENTED_EDGE('',*,*,#972,.T.);
#972 = EDGE_CURVE('',#948,#973,#975,.T.);
#973 = VERTEX_POINT('',#974);
#974 = CARTESIAN_POINT('',(59.831012025537,0.,4.5));
#975 = LINE('',#976,#977);
#976 = CARTESIAN_POINT('',(59.699246226397,0.,6.));
#977 = VECTOR('',#978,1.);
#978 = DIRECTION('',(8.750688950092E-02,0.,-0.996163914368));
#979 = ORIENTED_EDGE('',*,*,#980,.F.);
#980 = EDGE_CURVE('',#973,#973,#981,.T.);
#981 = CIRCLE('',#982,59.831012025537);
#982 = AXIS2_PLACEMENT_3D('',#983,#984,#985);
#983 = CARTESIAN_POINT('',(0.,0.,4.5));
#984 = DIRECTION('',(0.,0.,1.));
#985 = DIRECTION('',(1.,0.,0.));
#986 = ORIENTED_EDGE('',*,*,#972,.F.);
#987 = CONICAL_SURFACE('',#988,59.699246226397,8.761895611914E-02);
#988 = AXIS2_PLACEMENT_3D('',#989,#990,#991);
#989 = CARTESIAN_POINT('',(0.,0.,6.));
#990 = DIRECTION('',(-0.,-0.,-1.));
#991 = DIRECTION('',(1.,0.,0.));
#992 = ADVANCED_FACE('',(#993),#1012,.F.);
#993 = FACE_BOUND('',#994,.T.);
#994 = EDGE_LOOP('',(#995,#996,#1004,#1011));
#995 = ORIENTED_EDGE('',*,*,#980,.T.);
#996 = ORIENTED_EDGE('',*,*,#997,.T.);
#997 = EDGE_CURVE('',#973,#998,#1000,.T.);
#998 = VERTEX_POINT('',#999);
#999 = CARTESIAN_POINT('',(59.924953066315,0.,3.));
#1000 = LINE('',#1001,#1002);
#1001 = CARTESIAN_POINT('',(59.831012025537,0.,4.5));
#1002 = VECTOR('',#1003,1.);
#1003 = DIRECTION('',(6.250490254058E-02,0.,-0.998044656896));
#1004 = ORIENTED_EDGE('',*,*,#1005,.F.);
#1005 = EDGE_CURVE('',#998,#998,#1006,.T.);
#1006 = CIRCLE('',#1007,59.924953066315);
#1007 = AXIS2_PLACEMENT_3D('',#1008,#1009,#1010);
#1008 = CARTESIAN_POINT('',(0.,0.,3.));
#1009 = DIRECTION('',(0.,0.,1.));
#1010 = DIRECTION('',(1.,0.,0.));
#1011 = ORIENTED_EDGE('',*,*,#997,.F.);
#1012 = CONICAL_SURFACE('',#1013,59.831012025537,6.254567394124E-02);
#1013 = AXIS2_PLACEMENT_3D('',#1014,#1015,#1016);
#1014 = CARTESIAN_POINT('',(0.,0.,4.5));
#1015 = DIRECTION('',(-0.,-0.,-1.));
#1016 = DIRECTION('',(1.,0.,0.));
#1017 = ADVANCED_FACE('',(#1018),#1037,.F.);
#1018 = FACE_BOUND('',#1019,.T.);
#1019 = EDGE_LOOP('',(#1020,#1021,#1029,#1036));
#1020 = ORIENTED_EDGE('',*,*,#1005,.T.);
#1021 = ORIENTED_EDGE('',*,*,#1022,.T.);
#1022 = EDGE_CURVE('',#998,#1023,#1025,.T.);
#1023 = VERTEX_POINT('',#1024);
#1024 = CARTESIAN_POINT('',(59.981247069397,0.,1.5));
#1025 = LINE('',#1026,#1027);
#1026 = CARTESIAN_POINT('',(59.924953066315,0.,3.));
#1027 = VECTOR('',#1028,1.);
#1028 = DIRECTION('',(3.750293415816E-02,0.,-0.999296517521));
#1029 = ORIENTED_EDGE('',*,*,#1030,.F.);
#1030 = EDGE_CURVE('',#1023,#1023,#1031,.T.);
#1031 = CIRCLE('',#1032,59.981247069397);
#1032 = AXIS2_PLACEMENT_3D('',#1033,#1034,#1035);
#1033 = CARTESIAN_POINT('',(0.,0.,1.5));
#1034 = DIRECTION('',(0.,0.,1.));
#1035 = DIRECTION('',(1.,0.,0.));
#1036 = ORIENTED_EDGE('',*,*,#1022,.F.);
#1037 = CONICAL_SURFACE('',#1038,59.924953066315,3.751173085257E-02);
#1038 = AXIS2_PLACEMENT_3D('',#1039,#1040,#1041);
#1039 = CARTESIAN_POINT('',(0.,0.,3.));
#1040 = DIRECTION('',(-0.,-0.,-1.));
#1041 = DIRECTION('',(1.,0.,0.));
#1042 = ADVANCED_FACE('',(#1043),#1062,.F.);
#1043 = FACE_BOUND('',#1044,.T.);
#1044 = EDGE_LOOP('',(#1045,#1046,#1054,#1061));
#1045 = ORIENTED_EDGE('',*,*,#1030,.T.);
#1046 = ORIENTED_EDGE('',*,*,#1047,.T.);
#1047 = EDGE_CURVE('',#1023,#1048,#1050,.T.);
#1048 = VERTEX_POINT('',#1049);
#1049 = CARTESIAN_POINT('',(60.,0.,0.));
#1050 = LINE('',#1051,#1052);
#1051 = CARTESIAN_POINT('',(59.981247069397,0.,1.5));
#1052 = VECTOR('',#1053,1.);
#1053 = DIRECTION('',(1.250097682963E-02,0.,-0.999921859736));
#1054 = ORIENTED_EDGE('',*,*,#1055,.F.);
#1055 = EDGE_CURVE('',#1048,#1048,#1056,.T.);
#1056 = CIRCLE('',#1057,60.);
#1057 = AXIS2_PLACEMENT_3D('',#1058,#1059,#1060);
#1058 = CARTESIAN_POINT('',(0.,0.,0.));
#1059 = DIRECTION('',(0.,0.,1.));
#1060 = DIRECTION('',(1.,0.,0.));
#1061 = ORIENTED_EDGE('',*,*,#1047,.F.);
#1062 = CONICAL_SURFACE('',#1063,59.981247069397,1.250130244968E-02);
#1063 = AXIS2_PLACEMENT_3D('',#1064,#1065,#1066);
#1064 = CARTESIAN_POINT('',(0.,0.,1.5));
#1065 = DIRECTION('',(-0.,-0.,-1.));
#1066 = DIRECTION('',(1.,0.,0.));
#1067 = ADVANCED_FACE('',(#1068,#1071),#1082,.T.);
#1068 = FACE_BOUND('',#1069,.T.);
#1069 = EDGE_LOOP('',(#1070));
#1070 = ORIENTED_EDGE('',*,*,#1055,.T.);
#1071 = FACE_BOUND('',#1072,.T.);
#1072 = EDGE_LOOP('',(#1073));
#1073 = ORIENTED_EDGE('',*,*,#1074,.F.);
#1074 = EDGE_CURVE('',#1075,#1075,#1077,.T.);
#1075 = VERTEX_POINT('',#1076);
#1076 = CARTESIAN_POINT('',(58.,0.,0.));
#1077 = CIRCLE('',#1078,58.);
#1078 = AXIS2_PLACEMENT_3D('',#1079,#1080,#1081);
#1079 = CARTESIAN_POINT('',(0.,0.,0.));
#1080 = DIRECTION('',(0.,0.,1.));
#1081 = DIRECTION('',(1.,0.,0.));
#1082 = PLANE('',#1083);
#1083 = AXIS2_PLACEMENT_3D('',#1084,#1085,#1086);
#1084 = CARTESIAN_POINT('',(0.,0.,0.));
#1085 = DIRECTION('',(0.,0.,1.));
#1086 = DIRECTION('',(1.,0.,0.));
#1087 = ADVANCED_FACE('',(#1088),#1107,.T.);
#1088 = FACE_BOUND('',#1089,.T.);
#1089 = EDGE_LOOP('',(#1090,#1091,#1099,#1106));
#1090 = ORIENTED_EDGE('',*,*,#1074,.T.);
#1091 = ORIENTED_EDGE('',*,*,#1092,.T.);
#1092 = EDGE_CURVE('',#1075,#1093,#1095,.T.);
#1093 = VERTEX_POINT('',#1094);
#1094 = CARTESIAN_POINT('',(57.981872167083,0.,1.5));
#1095 = LINE('',#1096,#1097);
#1096 = CARTESIAN_POINT('',(58.,0.,0.));
#1097 = VECTOR('',#1098,1.);
#1098 = DIRECTION('',(-1.208433950208E-02,0.,0.999926981704));
#1099 = ORIENTED_EDGE('',*,*,#1100,.F.);
#1100 = EDGE_CURVE('',#1093,#1093,#1101,.T.);
#1101 = CIRCLE('',#1102,57.981872167083);
#1102 = AXIS2_PLACEMENT_3D('',#1103,#1104,#1105);
#1103 = CARTESIAN_POINT('',(0.,0.,1.5));
#1104 = DIRECTION('',(0.,0.,1.));
#1105 = DIRECTION('',(1.,0.,0.));
#1106 = ORIENTED_EDGE('',*,*,#1092,.F.);
#1107 = CONICAL_SURFACE('',#1108,58.,1.208463363664E-02);
#1108 = AXIS2_PLACEMENT_3D('',#1109,#1110,#1111);
#1109 = CARTESIAN_POINT('',(0.,0.,0.));
#1110 = DIRECTION('',(-0.,-0.,-1.));
#1111 = DIRECTION('',(1.,0.,0.));
#1112 = ADVANCED_FACE('',(#1113),#1132,.T.);
#1113 = FACE_BOUND('',#1114,.T.);
#1114 = EDGE_LOOP('',(#1115,#1116,#1124,#1131));
#1115 = ORIENTED_EDGE('',*,*,#1100,.T.);
#1116 = ORIENTED_EDGE('',*,*,#1117,.T.);
#1117 = EDGE_CURVE('',#1093,#1118,#1120,.T.);
#1118 = VERTEX_POINT('',#1119);
#1119 = CARTESIAN_POINT('',(57.927454630771,0.,3.));
#1120 = LINE('',#1121,#1122);
#1121 = CARTESIAN_POINT('',(57.981872167083,0.,1.5));
#1122 = VECTOR('',#1123,1.);
#1123 = DIRECTION('',(-3.625450775915E-02,0.,0.999342589239));
#1124 = ORIENTED_EDGE('',*,*,#1125,.F.);
#1125 = EDGE_CURVE('',#1118,#1118,#1126,.T.);
#1126 = CIRCLE('',#1127,57.927454630771);
#1127 = AXIS2_PLACEMENT_3D('',#1128,#1129,#1130);
#1128 = CARTESIAN_POINT('',(0.,0.,3.));
#1129 = DIRECTION('',(0.,0.,1.));
#1130 = DIRECTION('',(1.,0.,0.));
#1131 = ORIENTED_EDGE('',*,*,#1117,.F.);
#1132 = CONICAL_SURFACE('',#1133,57.981872167083,3.626245455009E-02);
#1133 = AXIS2_PLACEMENT_3D('',#1134,#1135,#1136);
#1134 = CARTESIAN_POINT('',(0.,0.,1.5));
#1135 = DIRECTION('',(-0.,-0.,-1.));
#1136 = DIRECTION('',(1.,0.,0.));
#1137 = ADVANCED_FACE('',(#1138),#1157,.T.);
#1138 = FACE_BOUND('',#1139,.T.);
#1139 = EDGE_LOOP('',(#1140,#1141,#1149,#1156));
#1140 = ORIENTED_EDGE('',*,*,#1125,.T.);
#1141 = ORIENTED_EDGE('',*,*,#1142,.T.);
#1142 = EDGE_CURVE('',#1118,#1143,#1145,.T.);
#1143 = VERTEX_POINT('',#1144);
#1144 = CARTESIAN_POINT('',(57.836644958019,0.,4.5));
#1145 = LINE('',#1146,#1147);
#1146 = CARTESIAN_POINT('',(57.927454630771,0.,3.));
#1147 = VECTOR('',#1148,1.);
#1148 = DIRECTION('',(-6.042914473724E-02,0.,0.998172489336));
#1149 = ORIENTED_EDGE('',*,*,#1150,.F.);
#1150 = EDGE_CURVE('',#1143,#1143,#1151,.T.);
#1151 = CIRCLE('',#1152,57.836644958019);
#1152 = AXIS2_PLACEMENT_3D('',#1153,#1154,#1155);
#1153 = CARTESIAN_POINT('',(0.,0.,4.5));
#1154 = DIRECTION('',(0.,0.,1.));
#1155 = DIRECTION('',(1.,0.,0.));
#1156 = ORIENTED_EDGE('',*,*,#1142,.F.);
#1157 = CONICAL_SURFACE('',#1158,57.927454630771,6.046598330327E-02);
#1158 = AXIS2_PLACEMENT_3D('',#1159,#1160,#1161);
#1159 = CARTESIAN_POINT('',(0.,0.,3.));
#1160 = DIRECTION('',(-0.,-0.,-1.));
#1161 = DIRECTION('',(1.,0.,0.));
#1162 = ADVANCED_FACE('',(#1163),#1182,.T.);
#1163 = FACE_BOUND('',#1164,.T.);
#1164 = EDGE_LOOP('',(#1165,#1166,#1174,#1181));
#1165 = ORIENTED_EDGE('',*,*,#1150,.T.);
#1166 = ORIENTED_EDGE('',*,*,#1167,.T.);
#1167 = EDGE_CURVE('',#1143,#1168,#1170,.T.);
#1168 = VERTEX_POINT('',#1169);
#1169 = CARTESIAN_POINT('',(57.709271352184,0.,6.));
#1170 = LINE('',#1171,#1172);
#1171 = CARTESIAN_POINT('',(57.836644958019,0.,4.5));
#1172 = VECTOR('',#1173,1.);
#1173 = DIRECTION('',(-8.461123279412E-02,0.,0.996414040088));
#1174 = ORIENTED_EDGE('',*,*,#1175,.F.);
#1175 = EDGE_CURVE('',#1168,#1168,#1176,.T.);
#1176 = CIRCLE('',#1177,57.709271352184);
#1177 = AXIS2_PLACEMENT_3D('',#1178,#1179,#1180);
#1178 = CARTESIAN_POINT('',(0.,0.,6.));
#1179 = DIRECTION('',(0.,0.,1.));
#1180 = DIRECTION('',(1.,0.,0.));
#1181 = ORIENTED_EDGE('',*,*,#1167,.F.);
#1182 = CONICAL_SURFACE('',#1183,57.836644958019,8.471251558372E-02);
#1183 = AXIS2_PLACEMENT_3D('',#1184,#1185,#1186);
#1184 = CARTESIAN_POINT('',(0.,0.,4.5));
#1185 = DIRECTION('',(-0.,-0.,-1.));
#1186 = DIRECTION('',(1.,0.,0.));
#1187 = ADVANCED_FACE('',(#1188),#1207,.T.);
#1188 = FACE_BOUND('',#1189,.T.);
#1189 = EDGE_LOOP('',(#1190,#1191,#1199,#1206));
#1190 = ORIENTED_EDGE('',*,*,#1175,.T.);
#1191 = ORIENTED_EDGE('',*,*,#1192,.T.);
#1192 = EDGE_CURVE('',#1168,#1193,#1195,.T.);
#1193 = VERTEX_POINT('',#1194);
#1194 = CARTESIAN_POINT('',(57.545091015655,0.,7.5));
#1195 = LINE('',#1196,#1197);
#1196 = CARTESIAN_POINT('',(57.709271352184,0.,6.));
#1197 = VECTOR('',#1198,1.);
#1198 = DIRECTION('',(-0.108803759112,0.,0.994063248492));
#1199 = ORIENTED_EDGE('',*,*,#1200,.F.);
#1200 = EDGE_CURVE('',#1193,#1193,#1201,.T.);
#1201 = CIRCLE('',#1202,57.545091015655);
#1202 = AXIS2_PLACEMENT_3D('',#1203,#1204,#1205);
#1203 = CARTESIAN_POINT('',(0.,0.,7.5));
#1204 = DIRECTION('',(0.,0.,1.));
#1205 = DIRECTION('',(1.,0.,0.));
#1206 = ORIENTED_EDGE('',*,*,#1192,.F.);
#1207 = CONICAL_SURFACE('',#1208,57.709271352184,0.109019585349);
#1208 = AXIS2_PLACEMENT_3D('',#1209,#1210,#1211);
#1209 = CARTESIAN_POINT('',(0.,0.,6.));
#1210 = DIRECTION('',(-0.,-0.,-1.));
#1211 = DIRECTION('',(1.,0.,0.));
#1212 = ADVANCED_FACE('',(#1213),#1232,.T.);
#1213 = FACE_BOUND('',#1214,.T.);
#1214 = EDGE_LOOP('',(#1215,#1216,#1224,#1231));
#1215 = ORIENTED_EDGE('',*,*,#1200,.T.);
#1216 = ORIENTED_EDGE('',*,*,#1217,.T.);
#1217 = EDGE_CURVE('',#1193,#1218,#1220,.T.);
#1218 = VERTEX_POINT('',#1219);
#1219 = CARTESIAN_POINT('',(57.343787806527,0.,9.));
#1220 = LINE('',#1221,#1222);
#1221 = CARTESIAN_POINT('',(57.545091015655,0.,7.5));
#1222 = VECTOR('',#1223,1.);
#1223 = DIRECTION('',(-0.133009717648,0.,0.991114733525));
#1224 = ORIENTED_EDGE('',*,*,#1225,.F.);
#1225 = EDGE_CURVE('',#1218,#1218,#1226,.T.);
#1226 = CIRCLE('',#1227,57.343787806527);
#1227 = AXIS2_PLACEMENT_3D('',#1228,#1229,#1230);
#1228 = CARTESIAN_POINT('',(0.,0.,9.));
#1229 = DIRECTION('',(0.,0.,1.));
#1230 = DIRECTION('',(1.,0.,0.));
#1231 = ORIENTED_EDGE('',*,*,#1217,.F.);
#1232 = CONICAL_SURFACE('',#1233,57.545091015655,0.133405065376);
#1233 = AXIS2_PLACEMENT_3D('',#1234,#1235,#1236);
#1234 = CARTESIAN_POINT('',(0.,0.,7.5));
#1235 = DIRECTION('',(-0.,-0.,-1.));
#1236 = DIRECTION('',(1.,0.,0.));
#1237 = ADVANCED_FACE('',(#1238),#1257,.T.);
#1238 = FACE_BOUND('',#1239,.T.);
#1239 = EDGE_LOOP('',(#1240,#1241,#1249,#1256));
#1240 = ORIENTED_EDGE('',*,*,#1225,.T.);
#1241 = ORIENTED_EDGE('',*,*,#1242,.T.);
#1242 = EDGE_CURVE('',#1218,#1243,#1245,.T.);
#1243 = VERTEX_POINT('',#1244);
#1244 = CARTESIAN_POINT('',(57.104969135794,0.,10.5));
#1245 = LINE('',#1246,#1247);
#1246 = CARTESIAN_POINT('',(57.343787806527,0.,9.));
#1247 = VECTOR('',#1248,1.);
#1248 = DIRECTION('',(-0.157232111099,0.,0.987561675664));
#1249 = ORIENTED_EDGE('',*,*,#1250,.F.);
#1250 = EDGE_CURVE('',#1243,#1243,#1251,.T.);
#1251 = CIRCLE('',#1252,57.104969135794);
#1252 = AXIS2_PLACEMENT_3D('',#1253,#1254,#1255);
#1253 = CARTESIAN_POINT('',(0.,0.,10.5));
#1254 = DIRECTION('',(0.,0.,1.));
#1255 = DIRECTION('',(1.,0.,0.));
#1256 = ORIENTED_EDGE('',*,*,#1242,.F.);
#1257 = CONICAL_SURFACE('',#1258,57.343787806527,0.15788727324);
#1258 = AXIS2_PLACEMENT_3D('',#1259,#1260,#1261);
#1259 = CARTESIAN_POINT('',(0.,0.,9.));
#1260 = DIRECTION('',(-0.,-0.,-1.));
#1261 = DIRECTION('',(1.,0.,0.));
#1262 = ADVANCED_FACE('',(#1263),#1282,.T.);
#1263 = FACE_BOUND('',#1264,.T.);
#1264 = EDGE_LOOP('',(#1265,#1266,#1274,#1281));
#1265 = ORIENTED_EDGE('',*,*,#1250,.T.);
#1266 = ORIENTED_EDGE('',*,*,#1267,.T.);
#1267 = EDGE_CURVE('',#1243,#1268,#1270,.T.);
#1268 = VERTEX_POINT('',#1269);
#1269 = CARTESIAN_POINT('',(56.82816203257,0.,12.));
#1270 = LINE('',#1271,#1272);
#1271 = CARTESIAN_POINT('',(57.104969135794,0.,10.5));
#1272 = VECTOR('',#1273,1.);
#1273 = DIRECTION('',(-0.181473952897,0.,0.983395751679));
#1274 = ORIENTED_EDGE('',*,*,#1275,.F.);
#1275 = EDGE_CURVE('',#1268,#1268,#1276,.T.);
#1276 = CIRCLE('',#1277,56.82816203257);
#1277 = AXIS2_PLACEMENT_3D('',#1278,#1279,#1280);
#1278 = CARTESIAN_POINT('',(0.,0.,12.));
#1279 = DIRECTION('',(0.,0.,1.));
#1280 = DIRECTION('',(1.,0.,0.));
#1281 = ORIENTED_EDGE('',*,*,#1267,.F.);
#1282 = CONICAL_SURFACE('',#1283,57.104969135794,0.182485084589);
#1283 = AXIS2_PLACEMENT_3D('',#1284,#1285,#1286);
#1284 = CARTESIAN_POINT('',(0.,0.,10.5));
#1285 = DIRECTION('',(-0.,-0.,-1.));
#1286 = DIRECTION('',(1.,0.,0.));
#1287 = ADVANCED_FACE('',(#1288),#1307,.T.);
#1288 = FACE_BOUND('',#1289,.T.);
#1289 = EDGE_LOOP('',(#1290,#1291,#1299,#1306));
#1290 = ORIENTED_EDGE('',*,*,#1275,.T.);
#1291 = ORIENTED_EDGE('',*,*,#1292,.T.);
#1292 = EDGE_CURVE('',#1268,#1293,#1295,.T.);
#1293 = VERTEX_POINT('',#1294);
#1294 = CARTESIAN_POINT('',(56.512808282725,0.,13.5));
#1295 = LINE('',#1296,#1297);
#1296 = CARTESIAN_POINT('',(56.82816203257,0.,12.));
#1297 = VECTOR('',#1298,1.);
#1298 = DIRECTION('',(-0.205738269234,0.,0.9786070532));
#1299 = ORIENTED_EDGE('',*,*,#1300,.F.);
#1300 = EDGE_CURVE('',#1293,#1293,#1301,.T.);
#1301 = CIRCLE('',#1302,56.512808282725);
#1302 = AXIS2_PLACEMENT_3D('',#1303,#1304,#1305);
#1303 = CARTESIAN_POINT('',(0.,0.,13.5));
#1304 = DIRECTION('',(0.,0.,1.));
#1305 = DIRECTION('',(1.,0.,0.));
#1306 = ORIENTED_EDGE('',*,*,#1292,.F.);
#1307 = CONICAL_SURFACE('',#1308,56.82816203257,0.207218055766);
#1308 = AXIS2_PLACEMENT_3D('',#1309,#1310,#1311);
#1309 = CARTESIAN_POINT('',(0.,0.,12.));
#1310 = DIRECTION('',(-0.,-0.,-1.));
#1311 = DIRECTION('',(1.,0.,0.));
#1312 = ADVANCED_FACE('',(#1313),#1332,.T.);
#1313 = FACE_BOUND('',#1314,.T.);
#1314 = EDGE_LOOP('',(#1315,#1316,#1324,#1331));
#1315 = ORIENTED_EDGE('',*,*,#1300,.T.);
#1316 = ORIENTED_EDGE('',*,*,#1317,.T.);
#1317 = EDGE_CURVE('',#1293,#1318,#1320,.T.);
#1318 = VERTEX_POINT('',#1319);
#1319 = CARTESIAN_POINT('',(56.158258520008,0.,15.));
#1320 = LINE('',#1321,#1322);
#1321 = CARTESIAN_POINT('',(56.512808282725,0.,13.5));
#1322 = VECTOR('',#1323,1.);
#1323 = DIRECTION('',(-0.230028101131,0.,0.97318398707));
#1324 = ORIENTED_EDGE('',*,*,#1325,.F.);
#1325 = EDGE_CURVE('',#1318,#1318,#1326,.T.);
#1326 = CIRCLE('',#1327,56.158258520008);
#1327 = AXIS2_PLACEMENT_3D('',#1328,#1329,#1330);
#1328 = CARTESIAN_POINT('',(0.,0.,15.));
#1329 = DIRECTION('',(0.,0.,1.));
#1330 = DIRECTION('',(1.,0.,0.));
#1331 = ORIENTED_EDGE('',*,*,#1317,.F.);
#1332 = CONICAL_SURFACE('',#1333,56.512808282725,0.232106558219);
#1333 = AXIS2_PLACEMENT_3D('',#1334,#1335,#1336);
#1334 = CARTESIAN_POINT('',(0.,0.,13.5));
#1335 = DIRECTION('',(-0.,-0.,-1.));
#1336 = DIRECTION('',(1.,0.,0.));
#1337 = ADVANCED_FACE('',(#1338),#1357,.T.);
#1338 = FACE_BOUND('',#1339,.T.);
#1339 = EDGE_LOOP('',(#1340,#1341,#1349,#1356));
#1340 = ORIENTED_EDGE('',*,*,#1325,.T.);
#1341 = ORIENTED_EDGE('',*,*,#1342,.T.);
#1342 = EDGE_CURVE('',#1318,#1343,#1345,.T.);
#1343 = VERTEX_POINT('',#1344);
#1344 = CARTESIAN_POINT('',(55.763765116785,0.,16.5));
#1345 = LINE('',#1346,#1347);
#1346 = CARTESIAN_POINT('',(56.158258520008,0.,15.));
#1347 = VECTOR('',#1348,1.);
#1348 = DIRECTION('',(-0.254346506549,0.,0.967113155017));
#1349 = ORIENTED_EDGE('',*,*,#1350,.F.);
#1350 = EDGE_CURVE('',#1343,#1343,#1351,.T.);
#1351 = CIRCLE('',#1352,55.763765116785);
#1352 = AXIS2_PLACEMENT_3D('',#1353,#1354,#1355);
#1353 = CARTESIAN_POINT('',(0.,0.,16.5));
#1354 = DIRECTION('',(0.,0.,1.));
#1355 = DIRECTION('',(1.,0.,0.));
#1356 = ORIENTED_EDGE('',*,*,#1342,.F.);
#1357 = CONICAL_SURFACE('',#1358,56.158258520008,0.257171927499);
#1358 = AXIS2_PLACEMENT_3D('',#1359,#1360,#1361);
#1359 = CARTESIAN_POINT('',(0.,0.,15.));
#1360 = DIRECTION('',(-0.,-0.,-1.));
#1361 = DIRECTION('',(1.,0.,0.));
#1362 = ADVANCED_FACE('',(#1363),#1382,.T.);
#1363 = FACE_BOUND('',#1364,.T.);
#1364 = EDGE_LOOP('',(#1365,#1366,#1374,#1381));
#1365 = ORIENTED_EDGE('',*,*,#1350,.T.);
#1366 = ORIENTED_EDGE('',*,*,#1367,.T.);
#1367 = EDGE_CURVE('',#1343,#1368,#1370,.T.);
#1368 = VERTEX_POINT('',#1369);
#1369 = CARTESIAN_POINT('',(55.328473682183,0.,18.));
#1370 = LINE('',#1371,#1372);
#1371 = CARTESIAN_POINT('',(55.763765116785,0.,16.5));
#1372 = VECTOR('',#1373,1.);
#1373 = DIRECTION('',(-0.278696562573,0.,0.960379209485));
#1374 = ORIENTED_EDGE('',*,*,#1375,.F.);
#1375 = EDGE_CURVE('',#1368,#1368,#1376,.T.);
#1376 = CIRCLE('',#1377,55.328473682183);
#1377 = AXIS2_PLACEMENT_3D('',#1378,#1379,#1380);
#1378 = CARTESIAN_POINT('',(0.,0.,18.));
#1379 = DIRECTION('',(0.,0.,1.));
#1380 = DIRECTION('',(1.,0.,0.));
#1381 = ORIENTED_EDGE('',*,*,#1367,.F.);
#1382 = CONICAL_SURFACE('',#1383,55.763765116785,0.282436630205);
#1383 = AXIS2_PLACEMENT_3D('',#1384,#1385,#1386);
#1384 = CARTESIAN_POINT('',(0.,0.,16.5));
#1385 = DIRECTION('',(-0.,-0.,-1.));
#1386 = DIRECTION('',(1.,0.,0.));
#1387 = ADVANCED_FACE('',(#1388),#1407,.T.);
#1388 = FACE_BOUND('',#1389,.T.);
#1389 = EDGE_LOOP('',(#1390,#1391,#1399,#1406));
#1390 = ORIENTED_EDGE('',*,*,#1375,.T.);
#1391 = ORIENTED_EDGE('',*,*,#1392,.T.);
#1392 = EDGE_CURVE('',#1368,#1393,#1395,.T.);
#1393 = VERTEX_POINT('',#1394);
#1394 = CARTESIAN_POINT('',(54.851412926195,0.,19.5));
#1395 = LINE('',#1396,#1397);
#1396 = CARTESIAN_POINT('',(55.328473682183,0.,18.));
#1397 = VECTOR('',#1398,1.);
#1398 = DIRECTION('',(-0.303081367656,0.,0.952964681706));
#1399 = ORIENTED_EDGE('',*,*,#1400,.F.);
#1400 = EDGE_CURVE('',#1393,#1393,#1401,.T.);
#1401 = CIRCLE('',#1402,54.851412926195);
#1402 = AXIS2_PLACEMENT_3D('',#1403,#1404,#1405);
#1403 = CARTESIAN_POINT('',(0.,0.,19.5));
#1404 = DIRECTION('',(0.,0.,1.));
#1405 = DIRECTION('',(1.,0.,0.));
#1406 = ORIENTED_EDGE('',*,*,#1392,.F.);
#1407 = CONICAL_SURFACE('',#1408,55.328473682183,0.307924452955);
#1408 = AXIS2_PLACEMENT_3D('',#1409,#1410,#1411);
#1409 = CARTESIAN_POINT('',(0.,0.,18.));
#1410 = DIRECTION('',(-0.,-0.,-1.));
#1411 = DIRECTION('',(1.,0.,0.));
#1412 = ADVANCED_FACE('',(#1413),#1432,.T.);
#1413 = FACE_BOUND('',#1414,.T.);
#1414 = EDGE_LOOP('',(#1415,#1416,#1424,#1431));
#1415 = ORIENTED_EDGE('',*,*,#1400,.T.);
#1416 = ORIENTED_EDGE('',*,*,#1417,.T.);
#1417 = EDGE_CURVE('',#1393,#1418,#1420,.T.);
#1418 = VERTEX_POINT('',#1419);
#1419 = CARTESIAN_POINT('',(54.331482586066,0.,21.));
#1420 = LINE('',#1421,#1422);
#1421 = CARTESIAN_POINT('',(54.851412926195,0.,19.5));
#1422 = VECTOR('',#1423,1.);
#1423 = DIRECTION('',(-0.327504043967,0.,0.944849777047));
#1424 = ORIENTED_EDGE('',*,*,#1425,.F.);
#1425 = EDGE_CURVE('',#1418,#1418,#1426,.T.);
#1426 = CIRCLE('',#1427,54.331482586066);
#1427 = AXIS2_PLACEMENT_3D('',#1428,#1429,#1430);
#1428 = CARTESIAN_POINT('',(0.,0.,21.));
#1429 = DIRECTION('',(0.,0.,1.));
#1430 = DIRECTION('',(1.,0.,0.));
#1431 = ORIENTED_EDGE('',*,*,#1417,.F.);
#1432 = CONICAL_SURFACE('',#1433,54.851412926195,0.333660718314);
#1433 = AXIS2_PLACEMENT_3D('',#1434,#1435,#1436);
#1434 = CARTESIAN_POINT('',(0.,0.,19.5));
#1435 = DIRECTION('',(-0.,-0.,-1.));
#1436 = DIRECTION('',(1.,0.,0.));
#1437 = ADVANCED_FACE('',(#1438),#1457,.T.);
#1438 = FACE_BOUND('',#1439,.T.);
#1439 = EDGE_LOOP('',(#1440,#1441,#1449,#1456));
#1440 = ORIENTED_EDGE('',*,*,#1425,.T.);
#1441 = ORIENTED_EDGE('',*,*,#1442,.T.);
#1442 = EDGE_CURVE('',#1418,#1443,#1445,.T.);
#1443 = VERTEX_POINT('',#1444);
#1444 = CARTESIAN_POINT('',(53.767439031444,0.,22.5));
#1445 = LINE('',#1446,#1447);
#1446 = CARTESIAN_POINT('',(54.331482586066,0.,21.));
#1447 = VECTOR('',#1448,1.);
#1448 = DIRECTION('',(-0.35196773984,0.,0.936012131391));
#1449 = ORIENTED_EDGE('',*,*,#1450,.F.);
#1450 = EDGE_CURVE('',#1443,#1443,#1451,.T.);
#1451 = CIRCLE('',#1452,53.767439031444);
#1452 = AXIS2_PLACEMENT_3D('',#1453,#1454,#1455);
#1453 = CARTESIAN_POINT('',(0.,0.,22.5));
#1454 = DIRECTION('',(0.,0.,1.));
#1455 = DIRECTION('',(1.,0.,0.));
#1456 = ORIENTED_EDGE('',*,*,#1442,.F.);
#1457 = CONICAL_SURFACE('',#1458,54.331482586066,0.359672533825);
#1458 = AXIS2_PLACEMENT_3D('',#1459,#1460,#1461);
#1459 = CARTESIAN_POINT('',(0.,0.,21.));
#1460 = DIRECTION('',(-0.,-0.,-1.));
#1461 = DIRECTION('',(1.,0.,0.));
#1462 = ADVANCED_FACE('',(#1463),#1482,.T.);
#1463 = FACE_BOUND('',#1464,.T.);
#1464 = EDGE_LOOP('',(#1465,#1466,#1474,#1481));
#1465 = ORIENTED_EDGE('',*,*,#1450,.T.);
#1466 = ORIENTED_EDGE('',*,*,#1467,.T.);
#1467 = EDGE_CURVE('',#1443,#1468,#1470,.T.);
#1468 = VERTEX_POINT('',#1469);
#1469 = CARTESIAN_POINT('',(53.157878061488,0.,24.));
#1470 = LINE('',#1471,#1472);
#1471 = CARTESIAN_POINT('',(53.767439031444,0.,22.5));
#1472 = VECTOR('',#1473,1.);
#1473 = DIRECTION('',(-0.376475632363,0.,0.92642652069));
#1474 = ORIENTED_EDGE('',*,*,#1475,.F.);
#1475 = EDGE_CURVE('',#1468,#1468,#1476,.T.);
#1476 = CIRCLE('',#1477,53.157878061488);
#1477 = AXIS2_PLACEMENT_3D('',#1478,#1479,#1480);
#1478 = CARTESIAN_POINT('',(0.,0.,24.));
#1479 = DIRECTION('',(0.,0.,1.));
#1480 = DIRECTION('',(1.,0.,0.));
#1481 = ORIENTED_EDGE('',*,*,#1467,.F.);
#1482 = CONICAL_SURFACE('',#1483,53.767439031444,0.385989081805);
#1483 = AXIS2_PLACEMENT_3D('',#1484,#1485,#1486);
#1484 = CARTESIAN_POINT('',(0.,0.,22.5));
#1485 = DIRECTION('',(-0.,-0.,-1.));
#1486 = DIRECTION('',(1.,0.,0.));
#1487 = ADVANCED_FACE('',(#1488),#1507,.T.);
#1488 = FACE_BOUND('',#1489,.T.);
#1489 = EDGE_LOOP('',(#1490,#1491,#1499,#1506));
#1490 = ORIENTED_EDGE('',*,*,#1475,.T.);
#1491 = ORIENTED_EDGE('',*,*,#1492,.T.);
#1492 = EDGE_CURVE('',#1468,#1493,#1495,.T.);
#1493 = VERTEX_POINT('',#1494);
#1494 = CARTESIAN_POINT('',(52.501214271672,0.,25.5));
#1495 = LINE('',#1496,#1497);
#1496 = CARTESIAN_POINT('',(53.157878061488,0.,24.));
#1497 = VECTOR('',#1498,1.);
#1498 = DIRECTION('',(-0.401030930142,0.,0.916064513596));
#1499 = ORIENTED_EDGE('',*,*,#1500,.F.);
#1500 = EDGE_CURVE('',#1493,#1493,#1501,.T.);
#1501 = CIRCLE('',#1502,52.501214271672);
#1502 = AXIS2_PLACEMENT_3D('',#1503,#1504,#1505);
#1503 = CARTESIAN_POINT('',(0.,0.,25.5));
#1504 = DIRECTION('',(0.,0.,1.));
#1505 = DIRECTION('',(1.,0.,0.));
#1506 = ORIENTED_EDGE('',*,*,#1492,.F.);
#1507 = CONICAL_SURFACE('',#1508,53.157878061488,0.412641959546);
#1508 = AXIS2_PLACEMENT_3D('',#1509,#1510,#1511);
#1509 = CARTESIAN_POINT('',(0.,0.,24.));
#1510 = DIRECTION('',(-0.,-0.,-1.));
#1511 = DIRECTION('',(1.,0.,0.));
#1512 = ADVANCED_FACE('',(#1513),#1532,.T.);
#1513 = FACE_BOUND('',#1514,.T.);
#1514 = EDGE_LOOP('',(#1515,#1516,#1524,#1531));
#1515 = ORIENTED_EDGE('',*,*,#1500,.T.);
#1516 = ORIENTED_EDGE('',*,*,#1517,.T.);
#1517 = EDGE_CURVE('',#1493,#1518,#1520,.T.);
#1518 = VERTEX_POINT('',#1519);
#1519 = CARTESIAN_POINT('',(51.795656188526,0.,27.));
#1520 = LINE('',#1521,#1522);
#1521 = CARTESIAN_POINT('',(52.501214271672,0.,25.5));
#1522 = VECTOR('',#1523,1.);
#1523 = DIRECTION('',(-0.425636876279,0.,0.904894054324));
#1524 = ORIENTED_EDGE('',*,*,#1525,.F.);
#1525 = EDGE_CURVE('',#1518,#1518,#1526,.T.);
#1526 = CIRCLE('',#1527,51.795656188526);
#1527 = AXIS2_PLACEMENT_3D('',#1528,#1529,#1530);
#1528 = CARTESIAN_POINT('',(0.,0.,27.));
#1529 = DIRECTION('',(0.,0.,1.));
#1530 = DIRECTION('',(1.,0.,0.));
#1531 = ORIENTED_EDGE('',*,*,#1517,.F.);
#1532 = CONICAL_SURFACE('',#1533,52.501214271672,0.439665582295);
#1533 = AXIS2_PLACEMENT_3D('',#1534,#1535,#1536);
#1534 = CARTESIAN_POINT('',(0.,0.,25.5));
#1535 = DIRECTION('',(-0.,-0.,-1.));
#1536 = DIRECTION('',(1.,0.,0.));
#1537 = ADVANCED_FACE('',(#1538),#1557,.T.);
#1538 = FACE_BOUND('',#1539,.T.);
#1539 = EDGE_LOOP('',(#1540,#1541,#1549,#1556));
#1540 = ORIENTED_EDGE('',*,*,#1525,.T.);
#1541 = ORIENTED_EDGE('',*,*,#1542,.T.);
#1542 = EDGE_CURVE('',#1518,#1543,#1545,.T.);
#1543 = VERTEX_POINT('',#1544);
#1544 = CARTESIAN_POINT('',(51.039176129714,0.,28.5));
#1545 = LINE('',#1546,#1547);
#1546 = CARTESIAN_POINT('',(51.795656188526,0.,27.));
#1547 = VECTOR('',#1548,1.);
#1548 = DIRECTION('',(-0.450296751625,0.,0.892878959029));
#1549 = ORIENTED_EDGE('',*,*,#1550,.F.);
#1550 = EDGE_CURVE('',#1543,#1543,#1551,.T.);
#1551 = CIRCLE('',#1552,51.039176129714);
#1552 = AXIS2_PLACEMENT_3D('',#1553,#1554,#1555);
#1553 = CARTESIAN_POINT('',(0.,0.,28.5));
#1554 = DIRECTION('',(0.,0.,1.));
#1555 = DIRECTION('',(1.,0.,0.));
#1556 = ORIENTED_EDGE('',*,*,#1542,.F.);
#1557 = CONICAL_SURFACE('',#1558,51.795656188526,0.467097664904);
#1558 = AXIS2_PLACEMENT_3D('',#1559,#1560,#1561);
#1559 = CARTESIAN_POINT('',(0.,0.,27.));
#1560 = DIRECTION('',(-0.,-0.,-1.));
#1561 = DIRECTION('',(1.,0.,0.));
#1562 = ADVANCED_FACE('',(#1563),#1582,.T.);
#1563 = FACE_BOUND('',#1564,.T.);
#1564 = EDGE_LOOP('',(#1565,#1566,#1574,#1581));
#1565 = ORIENTED_EDGE('',*,*,#1550,.T.);
#1566 = ORIENTED_EDGE('',*,*,#1567,.T.);
#1567 = EDGE_CURVE('',#1543,#1568,#1570,.T.);
#1568 = VERTEX_POINT('',#1569);
#1569 = CARTESIAN_POINT('',(50.229473419497,0.,30.));
#1570 = LINE('',#1571,#1572);
#1571 = CARTESIAN_POINT('',(51.039176129714,0.,28.5));
#1572 = VECTOR('',#1573,1.);
#1573 = DIRECTION('',(-0.475013878398,0.,0.879978303897));
#1574 = ORIENTED_EDGE('',*,*,#1575,.F.);
#1575 = EDGE_CURVE('',#1568,#1568,#1576,.T.);
#1576 = CIRCLE('',#1577,50.229473419497);
#1577 = AXIS2_PLACEMENT_3D('',#1578,#1579,#1580);
#1578 = CARTESIAN_POINT('',(0.,0.,30.));
#1579 = DIRECTION('',(0.,0.,1.));
#1580 = DIRECTION('',(1.,0.,0.));
#1581 = ORIENTED_EDGE('',*,*,#1567,.F.);
#1582 = CONICAL_SURFACE('',#1583,51.039176129714,0.494979802946);
#1583 = AXIS2_PLACEMENT_3D('',#1584,#1585,#1586);
#1584 = CARTESIAN_POINT('',(0.,0.,28.5));
#1585 = DIRECTION('',(-0.,-0.,-1.));
#1586 = DIRECTION('',(1.,0.,0.));
#1587 = ADVANCED_FACE('',(#1588),#1607,.T.);
#1588 = FACE_BOUND('',#1589,.T.);
#1589 = EDGE_LOOP('',(#1590,#1591,#1599,#1606));
#1590 = ORIENTED_EDGE('',*,*,#1575,.T.);
#1591 = ORIENTED_EDGE('',*,*,#1592,.T.);
#1592 = EDGE_CURVE('',#1568,#1593,#1595,.T.);
#1593 = VERTEX_POINT('',#1594);
#1594 = CARTESIAN_POINT('',(49.363929138593,0.,31.5));
#1595 = LINE('',#1596,#1597);
#1596 = CARTESIAN_POINT('',(50.229473419497,0.,30.));
#1597 = VECTOR('',#1598,1.);
#1598 = DIRECTION('',(-0.499791624278,0.,0.866145676143));
#1599 = ORIENTED_EDGE('',*,*,#1600,.F.);
#1600 = EDGE_CURVE('',#1593,#1593,#1601,.T.);
#1601 = CIRCLE('',#1602,49.363929138593);
#1602 = AXIS2_PLACEMENT_3D('',#1603,#1604,#1605);
#1603 = CARTESIAN_POINT('',(0.,0.,31.5));
#1604 = DIRECTION('',(0.,0.,1.));
#1605 = DIRECTION('',(1.,0.,0.));
#1606 = ORIENTED_EDGE('',*,*,#1592,.F.);
#1607 = CONICAL_SURFACE('',#1608,50.229473419497,0.523358180747);
#1608 = AXIS2_PLACEMENT_3D('',#1609,#1610,#1611);
#1609 = CARTESIAN_POINT('',(0.,0.,30.));
#1610 = DIRECTION('',(-0.,-0.,-1.));
#1611 = DIRECTION('',(1.,0.,0.));
#1612 = ADVANCED_FACE('',(#1613),#1632,.T.);
#1613 = FACE_BOUND('',#1614,.T.);
#1614 = EDGE_LOOP('',(#1615,#1616,#1624,#1631));
#1615 = ORIENTED_EDGE('',*,*,#1600,.T.);
#1616 = ORIENTED_EDGE('',*,*,#1617,.T.);
#1617 = EDGE_CURVE('',#1593,#1618,#1620,.T.);
#1618 = VERTEX_POINT('',#1619);
#1619 = CARTESIAN_POINT('',(48.439549956621,0.,33.));
#1620 = LINE('',#1621,#1622);
#1621 = CARTESIAN_POINT('',(49.363929138593,0.,31.5));
#1622 = VECTOR('',#1623,1.);
#1623 = DIRECTION('',(-0.524633407139,0.,0.851328249334));
#1624 = ORIENTED_EDGE('',*,*,#1625,.F.);
#1625 = EDGE_CURVE('',#1618,#1618,#1626,.T.);
#1626 = CIRCLE('',#1627,48.439549956621);
#1627 = AXIS2_PLACEMENT_3D('',#1628,#1629,#1630);
#1628 = CARTESIAN_POINT('',(0.,0.,33.));
#1629 = DIRECTION('',(0.,0.,1.));
#1630 = DIRECTION('',(1.,0.,0.));
#1631 = ORIENTED_EDGE('',*,*,#1617,.F.);
#1632 = CONICAL_SURFACE('',#1633,49.363929138593,0.55228444311);
#1633 = AXIS2_PLACEMENT_3D('',#1634,#1635,#1636);
#1634 = CARTESIAN_POINT('',(0.,0.,31.5));
#1635 = DIRECTION('',(-0.,-0.,-1.));
#1636 = DIRECTION('',(1.,0.,0.));
#1637 = ADVANCED_FACE('',(#1638),#1657,.T.);
#1638 = FACE_BOUND('',#1639,.T.);
#1639 = EDGE_LOOP('',(#1640,#1641,#1649,#1656));
#1640 = ORIENTED_EDGE('',*,*,#1625,.T.);
#1641 = ORIENTED_EDGE('',*,*,#1642,.T.);
#1642 = EDGE_CURVE('',#1618,#1643,#1645,.T.);
#1643 = VERTEX_POINT('',#1644);
#1644 = CARTESIAN_POINT('',(47.452897698665,0.,34.5));
#1645 = LINE('',#1646,#1647);
#1646 = CARTESIAN_POINT('',(48.439549956621,0.,33.));
#1647 = VECTOR('',#1648,1.);
#1648 = DIRECTION('',(-0.549542700672,0.,0.835465630734));
#1649 = ORIENTED_EDGE('',*,*,#1650,.F.);
#1650 = EDGE_CURVE('',#1643,#1643,#1651,.T.);
#1651 = CIRCLE('',#1652,47.452897698665);
#1652 = AXIS2_PLACEMENT_3D('',#1653,#1654,#1655);
#1653 = CARTESIAN_POINT('',(0.,0.,34.5));
#1654 = DIRECTION('',(0.,0.,1.));
#1655 = DIRECTION('',(1.,0.,0.));
#1656 = ORIENTED_EDGE('',*,*,#1642,.F.);
#1657 = CONICAL_SURFACE('',#1658,48.439549956621,0.581816780636);
#1658 = AXIS2_PLACEMENT_3D('',#1659,#1660,#1661);
#1659 = CARTESIAN_POINT('',(0.,0.,33.));
#1660 = DIRECTION('',(-0.,-0.,-1.));
#1661 = DIRECTION('',(1.,0.,0.));
#1662 = ADVANCED_FACE('',(#1663),#1682,.T.);
#1663 = FACE_BOUND('',#1664,.T.);
#1664 = EDGE_LOOP('',(#1665,#1666,#1674,#1681));
#1665 = ORIENTED_EDGE('',*,*,#1650,.T.);
#1666 = ORIENTED_EDGE('',*,*,#1667,.T.);
#1667 = EDGE_CURVE('',#1643,#1668,#1670,.T.);
#1668 = VERTEX_POINT('',#1669);
#1669 = CARTESIAN_POINT('',(46.4,0.,36.));
#1670 = LINE('',#1671,#1672);
#1671 = CARTESIAN_POINT('',(47.452897698665,0.,34.5));
#1672 = VECTOR('',#1673,1.);
#1673 = DIRECTION('',(-0.574523041233,0.,0.818488408648));
#1674 = ORIENTED_EDGE('',*,*,#1675,.F.);
#1675 = EDGE_CURVE('',#1668,#1668,#1676,.T.);
#1676 = CIRCLE('',#1677,46.4);
#1677 = AXIS2_PLACEMENT_3D('',#1678,#1679,#1680);
#1678 = CARTESIAN_POINT('',(0.,0.,36.));
#1679 = DIRECTION('',(0.,0.,1.));
#1680 = DIRECTION('',(1.,0.,0.));
#1681 = ORIENTED_EDGE('',*,*,#1667,.F.);
#1682 = CONICAL_SURFACE('',#1683,47.452897698665,0.612021297546);
#1683 = AXIS2_PLACEMENT_3D('',#1684,#1685,#1686);
#1684 = CARTESIAN_POINT('',(0.,0.,34.5));
#1685 = DIRECTION('',(-0.,-0.,-1.));
#1686 = DIRECTION('',(1.,0.,0.));
#1687 = ADVANCED_FACE('',(#1688),#1707,.T.);
#1688 = FACE_BOUND('',#1689,.T.);
#1689 = EDGE_LOOP('',(#1690,#1691,#1699,#1706));
#1690 = ORIENTED_EDGE('',*,*,#1675,.T.);
#1691 = ORIENTED_EDGE('',*,*,#1692,.T.);
#1692 = EDGE_CURVE('',#1668,#1693,#1695,.T.);
#1693 = VERTEX_POINT('',#1694);
#1694 = CARTESIAN_POINT('',(45.276235488388,0.,37.5));
#1695 = LINE('',#1696,#1697);
#1696 = CARTESIAN_POINT('',(46.4,0.,36.));
#1697 = VECTOR('',#1698,1.);
#1698 = DIRECTION('',(-0.599578036466,0.,0.800316298839));
#1699 = ORIENTED_EDGE('',*,*,#1700,.F.);
#1700 = EDGE_CURVE('',#1693,#1693,#1701,.T.);
#1701 = CIRCLE('',#1702,45.276235488388);
#1702 = AXIS2_PLACEMENT_3D('',#1703,#1704,#1705);
#1703 = CARTESIAN_POINT('',(0.,0.,37.5));
#1704 = DIRECTION('',(0.,0.,1.));
#1705 = DIRECTION('',(1.,0.,0.));
#1706 = ORIENTED_EDGE('',*,*,#1692,.F.);
#1707 = CONICAL_SURFACE('',#1708,46.4,0.642973758639);
#1708 = AXIS2_PLACEMENT_3D('',#1709,#1710,#1711);
#1709 = CARTESIAN_POINT('',(0.,0.,36.));
#1710 = DIRECTION('',(-0.,-0.,-1.));
#1711 = DIRECTION('',(1.,0.,0.));
#1712 = ADVANCED_FACE('',(#1713),#1732,.T.);
#1713 = FACE_BOUND('',#1714,.T.);
#1714 = EDGE_LOOP('',(#1715,#1716,#1724,#1731));
#1715 = ORIENTED_EDGE('',*,*,#1700,.T.);
#1716 = ORIENTED_EDGE('',*,*,#1717,.T.);
#1717 = EDGE_CURVE('',#1693,#1718,#1720,.T.);
#1718 = VERTEX_POINT('',#1719);
#1719 = CARTESIAN_POINT('',(44.076184045355,0.,39.));
#1720 = LINE('',#1721,#1722);
#1721 = CARTESIAN_POINT('',(45.276235488388,0.,37.5));
#1722 = VECTOR('',#1723,1.);
#1723 = DIRECTION('',(-0.624711376519,0.,0.780855745992));
#1724 = ORIENTED_EDGE('',*,*,#1725,.F.);
#1725 = EDGE_CURVE('',#1718,#1718,#1726,.T.);
#1726 = CIRCLE('',#1727,44.076184045355);
#1727 = AXIS2_PLACEMENT_3D('',#1728,#1729,#1730);
#1728 = CARTESIAN_POINT('',(0.,0.,39.));
#1729 = DIRECTION('',(0.,0.,1.));
#1730 = DIRECTION('',(1.,0.,0.));
#1731 = ORIENTED_EDGE('',*,*,#1717,.F.);
#1732 = CONICAL_SURFACE('',#1733,45.276235488388,0.674761853676);
#1733 = AXIS2_PLACEMENT_3D('',#1734,#1735,#1736);
#1734 = CARTESIAN_POINT('',(0.,0.,37.5));
#1735 = DIRECTION('',(-0.,-0.,-1.));
#1736 = DIRECTION('',(1.,0.,0.));
#1737 = ADVANCED_FACE('',(#1738),#1757,.T.);
#1738 = FACE_BOUND('',#1739,.T.);
#1739 = EDGE_LOOP('',(#1740,#1741,#1749,#1756));
#1740 = ORIENTED_EDGE('',*,*,#1725,.T.);
#1741 = ORIENTED_EDGE('',*,*,#1742,.T.);
#1742 = EDGE_CURVE('',#1718,#1743,#1745,.T.);
#1743 = VERTEX_POINT('',#1744);
#1744 = CARTESIAN_POINT('',(42.793428233784,0.,40.5));
#1745 = LINE('',#1746,#1747);
#1746 = CARTESIAN_POINT('',(44.076184045355,0.,39.));
#1747 = VECTOR('',#1748,1.);
#1748 = DIRECTION('',(-0.649926849172,0.,0.759996770207));
#1749 = ORIENTED_EDGE('',*,*,#1750,.F.);
#1750 = EDGE_CURVE('',#1743,#1743,#1751,.T.);
#1751 = CIRCLE('',#1752,42.793428233784);
#1752 = AXIS2_PLACEMENT_3D('',#1753,#1754,#1755);
#1753 = CARTESIAN_POINT('',(0.,0.,40.5));
#1754 = DIRECTION('',(0.,0.,1.));
#1755 = DIRECTION('',(1.,0.,0.));
#1756 = ORIENTED_EDGE('',*,*,#1742,.F.);
#1757 = CONICAL_SURFACE('',#1758,44.076184045355,0.707488181265);
#1758 = AXIS2_PLACEMENT_3D('',#1759,#1760,#1761);
#1759 = CARTESIAN_POINT('',(0.,0.,39.));
#1760 = DIRECTION('',(-0.,-0.,-1.));
#1761 = DIRECTION('',(1.,0.,0.));
#1762 = ADVANCED_FACE('',(#1763),#1782,.T.);
#1763 = FACE_BOUND('',#1764,.T.);
#1764 = EDGE_LOOP('',(#1765,#1766,#1774,#1781));
#1765 = ORIENTED_EDGE('',*,*,#1750,.T.);
#1766 = ORIENTED_EDGE('',*,*,#1767,.T.);
#1767 = EDGE_CURVE('',#1743,#1768,#1770,.T.);
#1768 = VERTEX_POINT('',#1769);
#1769 = CARTESIAN_POINT('',(41.420284885549,0.,42.));
#1770 = LINE('',#1771,#1772);
#1771 = CARTESIAN_POINT('',(42.793428233784,0.,40.5));
#1772 = VECTOR('',#1773,1.);
#1773 = DIRECTION('',(-0.67522836104,0.,0.737608744828));
#1774 = ORIENTED_EDGE('',*,*,#1775,.F.);
#1775 = EDGE_CURVE('',#1768,#1768,#1776,.T.);
#1776 = CIRCLE('',#1777,41.420284885549);
#1777 = AXIS2_PLACEMENT_3D('',#1778,#1779,#1780);
#1778 = CARTESIAN_POINT('',(0.,0.,42.));
#1779 = DIRECTION('',(0.,0.,1.));
#1780 = DIRECTION('',(1.,0.,0.));
#1781 = ORIENTED_EDGE('',*,*,#1767,.F.);
#1782 = CONICAL_SURFACE('',#1783,42.793428233784,0.741274254787);
#1783 = AXIS2_PLACEMENT_3D('',#1784,#1785,#1786);
#1784 = CARTESIAN_POINT('',(0.,0.,40.5));
#1785 = DIRECTION('',(-0.,-0.,-1.));
#1786 = DIRECTION('',(1.,0.,0.));
#1787 = ADVANCED_FACE('',(#1788),#1807,.T.);
#1788 = FACE_BOUND('',#1789,.T.);
#1789 = EDGE_LOOP('',(#1790,#1791,#1799,#1806));
#1790 = ORIENTED_EDGE('',*,*,#1775,.T.);
#1791 = ORIENTED_EDGE('',*,*,#1792,.T.);
#1792 = EDGE_CURVE('',#1768,#1793,#1795,.T.);
#1793 = VERTEX_POINT('',#1794);
#1794 = CARTESIAN_POINT('',(39.947434210472,0.,43.5));
#1795 = LINE('',#1796,#1797);
#1796 = CARTESIAN_POINT('',(41.420284885549,0.,42.));
#1797 = VECTOR('',#1798,1.);
#1798 = DIRECTION('',(-0.700619968498,0.,0.713534624067));
#1799 = ORIENTED_EDGE('',*,*,#1800,.F.);
#1800 = EDGE_CURVE('',#1793,#1793,#1801,.T.);
#1801 = CIRCLE('',#1802,39.947434210472);
#1802 = AXIS2_PLACEMENT_3D('',#1803,#1804,#1805);
#1803 = CARTESIAN_POINT('',(0.,0.,43.5));
#1804 = DIRECTION('',(0.,0.,1.));
#1805 = DIRECTION('',(1.,0.,0.));
#1806 = ORIENTED_EDGE('',*,*,#1792,.F.);
#1807 = CONICAL_SURFACE('',#1808,41.420284885549,0.776265995937);
#1808 = AXIS2_PLACEMENT_3D('',#1809,#1810,#1811);
#1809 = CARTESIAN_POINT('',(0.,0.,42.));
#1810 = DIRECTION('',(-0.,-0.,-1.));
#1811 = DIRECTION('',(1.,0.,0.));
#1812 = ADVANCED_FACE('',(#1813),#1832,.T.);
#1813 = FACE_BOUND('',#1814,.T.);
#1814 = EDGE_LOOP('',(#1815,#1816,#1824,#1831));
#1815 = ORIENTED_EDGE('',*,*,#1800,.T.);
#1816 = ORIENTED_EDGE('',*,*,#1817,.T.);
#1817 = EDGE_CURVE('',#1793,#1818,#1820,.T.);
#1818 = VERTEX_POINT('',#1819);
#1819 = CARTESIAN_POINT('',(38.363394010437,0.,45.));
#1820 = LINE('',#1821,#1822);
#1821 = CARTESIAN_POINT('',(39.947434210472,0.,43.5));
#1822 = VECTOR('',#1823,1.);
#1823 = DIRECTION('',(-0.726105924795,0.,0.687582857536));
#1824 = ORIENTED_EDGE('',*,*,#1825,.F.);
#1825 = EDGE_CURVE('',#1818,#1818,#1826,.T.);
#1826 = CIRCLE('',#1827,38.363394010437);
#1827 = AXIS2_PLACEMENT_3D('',#1828,#1829,#1830);
#1828 = CARTESIAN_POINT('',(0.,0.,45.));
#1829 = DIRECTION('',(0.,0.,1.));
#1830 = DIRECTION('',(1.,0.,0.));
#1831 = ORIENTED_EDGE('',*,*,#1817,.F.);
#1832 = CONICAL_SURFACE('',#1833,39.947434210472,0.812641455345);
#1833 = AXIS2_PLACEMENT_3D('',#1834,#1835,#1836);
#1834 = CARTESIAN_POINT('',(0.,0.,43.5));
#1835 = DIRECTION('',(-0.,-0.,-1.));
#1836 = DIRECTION('',(1.,0.,0.));
#1837 = ADVANCED_FACE('',(#1838),#1857,.T.);
#1838 = FACE_BOUND('',#1839,.T.);
#1839 = EDGE_LOOP('',(#1840,#1841,#1849,#1856));
#1840 = ORIENTED_EDGE('',*,*,#1825,.T.);
#1841 = ORIENTED_EDGE('',*,*,#1842,.T.);
#1842 = EDGE_CURVE('',#1818,#1843,#1845,.T.);
#1843 = VERTEX_POINT('',#1844);
#1844 = CARTESIAN_POINT('',(36.653751513317,0.,46.5));
#1845 = LINE('',#1846,#1847);
#1846 = CARTESIAN_POINT('',(38.363394010437,0.,45.));
#1847 = VECTOR('',#1848,1.);
#1848 = DIRECTION('',(-0.751690755271,0.,0.659515737826));
#1849 = ORIENTED_EDGE('',*,*,#1850,.F.);
#1850 = EDGE_CURVE('',#1843,#1843,#1851,.T.);
#1851 = CIRCLE('',#1852,36.653751513317);
#1852 = AXIS2_PLACEMENT_3D('',#1853,#1854,#1855);
#1853 = CARTESIAN_POINT('',(0.,0.,46.5));
#1854 = DIRECTION('',(0.,0.,1.));
#1855 = DIRECTION('',(1.,0.,0.));
#1856 = ORIENTED_EDGE('',*,*,#1842,.F.);
#1857 = CONICAL_SURFACE('',#1858,38.363394010437,0.850621978726);
#1858 = AXIS2_PLACEMENT_3D('',#1859,#1860,#1861);
#1859 = CARTESIAN_POINT('',(0.,0.,45.));
#1860 = DIRECTION('',(-0.,-0.,-1.));
#1861 = DIRECTION('',(1.,0.,0.));
#1862 = ADVANCED_FACE('',(#1863),#1882,.T.);
#1863 = FACE_BOUND('',#1864,.T.);
#1864 = EDGE_LOOP('',(#1865,#1866,#1874,#1881));
#1865 = ORIENTED_EDGE('',*,*,#1850,.T.);
#1866 = ORIENTED_EDGE('',*,*,#1867,.T.);
#1867 = EDGE_CURVE('',#1843,#1868,#1870,.T.);
#1868 = VERTEX_POINT('',#1869);
#1869 = CARTESIAN_POINT('',(34.8,0.,48.));
#1870 = LINE('',#1871,#1872);
#1871 = CARTESIAN_POINT('',(36.653751513317,0.,46.5));
#1872 = VECTOR('',#1873,1.);
#1873 = DIRECTION('',(-0.777379383848,0.,0.629032029048));
#1874 = ORIENTED_EDGE('',*,*,#1875,.F.);
#1875 = EDGE_CURVE('',#1868,#1868,#1876,.T.);
#1876 = CIRCLE('',#1877,34.8);
#1877 = AXIS2_PLACEMENT_3D('',#1878,#1879,#1880);
#1878 = CARTESIAN_POINT('',(0.,0.,48.));
#1879 = DIRECTION('',(0.,0.,1.));
#1880 = DIRECTION('',(1.,0.,0.));
#1881 = ORIENTED_EDGE('',*,*,#1867,.F.);
#1882 = CONICAL_SURFACE('',#1883,36.653751513317,0.890488915361);
#1883 = AXIS2_PLACEMENT_3D('',#1884,#1885,#1886);
#1884 = CARTESIAN_POINT('',(0.,0.,46.5));
#1885 = DIRECTION('',(-0.,-0.,-1.));
#1886 = DIRECTION('',(1.,0.,0.));
#1887 = ADVANCED_FACE('',(#1888),#1907,.T.);
#1888 = FACE_BOUND('',#1889,.T.);
#1889 = EDGE_LOOP('',(#1890,#1891,#1899,#1906));
#1890 = ORIENTED_EDGE('',*,*,#1875,.T.);
#1891 = ORIENTED_EDGE('',*,*,#1892,.T.);
#1892 = EDGE_CURVE('',#1868,#1893,#1895,.T.);
#1893 = VERTEX_POINT('',#1894);
#1894 = CARTESIAN_POINT('',(32.777698210826,0.,49.5));
#1895 = LINE('',#1896,#1897);
#1896 = CARTESIAN_POINT('',(34.8,0.,48.));
#1897 = VECTOR('',#1898,1.);
#1898 = DIRECTION('',(-0.80317735888,0.,0.595739985382));
#1899 = ORIENTED_EDGE('',*,*,#1900,.F.);
#1900 = EDGE_CURVE('',#1893,#1893,#1901,.T.);
#1901 = CIRCLE('',#1902,32.777698210826);
#1902 = AXIS2_PLACEMENT_3D('',#1903,#1904,#1905);
#1903 = CARTESIAN_POINT('',(0.,0.,49.5));
#1904 = DIRECTION('',(0.,0.,1.));
#1905 = DIRECTION('',(1.,0.,0.));
#1906 = ORIENTED_EDGE('',*,*,#1892,.F.);
#1907 = CONICAL_SURFACE('',#1908,34.8,0.93260967004);
#1908 = AXIS2_PLACEMENT_3D('',#1909,#1910,#1911);
#1909 = CARTESIAN_POINT('',(0.,0.,48.));
#1910 = DIRECTION('',(-0.,-0.,-1.));
#1911 = DIRECTION('',(1.,0.,0.));
#1912 = ADVANCED_FACE('',(#1913),#1932,.T.);
#1913 = FACE_BOUND('',#1914,.T.);
#1914 = EDGE_LOOP('',(#1915,#1916,#1924,#1931));
#1915 = ORIENTED_EDGE('',*,*,#1900,.T.);
#1916 = ORIENTED_EDGE('',*,*,#1917,.T.);
#1917 = EDGE_CURVE('',#1893,#1918,#1920,.T.);
#1918 = VERTEX_POINT('',#1919);
#1919 = CARTESIAN_POINT('',(30.553395883273,0.,51.));
#1920 = LINE('',#1921,#1922);
#1921 = CARTESIAN_POINT('',(32.777698210826,0.,49.5));
#1922 = VECTOR('',#1923,1.);
#1923 = DIRECTION('',(-0.829091286105,0.,0.559113261607));
#1924 = ORIENTED_EDGE('',*,*,#1925,.F.);
#1925 = EDGE_CURVE('',#1918,#1918,#1926,.T.);
#1926 = CIRCLE('',#1927,30.553395883273);
#1927 = AXIS2_PLACEMENT_3D('',#1928,#1929,#1930);
#1928 = CARTESIAN_POINT('',(0.,0.,51.));
#1929 = DIRECTION('',(0.,0.,1.));
#1930 = DIRECTION('',(1.,0.,0.));
#1931 = ORIENTED_EDGE('',*,*,#1917,.F.);
#1932 = CONICAL_SURFACE('',#1933,32.777698210826,0.977480443451);
#1933 = AXIS2_PLACEMENT_3D('',#1934,#1935,#1936);
#1934 = CARTESIAN_POINT('',(0.,0.,49.5));
#1935 = DIRECTION('',(-0.,-0.,-1.));
#1936 = DIRECTION('',(1.,0.,0.));
#1937 = ADVANCED_FACE('',(#1938),#1957,.T.);
#1938 = FACE_BOUND('',#1939,.T.);
#1939 = EDGE_LOOP('',(#1940,#1941,#1949,#1956));
#1940 = ORIENTED_EDGE('',*,*,#1925,.T.);
#1941 = ORIENTED_EDGE('',*,*,#1942,.T.);
#1942 = EDGE_CURVE('',#1918,#1943,#1945,.T.);
#1943 = VERTEX_POINT('',#1944);
#1944 = CARTESIAN_POINT('',(28.079129260004,0.,52.5));
#1945 = LINE('',#1946,#1947);
#1946 = CARTESIAN_POINT('',(30.553395883273,0.,51.));
#1947 = VECTOR('',#1948,1.);
#1948 = DIRECTION('',(-0.855129735022,0.,0.518414058723));
#1949 = ORIENTED_EDGE('',*,*,#1950,.F.);
#1950 = EDGE_CURVE('',#1943,#1943,#1951,.T.);
#1951 = CIRCLE('',#1952,28.079129260004);
#1952 = AXIS2_PLACEMENT_3D('',#1953,#1954,#1955);
#1953 = CARTESIAN_POINT('',(0.,0.,52.5));
#1954 = DIRECTION('',(0.,0.,1.));
#1955 = DIRECTION('',(1.,0.,0.));
#1956 = ORIENTED_EDGE('',*,*,#1942,.F.);
#1957 = CONICAL_SURFACE('',#1958,30.553395883273,1.02580104162);
#1958 = AXIS2_PLACEMENT_3D('',#1959,#1960,#1961);
#1959 = CARTESIAN_POINT('',(0.,0.,51.));
#1960 = DIRECTION('',(-0.,-0.,-1.));
#1961 = DIRECTION('',(1.,0.,0.));
#1962 = ADVANCED_FACE('',(#1963),#1982,.T.);
#1963 = FACE_BOUND('',#1964,.T.);
#1964 = EDGE_LOOP('',(#1965,#1966,#1974,#1981));
#1965 = ORIENTED_EDGE('',*,*,#1950,.T.);
#1966 = ORIENTED_EDGE('',*,*,#1967,.T.);
#1967 = EDGE_CURVE('',#1943,#1968,#1970,.T.);
#1968 = VERTEX_POINT('',#1969);
#1969 = CARTESIAN_POINT('',(25.281613872536,0.,54.));
#1970 = LINE('',#1971,#1972);
#1971 = CARTESIAN_POINT('',(28.079129260004,0.,52.5));
#1972 = VECTOR('',#1973,1.);
#1973 = DIRECTION('',(-0.881305366205,0.,0.472547194996));
#1974 = ORIENTED_EDGE('',*,*,#1975,.F.);
#1975 = EDGE_CURVE('',#1968,#1968,#1976,.T.);
#1976 = CIRCLE('',#1977,25.281613872536);
#1977 = AXIS2_PLACEMENT_3D('',#1978,#1979,#1980);
#1978 = CARTESIAN_POINT('',(0.,0.,54.));
#1979 = DIRECTION('',(0.,0.,1.));
#1980 = DIRECTION('',(1.,0.,0.));
#1981 = ORIENTED_EDGE('',*,*,#1967,.F.);
#1982 = CONICAL_SURFACE('',#1983,28.079129260004,1.078617528402);
#1983 = AXIS2_PLACEMENT_3D('',#1984,#1985,#1986);
#1984 = CARTESIAN_POINT('',(0.,0.,52.5));
#1985 = DIRECTION('',(-0.,-0.,-1.));
#1986 = DIRECTION('',(1.,0.,0.));
#1987 = ADVANCED_FACE('',(#1988),#2007,.T.);
#1988 = FACE_BOUND('',#1989,.T.);
#1989 = EDGE_LOOP('',(#1990,#1991,#1999,#2006));
#1990 = ORIENTED_EDGE('',*,*,#1975,.T.);
#1991 = ORIENTED_EDGE('',*,*,#1992,.T.);
#1992 = EDGE_CURVE('',#1968,#1993,#1995,.T.);
#1993 = VERTEX_POINT('',#1994);
#1994 = CARTESIAN_POINT('',(22.038092022677,0.,55.5));
#1995 = LINE('',#1996,#1997);
#1996 = CARTESIAN_POINT('',(25.281613872536,0.,54.));
#1997 = VECTOR('',#1998,1.);
#1998 = DIRECTION('',(-0.907640778401,0.,0.419747802119));
#1999 = ORIENTED_EDGE('',*,*,#2000,.F.);
#2000 = EDGE_CURVE('',#1993,#1993,#2001,.T.);
#2001 = CIRCLE('',#2002,22.038092022677);
#2002 = AXIS2_PLACEMENT_3D('',#2003,#2004,#2005);
#2003 = CARTESIAN_POINT('',(0.,0.,55.5));
#2004 = DIRECTION('',(0.,0.,1.));
#2005 = DIRECTION('',(1.,0.,0.));
#2006 = ORIENTED_EDGE('',*,*,#1992,.F.);
#2007 = CONICAL_SURFACE('',#2008,25.281613872536,1.137628885481);
#2008 = AXIS2_PLACEMENT_3D('',#2009,#2010,#2011);
#2009 = CARTESIAN_POINT('',(0.,0.,54.));
#2010 = DIRECTION('',(-0.,-0.,-1.));
#2011 = DIRECTION('',(1.,0.,0.));
#2012 = ADVANCED_FACE('',(#2013),#2032,.T.);
#2013 = FACE_BOUND('',#2014,.T.);
#2014 = EDGE_LOOP('',(#2015,#2016,#2024,#2031));
#2015 = ORIENTED_EDGE('',*,*,#2000,.T.);
#2016 = ORIENTED_EDGE('',*,*,#2017,.T.);
#2017 = EDGE_CURVE('',#1993,#2018,#2020,.T.);
#2018 = VERTEX_POINT('',#2019);
#2019 = CARTESIAN_POINT('',(18.110494195355,0.,57.));
#2020 = LINE('',#2021,#2022);
#2021 = CARTESIAN_POINT('',(22.038092022677,0.,55.5));
#2022 = VECTOR('',#2023,1.);
#2023 = DIRECTION('',(-0.934188918507,0.,0.356778733304));
#2024 = ORIENTED_EDGE('',*,*,#2025,.F.);
#2025 = EDGE_CURVE('',#2018,#2018,#2026,.T.);
#2026 = CIRCLE('',#2027,18.110494195355);
#2027 = AXIS2_PLACEMENT_3D('',#2028,#2029,#2030);
#2028 = CARTESIAN_POINT('',(0.,0.,57.));
#2029 = DIRECTION('',(0.,0.,1.));
#2030 = DIRECTION('',(1.,0.,0.));
#2031 = ORIENTED_EDGE('',*,*,#2017,.F.);
#2032 = CONICAL_SURFACE('',#2033,22.038092022677,1.205978909907);
#2033 = AXIS2_PLACEMENT_3D('',#2034,#2035,#2036);
#2034 = CARTESIAN_POINT('',(0.,0.,55.5));
#2035 = DIRECTION('',(-0.,-0.,-1.));
#2036 = DIRECTION('',(1.,0.,0.));
#2037 = ADVANCED_FACE('',(#2038),#2057,.T.);
#2038 = FACE_BOUND('',#2039,.T.);
#2039 = EDGE_LOOP('',(#2040,#2041,#2049,#2056));
#2040 = ORIENTED_EDGE('',*,*,#2025,.T.);
#2041 = ORIENTED_EDGE('',*,*,#2042,.T.);
#2042 = EDGE_CURVE('',#2018,#2043,#2045,.T.);
#2043 = VERTEX_POINT('',#2044);
#2044 = CARTESIAN_POINT('',(12.887881905108,0.,58.5));
#2045 = LINE('',#2046,#2047);
#2046 = CARTESIAN_POINT('',(18.110494195355,0.,57.));
#2047 = VECTOR('',#2048,1.);
#2048 = DIRECTION('',(-0.961142626405,0.,0.276052262639));
#2049 = ORIENTED_EDGE('',*,*,#2050,.F.);
#2050 = EDGE_CURVE('',#2043,#2043,#2051,.T.);
#2051 = CIRCLE('',#2052,12.887881905108);
#2052 = AXIS2_PLACEMENT_3D('',#2053,#2054,#2055);
#2053 = CARTESIAN_POINT('',(0.,0.,58.5));
#2054 = DIRECTION('',(0.,0.,1.));
#2055 = DIRECTION('',(1.,0.,0.));
#2056 = ORIENTED_EDGE('',*,*,#2042,.F.);
#2057 = CONICAL_SURFACE('',#2058,18.110494195355,1.291111992416);
#2058 = AXIS2_PLACEMENT_3D('',#2059,#2060,#2061);
#2059 = CARTESIAN_POINT('',(0.,0.,57.));
#2060 = DIRECTION('',(-0.,-0.,-1.));
#2061 = DIRECTION('',(1.,0.,0.));
#2062 = ADVANCED_FACE('',(#2063),#2075,.T.);
#2063 = FACE_BOUND('',#2064,.T.);
#2064 = EDGE_LOOP('',(#2065,#2066,#2074));
#2065 = ORIENTED_EDGE('',*,*,#2050,.T.);
#2066 = ORIENTED_EDGE('',*,*,#2067,.T.);
#2067 = EDGE_CURVE('',#2043,#2068,#2070,.T.);
#2068 = VERTEX_POINT('',#2069);
#2069 = CARTESIAN_POINT('',(0.,0.,60.));
#2070 = LINE('',#2071,#2072);
#2071 = CARTESIAN_POINT('',(12.887881905108,0.,58.5));
#2072 = VECTOR('',#2073,1.);
#2073 = DIRECTION('',(-0.993294914998,0.,0.115608009405));
#2074 = ORIENTED_EDGE('',*,*,#2067,.F.);
#2075 = CONICAL_SURFACE('',#2076,12.887881905108,1.454929235213);
#2076 = AXIS2_PLACEMENT_3D('',#2077,#2078,#2079);
#2077 = CARTESIAN_POINT('',(0.,0.,58.5));
#2078 = DIRECTION('',(-0.,-0.,-1.));
#2079 = DIRECTION('',(1.,0.,0.));
#2080 = ADVANCED_FACE('',(#2081),#2099,.F.);
#2081 = FACE_BOUND('',#2082,.T.);
#2082 = EDGE_LOOP('',(#2083,#2091,#2098));
#2083 = ORIENTED_EDGE('',*,*,#2084,.T.);
#2084 = EDGE_CURVE('',#2068,#2085,#2087,.T.);
#2085 = VERTEX_POINT('',#2086);
#2086 = CARTESIAN_POINT('',(58.,0.,0.));
#2087 = LINE('',#2088,#2089);
#2088 = CARTESIAN_POINT('',(0.,0.,60.));
#2089 = VECTOR('',#2090,1.);
#2090 = DIRECTION('',(0.695022096847,0.,-0.718988376049));
#2091 = ORIENTED_EDGE('',*,*,#2092,.F.);
#2092 = EDGE_CURVE('',#2085,#2085,#2093,.T.);
#2093 = CIRCLE('',#2094,58.);
#2094 = AXIS2_PLACEMENT_3D('',#2095,#2096,#2097);
#2095 = CARTESIAN_POINT('',(0.,0.,0.));
#2096 = DIRECTION('',(0.,0.,1.));
#2097 = DIRECTION('',(1.,0.,0.));
#2098 = ORIENTED_EDGE('',*,*,#2084,.F.);
#2099 = CONICAL_SURFACE('',#2100,0.,0.768450633591);
#2100 = AXIS2_PLACEMENT_3D('',#2101,#2102,#2103);
#2101 = CARTESIAN_POINT('',(0.,0.,60.));
#2102 = DIRECTION('',(-0.,-0.,-1.));
#2103 = DIRECTION('',(1.,0.,0.));
#2104 = ADVANCED_FACE('',(#2105),#2116,.F.);
#2105 = FACE_BOUND('',#2106,.T.);
#2106 = EDGE_LOOP('',(#2107,#2108,#2114,#2115));
#2107 = ORIENTED_EDGE('',*,*,#2092,.T.);
#2108 = ORIENTED_EDGE('',*,*,#2109,.T.);
#2109 = EDGE_CURVE('',#2085,#22,#2110,.T.);
#2110 = LINE('',#2111,#2112);
#2111 = CARTESIAN_POINT('',(58.,0.,0.));
#2112 = VECTOR('',#2113,1.);
#2113 = DIRECTION('',(0.986393923832,0.,-0.164398987305));
#2114 = ORIENTED_EDGE('',*,*,#21,.F.);
#2115 = ORIENTED_EDGE('',*,*,#2109,.F.);
#2116 = CONICAL_SURFACE('',#2117,58.,1.40564764938);
#2117 = AXIS2_PLACEMENT_3D('',#2118,#2119,#2120);
#2118 = CARTESIAN_POINT('',(0.,0.,0.));
#2119 = DIRECTION('',(-0.,-0.,-1.));
#2120 = DIRECTION('',(1.,0.,0.));
#2121 = ( GEOMETRIC_REPRESENTATION_CONTEXT(3) 
GLOBAL_UNCERTAINTY_ASSIGNED_CONTEXT((#2125)) 
GLOBAL_UNIT_ASSIGNED_CONTEXT((#2122,#2123,#2124)) REPRESENTATION_CONTEXT
('Context #1','3D Context with UNIT and UNCERTAINTY') );
#2122 = ( LENGTH_UNIT() NAMED_UNIT(*) SI_UNIT(.MILLI.,.METRE.) );
#2123 = ( NAMED_UNIT(*) PLANE_ANGLE_UNIT() SI_UNIT($,.RADIAN.) );
#2124 = ( NAMED_UNIT(*) SI_UNIT($,.STERADIAN.) SOLID_ANGLE_UNIT() );
#2125 = UNCERTAINTY_MEASURE_WITH_UNIT(LENGTH_MEASURE(1.E-07),#2122,
  'distance_accuracy_value','confusion accuracy');
#2126 = PRODUCT_RELATED_PRODUCT_CATEGORY('part',$,(#7));
ENDSEC;
END-ISO-10303-21;
