ISO-10303-21;
HEADER;
FILE_DESCRIPTION(('FreeCAD Model'),'2;1');
FILE_NAME('Open CASCADE Shape Model','2026-08-08T22:47:37',('Author'),(
    ''),'Open CASCADE STEP processor 7.8','FreeCAD','Unknown');
FILE_SCHEMA(('AUTOMOTIVE_DESIGN { 1 0 10303 214 1 1 1 1 }'));
ENDSEC;
DATA;
#1 = APPLICATION_PROTOCOL_DEFINITION('international standard',
  'automotive_design',2000,#2);
#2 = APPLICATION_CONTEXT(
  'core data for automotive mechanical design processes');
#3 = SHAPE_DEFINITION_REPRESENTATION(#4,#10);
#4 = PRODUCT_DEFINITION_SHAPE('','',#5);
#5 = PRODUCT_DEFINITION('design','',#6,#9);
#6 = PRODUCT_DEFINITION_FORMATION('','',#7);
#7 = PRODUCT('FinalRadome','FinalRadome','',(#8));
#8 = PRODUCT_CONTEXT('',#2,'mechanical');
#9 = PRODUCT_DEFINITION_CONTEXT('part definition',#2,'design');
#10 = ADVANCED_BREP_SHAPE_REPRESENTATION('',(#11,#15),#809);
#11 = AXIS2_PLACEMENT_3D('',#12,#13,#14);
#12 = CARTESIAN_POINT('',(0.,0.,0.));
#13 = DIRECTION('',(0.,0.,1.));
#14 = DIRECTION('',(1.,0.,-0.));
#15 = MANIFOLD_SOLID_BREP('',#16);
#16 = CLOSED_SHELL('',(#17,#434,#488,#512,#559,#577,#608,#654,#678,#717,
    #729,#746,#763,#775,#792));
#17 = ADVANCED_FACE('',(#18,#186),#398,.T.);
#18 = FACE_BOUND('',#19,.T.);
#19 = EDGE_LOOP('',(#20,#32,#33,#58,#69,#79,#107,#117,#118,#146,#163));
#20 = ORIENTED_EDGE('',*,*,#21,.T.);
#21 = EDGE_CURVE('',#22,#24,#26,.T.);
#22 = VERTEX_POINT('',#23);
#23 = CARTESIAN_POINT('',(120.19730566967,-2.71752453516E-14,
    -1.120658352993E-13));
#24 = VERTEX_POINT('',#25);
#25 = CARTESIAN_POINT('',(7.960204194458E-15,-1.799711739194E-30,290.));
#26 = ( BOUNDED_CURVE() B_SPLINE_CURVE(2,(#27,#28,#29,#30,#31),
.UNSPECIFIED.,.F.,.F.) B_SPLINE_CURVE_WITH_KNOTS((3,2,3),(4.712388980385
,6.28318530718,7.853981633974),.PIECEWISE_BEZIER_KNOTS.) CURVE() 
GEOMETRIC_REPRESENTATION_ITEM() RATIONAL_B_SPLINE_CURVE((1.,
0.707106781187,1.,0.707106781187,1.)) REPRESENTATION_ITEM('') );
#27 = CARTESIAN_POINT('',(-2.388061258337E-14,5.399135217583E-30,-130.)
  );
#28 = CARTESIAN_POINT('',(130.,-2.939152317954E-14,-130.));
#29 = CARTESIAN_POINT('',(130.,-2.939152317954E-14,80.));
#30 = CARTESIAN_POINT('',(130.,-2.939152317954E-14,290.));
#31 = CARTESIAN_POINT('',(3.980102097229E-14,-8.998558695971E-30,290.));
#32 = ORIENTED_EDGE('',*,*,#21,.F.);
#33 = ORIENTED_EDGE('',*,*,#34,.F.);
#34 = EDGE_CURVE('',#35,#22,#37,.T.);
#35 = VERTEX_POINT('',#36);
#36 = CARTESIAN_POINT('',(52.069964270569,100.,0.));
#37 = B_SPLINE_CURVE_WITH_KNOTS('',7,(#38,#39,#40,#41,#42,#43,#44,#45,
    #46,#47,#48,#49,#50,#51,#52,#53,#54,#55,#56,#57),.UNSPECIFIED.,.F.,
  .F.,(8,6,6,8),(0.,0.427859913241,0.623462397214,1.),.UNSPECIFIED.);
#38 = CARTESIAN_POINT('',(52.069964270569,100.,0.));
#39 = CARTESIAN_POINT('',(59.221861954586,96.826895610072,0.));
#40 = CARTESIAN_POINT('',(66.142180379545,93.130599076021,0.));
#41 = CARTESIAN_POINT('',(72.780888232482,88.922859902792,0.));
#42 = CARTESIAN_POINT('',(79.086217415427,84.219998635539,0.));
#43 = CARTESIAN_POINT('',(85.005651564026,79.044182241057,0.));
#44 = CARTESIAN_POINT('',(90.486617488016,73.424343103944,0.));
#45 = CARTESIAN_POINT('',(97.760700393448,64.644070254968,0.));
#46 = CARTESIAN_POINT('',(99.940593434934,61.804633815359,0.));
#47 = CARTESIAN_POINT('',(102.01337100652,58.884164047955,0.));
#48 = CARTESIAN_POINT('',(103.97431646062,55.886740179479,0.));
#49 = CARTESIAN_POINT('',(105.81889638594,52.816824195524,0.));
#50 = CARTESIAN_POINT('',(107.54281128446,49.679293273026,0.));
#51 = CARTESIAN_POINT('',(112.22065210088,40.319805200302,0.));
#52 = CARTESIAN_POINT('',(114.83815801363,33.927594795537,0.));
#53 = CARTESIAN_POINT('',(116.96444490293,27.343038698347,0.));
#54 = CARTESIAN_POINT('',(118.57630959705,20.609659284955,0.));
#55 = CARTESIAN_POINT('',(119.65710508963,13.774124172666,0.));
#56 = CARTESIAN_POINT('',(120.19730566967,6.886346346273,0.));
#57 = CARTESIAN_POINT('',(120.19730566967,-1.42108547152E-14,0.));
#58 = ORIENTED_EDGE('',*,*,#59,.T.);
#59 = EDGE_CURVE('',#35,#60,#62,.T.);
#60 = VERTEX_POINT('',#61);
#61 = CARTESIAN_POINT('',(46.657163448538,100.,-8.28631852805));
#62 = B_SPLINE_CURVE_WITH_KNOTS('',5,(#63,#64,#65,#66,#67,#68),
  .UNSPECIFIED.,.F.,.F.,(6,6),(0.,1.),.PIECEWISE_BEZIER_KNOTS.);
#63 = CARTESIAN_POINT('',(52.069964270569,100.,0.));
#64 = CARTESIAN_POINT('',(51.065245618711,100.,-1.706450292764));
#65 = CARTESIAN_POINT('',(50.022644091189,100.,-3.390584353413));
#66 = CARTESIAN_POINT('',(48.941130629919,100.,-5.050320474539));
#67 = CARTESIAN_POINT('',(47.819661055314,100.,-6.683188027393));
#68 = CARTESIAN_POINT('',(46.657163448538,100.,-8.28631852805));
#69 = ORIENTED_EDGE('',*,*,#70,.T.);
#70 = EDGE_CURVE('',#60,#71,#73,.T.);
#71 = VERTEX_POINT('',#72);
#72 = CARTESIAN_POINT('',(43.821401081478,100.,-12.));
#73 = B_SPLINE_CURVE_WITH_KNOTS('',4,(#74,#75,#76,#77,#78),
  .UNSPECIFIED.,.F.,.F.,(5,5),(0.,1.),.PIECEWISE_BEZIER_KNOTS.);
#74 = CARTESIAN_POINT('',(46.657163448538,100.,-8.28631852805));
#75 = CARTESIAN_POINT('',(45.971340168773,100.,-9.232096146382));
#76 = CARTESIAN_POINT('',(45.270285256268,100.,-10.16682494101));
#77 = CARTESIAN_POINT('',(44.553734608149,100.,-11.08976292247));
#78 = CARTESIAN_POINT('',(43.821401081478,100.,-12.));
#79 = ORIENTED_EDGE('',*,*,#80,.T.);
#80 = EDGE_CURVE('',#71,#81,#83,.T.);
#81 = VERTEX_POINT('',#82);
#82 = CARTESIAN_POINT('',(116.86071326093,-2.64208797122E-14,-12.));
#83 = B_SPLINE_CURVE_WITH_KNOTS('',8,(#84,#85,#86,#87,#88,#89,#90,#91,
    #92,#93,#94,#95,#96,#97,#98,#99,#100,#101,#102,#103,#104,#105,#106),
  .UNSPECIFIED.,.F.,.F.,(9,7,7,9),(0.,0.442847199198,0.63398071348,1.),
  .UNSPECIFIED.);
#84 = CARTESIAN_POINT('',(43.821401081478,100.,-12.));
#85 = CARTESIAN_POINT('',(50.656345921915,97.447903684731,-12.));
#86 = CARTESIAN_POINT('',(57.318252297686,94.431058955895,-12.));
#87 = CARTESIAN_POINT('',(63.767815453046,90.957006743432,-12.));
#88 = CARTESIAN_POINT('',(69.964402966368,87.036149704157,-12.));
#89 = CARTESIAN_POINT('',(75.866500629016,82.68241578335,-12.));
#90 = CARTESIAN_POINT('',(81.432179674132,77.913899005161,-12.));
#91 = CARTESIAN_POINT('',(86.619571762224,72.753528141827,-12.));
#92 = CARTESIAN_POINT('',(93.446039419828,64.846848284078,-12.));
#93 = CARTESIAN_POINT('',(95.425985867976,62.395656912294,-12.));
#94 = CARTESIAN_POINT('',(97.324519648594,59.87939980812,-12.));
#95 = CARTESIAN_POINT('',(99.138411250507,57.300684203294,-12.));
#96 = CARTESIAN_POINT('',(100.8645198488,54.662326387729,-12.));
#97 = CARTESIAN_POINT('',(102.4998121406,51.967364255448,-12.));
#98 = CARTESIAN_POINT('',(104.04138660326,49.21907335516,-12.));
#99 = CARTESIAN_POINT('',(108.25389087522,41.062670410947,-12.));
#100 = CARTESIAN_POINT('',(110.66830006921,35.520288195061,-12.));
#101 = CARTESIAN_POINT('',(112.70930841324,29.820115265947,-12.));
#102 = CARTESIAN_POINT('',(114.36026333391,23.990287479057,-12.));
#103 = CARTESIAN_POINT('',(115.60803654915,18.060708900569,-12.));
#104 = CARTESIAN_POINT('',(116.44324991189,12.063074482105,-12.));
#105 = CARTESIAN_POINT('',(116.86071326093,6.030944435947,-12.));
#106 = CARTESIAN_POINT('',(116.86071326093,-1.42108547152E-14,-12.));
#107 = ORIENTED_EDGE('',*,*,#108,.F.);
#108 = EDGE_CURVE('',#109,#81,#111,.T.);
#109 = VERTEX_POINT('',#110);
#110 = CARTESIAN_POINT('',(7.960204194458E-15,-1.799711739194E-30,-130.)
  );
#111 = ( BOUNDED_CURVE() B_SPLINE_CURVE(2,(#112,#113,#114,#115,#116),
.UNSPECIFIED.,.F.,.F.) B_SPLINE_CURVE_WITH_KNOTS((3,2,3),(4.712388980385
,6.28318530718,7.853981633974),.PIECEWISE_BEZIER_KNOTS.) CURVE() 
GEOMETRIC_REPRESENTATION_ITEM() RATIONAL_B_SPLINE_CURVE((1.,
0.707106781187,1.,0.707106781187,1.)) REPRESENTATION_ITEM('') );
#112 = CARTESIAN_POINT('',(-2.388061258337E-14,5.399135217583E-30,-130.)
  );
#113 = CARTESIAN_POINT('',(130.,-2.939152317954E-14,-130.));
#114 = CARTESIAN_POINT('',(130.,-2.939152317954E-14,80.));
#115 = CARTESIAN_POINT('',(130.,-2.939152317954E-14,290.));
#116 = CARTESIAN_POINT('',(3.980102097229E-14,-8.998558695971E-30,290.)
  );
#117 = ORIENTED_EDGE('',*,*,#108,.T.);
#118 = ORIENTED_EDGE('',*,*,#119,.T.);
#119 = EDGE_CURVE('',#81,#120,#122,.T.);
#120 = VERTEX_POINT('',#121);
#121 = CARTESIAN_POINT('',(43.821401081478,-100.,-12.));
#122 = B_SPLINE_CURVE_WITH_KNOTS('',8,(#123,#124,#125,#126,#127,#128,
    #129,#130,#131,#132,#133,#134,#135,#136,#137,#138,#139,#140,#141,
    #142,#143,#144,#145),.UNSPECIFIED.,.F.,.F.,(9,7,7,9),(0.,
    0.366019286518,0.5571528008,1.),.UNSPECIFIED.);
#123 = CARTESIAN_POINT('',(116.86071326093,7.105427357601E-14,-12.));
#124 = CARTESIAN_POINT('',(116.86071326093,-6.030944435948,-12.));
#125 = CARTESIAN_POINT('',(116.4432499119,-12.06307448206,-12.));
#126 = CARTESIAN_POINT('',(115.60803654913,-18.06070890066,-12.));
#127 = CARTESIAN_POINT('',(114.36026333395,-23.99028747889,-12.));
#128 = CARTESIAN_POINT('',(112.7093084132,-29.82011526609,-12.));
#129 = CARTESIAN_POINT('',(110.66830006925,-35.52028819496,-12.));
#130 = CARTESIAN_POINT('',(108.25389087522,-41.06267041095,-12.));
#131 = CARTESIAN_POINT('',(104.04138660327,-49.21907335514,-12.));
#132 = CARTESIAN_POINT('',(102.4998121406,-51.96736425543,-12.));
#133 = CARTESIAN_POINT('',(100.86451984881,-54.66232638771,-12.));
#134 = CARTESIAN_POINT('',(99.138411250517,-57.30068420328,-12.));
#135 = CARTESIAN_POINT('',(97.324519648604,-59.8793998081,-12.));
#136 = CARTESIAN_POINT('',(95.425985867987,-62.39565691227,-12.));
#137 = CARTESIAN_POINT('',(93.446039419839,-64.84684828406,-12.));
#138 = CARTESIAN_POINT('',(86.619571762227,-72.75352814182,-12.));
#139 = CARTESIAN_POINT('',(81.432179674176,-77.91389900511,-12.));
#140 = CARTESIAN_POINT('',(75.86650062896,-82.6824157834,-12.));
#141 = CARTESIAN_POINT('',(69.964402966456,-87.03614970409,-12.));
#142 = CARTESIAN_POINT('',(63.76781545299,-90.95700674346,-12.));
#143 = CARTESIAN_POINT('',(57.318252297719,-94.43105895588,-12.));
#144 = CARTESIAN_POINT('',(50.656345921911,-97.44790368473,-12.));
#145 = CARTESIAN_POINT('',(43.821401081478,-100.,-12.));
#146 = ORIENTED_EDGE('',*,*,#147,.F.);
#147 = EDGE_CURVE('',#148,#120,#150,.T.);
#148 = VERTEX_POINT('',#149);
#149 = CARTESIAN_POINT('',(52.069964270569,-100.,0.));
#150 = B_SPLINE_CURVE_WITH_KNOTS('',6,(#151,#152,#153,#154,#155,#156,
    #157,#158,#159,#160,#161,#162),.UNSPECIFIED.,.F.,.F.,(7,5,7),(0.,
    0.455262202566,1.),.UNSPECIFIED.);
#151 = CARTESIAN_POINT('',(52.069964270569,-100.,0.));
#152 = CARTESIAN_POINT('',(51.508884819595,-100.,-0.952951824792));
#153 = CARTESIAN_POINT('',(50.936473188101,-100.,-1.89922995851));
#154 = CARTESIAN_POINT('',(50.352547540034,-100.,-2.838503569472));
#155 = CARTESIAN_POINT('',(49.756986998984,-100.,-3.770451356186));
#156 = CARTESIAN_POINT('',(49.149609194611,-100.,-4.694694628894));
#157 = CARTESIAN_POINT('',(47.789195447502,-100.,-6.707059613973));
#158 = CARTESIAN_POINT('',(47.030993929281,-100.,-7.791683325979));
#159 = CARTESIAN_POINT('',(46.255382638738,-100.,-8.864054439125));
#160 = CARTESIAN_POINT('',(45.462089958326,-100.,-9.923441127297));
#161 = CARTESIAN_POINT('',(44.650849695253,-100.,-10.96904477952));
#162 = CARTESIAN_POINT('',(43.821401081478,-100.,-12.));
#163 = ORIENTED_EDGE('',*,*,#164,.F.);
#164 = EDGE_CURVE('',#22,#148,#165,.T.);
#165 = B_SPLINE_CURVE_WITH_KNOTS('',7,(#166,#167,#168,#169,#170,#171,
    #172,#173,#174,#175,#176,#177,#178,#179,#180,#181,#182,#183,#184,
    #185),.UNSPECIFIED.,.F.,.F.,(8,6,6,8),(0.,0.376537602785,
    0.572140086759,1.),.UNSPECIFIED.);
#166 = CARTESIAN_POINT('',(120.19730566967,7.105427357601E-14,0.));
#167 = CARTESIAN_POINT('',(120.19730566967,-6.88634634627,0.));
#168 = CARTESIAN_POINT('',(119.65710508963,-13.77412417266,0.));
#169 = CARTESIAN_POINT('',(118.57630959705,-20.60965928494,0.));
#170 = CARTESIAN_POINT('',(116.96444490294,-27.34303869833,0.));
#171 = CARTESIAN_POINT('',(114.83815801363,-33.92759479552,0.));
#172 = CARTESIAN_POINT('',(112.22065210089,-40.31980520028,0.));
#173 = CARTESIAN_POINT('',(107.54281128447,-49.67929327301,0.));
#174 = CARTESIAN_POINT('',(105.81889638595,-52.8168241955,0.));
#175 = CARTESIAN_POINT('',(103.97431646063,-55.88674017946,0.));
#176 = CARTESIAN_POINT('',(102.01337100653,-58.88416404794,0.));
#177 = CARTESIAN_POINT('',(99.940593434946,-61.80463381534,0.));
#178 = CARTESIAN_POINT('',(97.760700393459,-64.64407025495,0.));
#179 = CARTESIAN_POINT('',(90.486617488022,-73.42434310393,0.));
#180 = CARTESIAN_POINT('',(85.00565156406,-79.04418224102,0.));
#181 = CARTESIAN_POINT('',(79.086217415389,-84.21999863556,0.));
#182 = CARTESIAN_POINT('',(72.780888232541,-88.92285990275,0.));
#183 = CARTESIAN_POINT('',(66.142180379518,-93.13059907603,0.));
#184 = CARTESIAN_POINT('',(59.221861954598,-96.82689561006,0.));
#185 = CARTESIAN_POINT('',(52.069964270569,-100.,0.));
#186 = FACE_BOUND('',#187,.T.);
#187 = EDGE_LOOP('',(#188,#207,#298,#315));
#188 = ORIENTED_EDGE('',*,*,#189,.F.);
#189 = EDGE_CURVE('',#190,#192,#194,.T.);
#190 = VERTEX_POINT('',#191);
#191 = CARTESIAN_POINT('',(-43.82140108147,-100.,-12.));
#192 = VERTEX_POINT('',#193);
#193 = CARTESIAN_POINT('',(-52.06996427056,-100.,0.));
#194 = B_SPLINE_CURVE_WITH_KNOTS('',6,(#195,#196,#197,#198,#199,#200,
    #201,#202,#203,#204,#205,#206),.UNSPECIFIED.,.F.,.F.,(7,5,7),(0.,
    0.521806121166,1.),.UNSPECIFIED.);
#195 = CARTESIAN_POINT('',(-43.82140108147,-100.,-12.));
#196 = CARTESIAN_POINT('',(-44.615935105,-100.,-11.01244649491));
#197 = CARTESIAN_POINT('',(-45.39375154999,-100.,-10.01144412528));
#198 = CARTESIAN_POINT('',(-46.15510614277,-100.,-8.997775763322));
#199 = CARTESIAN_POINT('',(-46.90020057373,-100.,-7.97211777232));
#200 = CARTESIAN_POINT('',(-47.62929700686,-100.,-6.935138443688));
#201 = CARTESIAN_POINT('',(-48.99634067046,-100.,-4.927271308633));
#202 = CARTESIAN_POINT('',(-49.63681187778,-100.,-3.958108562397));
#203 = CARTESIAN_POINT('',(-50.26422829527,-100.,-2.980388948853));
#204 = CARTESIAN_POINT('',(-50.87877292536,-100.,-1.994538576187));
#205 = CARTESIAN_POINT('',(-51.48062585798,-100.,-1.000953555338));
#206 = CARTESIAN_POINT('',(-52.06996427056,-100.,0.));
#207 = ORIENTED_EDGE('',*,*,#208,.T.);
#208 = EDGE_CURVE('',#190,#209,#211,.T.);
#209 = VERTEX_POINT('',#210);
#210 = CARTESIAN_POINT('',(-43.82140108147,100.,-12.));
#211 = B_SPLINE_CURVE_WITH_KNOTS('',7,(#212,#213,#214,#215,#216,#217,
    #218,#219,#220,#221,#222,#223,#224,#225,#226,#227,#228,#229,#230,
    #231,#232,#233,#234,#235,#236,#237,#238,#239,#240,#241,#242,#243,
    #244,#245,#246,#247,#248,#249,#250,#251,#252,#253,#254,#255,#256,
    #257,#258,#259,#260,#261,#262,#263,#264,#265,#266,#267,#268,#269,
    #270,#271,#272,#273,#274,#275,#276,#277,#278,#279,#280,#281,#282,
    #283,#284,#285,#286,#287,#288,#289,#290,#291,#292,#293,#294,#295,
    #296,#297),.UNSPECIFIED.,.F.,.F.,(8,6,6,6,6,6,6,6,6,6,6,6,6,6,8),(0.
    ,5.308182612318E-02,7.121598842423E-02,0.220627118357,0.314060995903
    ,0.371955028629,0.498451174556,0.585838169847,0.682842648375,
    0.776276268011,0.890811331184,0.91686132499,0.935806774854,
    0.949989634953,1.),.UNSPECIFIED.);
#212 = CARTESIAN_POINT('',(-43.82140108147,-100.,-12.));
#213 = CARTESIAN_POINT('',(-45.7000038704,-99.29854953223,-12.));
#214 = CARTESIAN_POINT('',(-47.56522702901,-98.56127183136,-12.));
#215 = CARTESIAN_POINT('',(-49.41619974606,-97.78833606915,-12.));
#216 = CARTESIAN_POINT('',(-51.25204366781,-96.97992960429,-12.));
#217 = CARTESIAN_POINT('',(-53.07187349844,-96.1362593417,-12.));
#218 = CARTESIAN_POINT('',(-54.87479760044,-95.25755309178,-12.));
#219 = CARTESIAN_POINT('',(-57.2697633612,-94.03198773369,-12.));
#220 = CARTESIAN_POINT('',(-57.87753005783,-93.7158548771,-12.));
#221 = CARTESIAN_POINT('',(-58.48318317356,-93.39567218378,-12.));
#222 = CARTESIAN_POINT('',(-59.08668703351,-93.07144983575,-12.));
#223 = CARTESIAN_POINT('',(-59.68800579934,-92.74319837323,-12.));
#224 = CARTESIAN_POINT('',(-60.28710346916,-92.41092869462,-12.));
#225 = CARTESIAN_POINT('',(-65.80143597527,-89.30399898535,-12.));
#226 = CARTESIAN_POINT('',(-70.5657912183,-86.26128144074,-12.));
#227 = CARTESIAN_POINT('',(-75.1566871322,-82.95283500346,-12.));
#228 = CARTESIAN_POINT('',(-79.55340805358,-79.38658953768,-12.));
#229 = CARTESIAN_POINT('',(-83.73508677839,-75.5723617552,-12.));
#230 = CARTESIAN_POINT('',(-87.68093267389,-71.5221327241,-12.));
#231 = CARTESIAN_POINT('',(-93.67807159324,-64.57939616293,-12.));
#232 = CARTESIAN_POINT('',(-95.88531210123,-61.82164795579,-12.));
#233 = CARTESIAN_POINT('',(-97.98742547112,-58.98097743402,-12.));
#234 = CARTESIAN_POINT('',(-99.97956262605,-56.06138431631,-12.));
#235 = CARTESIAN_POINT('',(-101.8570449893,-53.06726124141,-12.));
#236 = CARTESIAN_POINT('',(-103.6154165521,-50.00342860905,-12.));
#237 = CARTESIAN_POINT('',(-106.2636642482,-44.93683985982,-12.));
#238 = CARTESIAN_POINT('',(-107.229489964,-42.97375613866,-12.));
#239 = CARTESIAN_POINT('',(-108.1470030014,-40.98718790711,-12.));
#240 = CARTESIAN_POINT('',(-109.0152646211,-38.97844602742,-12.));
#241 = CARTESIAN_POINT('',(-109.8333917178,-36.94889720779,-12.));
#242 = CARTESIAN_POINT('',(-110.6005619175,-34.89996612668,-12.));
#243 = CARTESIAN_POINT('',(-112.8792630735,-28.31719979953,-12.));
#244 = CARTESIAN_POINT('',(-114.1957445137,-23.71547597635,-12.));
#245 = CARTESIAN_POINT('',(-115.2573479238,-19.04389303736,-12.));
#246 = CARTESIAN_POINT('',(-116.0579096689,-14.31902563572,-12.));
#247 = CARTESIAN_POINT('',(-116.5931310757,-9.558076094576,-12.));
#248 = CARTESIAN_POINT('',(-116.8607132609,-4.77888893996,-12.));
#249 = CARTESIAN_POINT('',(-116.8607132609,3.301387107309,-12.));
#250 = CARTESIAN_POINT('',(-116.7330119157,6.602825327118,-12.));
#251 = CARTESIAN_POINT('',(-116.4776022813,9.898295174822,-12.));
#252 = CARTESIAN_POINT('',(-116.0949946709,13.181887035644,-12.));
#253 = CARTESIAN_POINT('',(-115.5861758829,16.447797191032,-12.));
#254 = CARTESIAN_POINT('',(-114.9525935113,19.690326651625,-12.));
#255 = CARTESIAN_POINT('',(-113.3564875295,26.471110815629,-12.));
#256 = CARTESIAN_POINT('',(-112.3654074777,30.002757982458,-12.));
#257 = CARTESIAN_POINT('',(-111.2255270959,33.491185003769,-12.));
#258 = CARTESIAN_POINT('',(-109.9400861731,36.929207832556,-12.));
#259 = CARTESIAN_POINT('',(-108.5128614832,40.310061820312,-12.));
#260 = CARTESIAN_POINT('',(-106.9481041305,43.627379489987,-12.));
#261 = CARTESIAN_POINT('',(-103.6154165521,50.003428609032,-12.));
#262 = CARTESIAN_POINT('',(-101.8570449893,53.067261241374,-12.));
#263 = CARTESIAN_POINT('',(-99.97956262606,56.061384316291,-12.));
#264 = CARTESIAN_POINT('',(-97.98742547113,58.98097743401,-12.));
#265 = CARTESIAN_POINT('',(-95.88531210126,61.821647955759,-12.));
#266 = CARTESIAN_POINT('',(-93.67807159325,64.57939616291,-12.));
#267 = CARTESIAN_POINT('',(-88.54220103369,70.525064053365,-12.));
#268 = CARTESIAN_POINT('',(-85.56320166367,73.669508072933,-12.));
#269 = CARTESIAN_POINT('',(-82.44282213669,76.67729499728,-12.));
#270 = CARTESIAN_POINT('',(-79.1903801524,79.542725749876,-12.));
#271 = CARTESIAN_POINT('',(-75.81526449619,82.260903333234,-12.));
#272 = CARTESIAN_POINT('',(-72.3268454194,84.827632695268,-12.));
#273 = CARTESIAN_POINT('',(-67.91734508876,87.78787304357,-12.));
#274 = CARTESIAN_POINT('',(-67.09848083742,88.325972214332,-12.));
#275 = CARTESIAN_POINT('',(-66.2780411685,88.853713163971,-12.));
#276 = CARTESIAN_POINT('',(-65.45624213962,89.371167310394,-12.));
#277 = CARTESIAN_POINT('',(-64.63329415607,89.878410813088,-12.));
#278 = CARTESIAN_POINT('',(-63.80940177067,90.375524255533,-12.));
#279 = CARTESIAN_POINT('',(-62.38502655305,91.216823649476,-12.));
#280 = CARTESIAN_POINT('',(-61.78489514008,91.565741653176,-12.));
#281 = CARTESIAN_POINT('',(-61.18444565672,91.909378981164,-12.));
#282 = CARTESIAN_POINT('',(-60.58375286088,92.247769286943,-12.));
#283 = CARTESIAN_POINT('',(-59.9828898563,92.580947235063,-12.));
#284 = CARTESIAN_POINT('',(-59.38192809257,92.908948501128,-12.));
#285 = CARTESIAN_POINT('',(-58.33102630631,93.47350876897,-12.));
#286 = CARTESIAN_POINT('',(-57.8793950068,93.713252006961,-12.));
#287 = CARTESIAN_POINT('',(-57.42533056201,93.951391405412,-12.));
#288 = CARTESIAN_POINT('',(-56.96841587969,94.188120922188,-12.));
#289 = CARTESIAN_POINT('',(-56.50852967992,94.423476553369,-12.));
#290 = CARTESIAN_POINT('',(-56.0458464951,94.657336333252,-12.));
#291 = CARTESIAN_POINT('',(-53.94115955663,95.707774709673,-12.));
#292 = CARTESIAN_POINT('',(-52.2869368418,96.496988939516,-12.));
#293 = CARTESIAN_POINT('',(-50.61885169881,97.256878092697,-12.));
#294 = CARTESIAN_POINT('',(-48.93758325895,97.987272452526,-12.));
#295 = CARTESIAN_POINT('',(-47.243806242,98.688016668117,-12.));
#296 = CARTESIAN_POINT('',(-45.53819058673,99.358968905713,-12.));
#297 = CARTESIAN_POINT('',(-43.82140108147,100.,-12.));
#298 = ORIENTED_EDGE('',*,*,#299,.T.);
#299 = EDGE_CURVE('',#209,#300,#302,.T.);
#300 = VERTEX_POINT('',#301);
#301 = CARTESIAN_POINT('',(-52.06996427056,100.,0.));
#302 = B_SPLINE_CURVE_WITH_KNOTS('',6,(#303,#304,#305,#306,#307,#308,
    #309,#310,#311,#312,#313,#314),.UNSPECIFIED.,.F.,.F.,(7,5,7),(0.,
    0.519283653923,1.),.UNSPECIFIED.);
#303 = CARTESIAN_POINT('',(-43.82140108147,100.,-12.));
#304 = CARTESIAN_POINT('',(-44.61209572328,100.,-11.01722249682));
#305 = CARTESIAN_POINT('',(-45.38622686845,100.,-10.02111862696));
#306 = CARTESIAN_POINT('',(-46.14406711061,100.,-9.012478711581));
#307 = CARTESIAN_POINT('',(-46.88578913743,100.,-7.991947795087));
#308 = CARTESIAN_POINT('',(-47.61167013389,100.,-6.960200925052));
#309 = CARTESIAN_POINT('',(-48.97944431023,100.,-4.952831053215));
#310 = CARTESIAN_POINT('',(-49.62357101429,100.,-3.978737444323));
#311 = CARTESIAN_POINT('',(-50.25450190947,100.,-2.995989634406));
#312 = CARTESIAN_POINT('',(-50.87242292817,100.,-2.005020856183));
#313 = CARTESIAN_POINT('',(-51.47751704375,100.,-1.006233677233));
#314 = CARTESIAN_POINT('',(-52.06996427056,100.,0.));
#315 = ORIENTED_EDGE('',*,*,#316,.F.);
#316 = EDGE_CURVE('',#192,#300,#317,.T.);
#317 = B_SPLINE_CURVE_WITH_KNOTS('',7,(#318,#319,#320,#321,#322,#323,
    #324,#325,#326,#327,#328,#329,#330,#331,#332,#333,#334,#335,#336,
    #337,#338,#339,#340,#341,#342,#343,#344,#345,#346,#347,#348,#349,
    #350,#351,#352,#353,#354,#355,#356,#357,#358,#359,#360,#361,#362,
    #363,#364,#365,#366,#367,#368,#369,#370,#371,#372,#373,#374,#375,
    #376,#377,#378,#379,#380,#381,#382,#383,#384,#385,#386,#387,#388,
    #389,#390,#391,#392,#393,#394,#395,#396,#397),.UNSPECIFIED.,.F.,.F.,
  (8,6,6,6,6,6,6,6,6,6,6,6,6,8),(0.,2.436242913769E-02,
    4.619814274407E-02,0.213125058008,0.309813477553,0.368428310377,
    0.499768300194,0.592541805526,0.689724404033,0.786412558397,
    0.896009350256,0.948481393795,0.97280215468,1.),.UNSPECIFIED.);
#318 = CARTESIAN_POINT('',(-52.06996427056,-100.,0.));
#319 = CARTESIAN_POINT('',(-52.88719527756,-99.63741844571,0.));
#320 = CARTESIAN_POINT('',(-53.70139417394,-99.26800296493,0.));
#321 = CARTESIAN_POINT('',(-54.51249155147,-98.89178270375,0.));
#322 = CARTESIAN_POINT('',(-55.32040947027,-98.50876834262,0.));
#323 = CARTESIAN_POINT('',(-56.12507237194,-98.11897700327,0.));
#324 = CARTESIAN_POINT('',(-56.92640832084,-97.72243508432,0.));
#325 = CARTESIAN_POINT('',(-58.4395163901,-96.95770818321,0.));
#326 = CARTESIAN_POINT('',(-59.14481547709,-96.59445882355,0.));
#327 = CARTESIAN_POINT('',(-59.84350542341,-96.22798905204,0.));
#328 = CARTESIAN_POINT('',(-60.53841052204,-95.85692040262,0.));
#329 = CARTESIAN_POINT('',(-61.2319253117,-95.47994488552,0.));
#330 = CARTESIAN_POINT('',(-61.92602811839,-95.09585203524,0.));
#331 = CARTESIAN_POINT('',(-67.94502494388,-91.7045802836,0.));
#332 = CARTESIAN_POINT('',(-73.09335023864,-88.39568331973,0.));
#333 = CARTESIAN_POINT('',(-78.04288121905,-84.78446744193,0.));
#334 = CARTESIAN_POINT('',(-82.76874347997,-80.88055000982,0.));
#335 = CARTESIAN_POINT('',(-87.24590191399,-76.69594768914,0.));
#336 = CARTESIAN_POINT('',(-91.4494595202,-72.24543330137,0.));
#337 = CARTESIAN_POINT('',(-97.61766313816,-64.82598771435,0.));
#338 = CARTESIAN_POINT('',(-99.78014368709,-62.02160979869,0.));
#339 = CARTESIAN_POINT('',(-101.8380248174,-59.13773206106,0.));
#340 = CARTESIAN_POINT('',(-103.7867334355,-56.17828702771,0.));
#341 = CARTESIAN_POINT('',(-105.6218695339,-53.14757410598,0.));
#342 = CARTESIAN_POINT('',(-107.339254125,-50.05029053947,0.));
#343 = CARTESIAN_POINT('',(-109.9023710257,-44.97668367001,0.));
#344 = CARTESIAN_POINT('',(-110.8250470644,-43.03920677767,0.));
#345 = CARTESIAN_POINT('',(-111.7021567911,-41.08028437726,0.));
#346 = CARTESIAN_POINT('',(-112.5328787228,-39.10110335945,0.));
#347 = CARTESIAN_POINT('',(-113.3164401642,-37.10289761714,0.));
#348 = CARTESIAN_POINT('',(-114.0521213169,-35.08694971163,0.));
#349 = CARTESIAN_POINT('',(-116.2789499975,-28.50062970183,0.));
#350 = CARTESIAN_POINT('',(-117.5750197843,-23.86396231482,0.));
#351 = CARTESIAN_POINT('',(-118.6198093342,-19.15999509306,0.));
#352 = CARTESIAN_POINT('',(-119.407503926,-14.40473093364,0.));
#353 = CARTESIAN_POINT('',(-119.9340556956,-9.614753159553,0.));
#354 = CARTESIAN_POINT('',(-120.1973056696,-4.807238384717,0.));
#355 = CARTESIAN_POINT('',(-120.1973056696,3.395647864232,0.));
#356 = CARTESIAN_POINT('',(-120.0659582142,6.791348300303,0.));
#357 = CARTESIAN_POINT('',(-119.8032561612,10.180909962818,0.));
#358 = CARTESIAN_POINT('',(-119.4097243924,13.558254513125,0.));
#359 = CARTESIAN_POINT('',(-118.8863778784,16.917412532198,0.));
#360 = CARTESIAN_POINT('',(-118.2347055399,20.252522320087,0.));
#361 = CARTESIAN_POINT('',(-116.6416783366,27.02022681847,0.));
#362 = CARTESIAN_POINT('',(-115.6880035829,30.450025377315,0.));
#363 = CARTESIAN_POINT('',(-114.5979033329,33.840633468942,0.));
#364 = CARTESIAN_POINT('',(-113.3741451224,37.185822364244,0.));
#365 = CARTESIAN_POINT('',(-112.0199402633,40.479701830521,0.));
#366 = CARTESIAN_POINT('',(-110.5388958486,43.716703404104,0.));
#367 = CARTESIAN_POINT('',(-107.339254125,50.050290539441,0.));
#368 = CARTESIAN_POINT('',(-105.621869534,53.147574105961,0.));
#369 = CARTESIAN_POINT('',(-103.7867334355,56.178287027692,0.));
#370 = CARTESIAN_POINT('',(-101.8380248174,59.13773206104,0.));
#371 = CARTESIAN_POINT('',(-99.78014368711,62.021609798671,0.));
#372 = CARTESIAN_POINT('',(-97.61766313817,64.825987714327,0.));
#373 = CARTESIAN_POINT('',(-92.79089142437,70.631887180304,0.));
#374 = CARTESIAN_POINT('',(-90.09812247623,73.609774663097,0.));
#375 = CARTESIAN_POINT('',(-87.28382085815,76.475759179211,0.));
#376 = CARTESIAN_POINT('',(-84.35496582468,79.225302496998,0.));
#377 = CARTESIAN_POINT('',(-81.31861014842,81.854431630343,0.));
#378 = CARTESIAN_POINT('',(-78.18182027783,84.359675965746,0.));
#379 = CARTESIAN_POINT('',(-73.40510594597,87.876710626106,0.));
#380 = CARTESIAN_POINT('',(-71.83716515764,88.986314413621,0.));
#381 = CARTESIAN_POINT('',(-70.24858092297,90.066503844529,0.));
#382 = CARTESIAN_POINT('',(-68.64012047229,91.116973571567,0.));
#383 = CARTESIAN_POINT('',(-67.0125478413,92.137440698153,0.));
#384 = CARTESIAN_POINT('',(-65.36662297001,93.127643405764,0.));
#385 = CARTESIAN_POINT('',(-62.9320592688,94.532158186318,0.));
#386 = CARTESIAN_POINT('',(-62.15826925919,94.969827296882,0.));
#387 = CARTESIAN_POINT('',(-61.38555399522,95.398204439947,0.));
#388 = CARTESIAN_POINT('',(-60.61484353847,95.817065285884,0.));
#389 = CARTESIAN_POINT('',(-59.84403062763,96.227850232562,0.));
#390 = CARTESIAN_POINT('',(-59.06783346836,96.633411496185,0.));
#391 = CARTESIAN_POINT('',(-57.39402260853,97.489943409677,0.));
#392 = CARTESIAN_POINT('',(-56.54043067412,97.916303275442,0.));
#393 = CARTESIAN_POINT('',(-55.66928956777,98.342593003628,0.));
#394 = CARTESIAN_POINT('',(-54.76120248543,98.777031459064,0.));
#395 = CARTESIAN_POINT('',(-53.82601996698,99.212365194183,0.));
#396 = CARTESIAN_POINT('',(-52.90465818225,99.629670664403,0.));
#397 = CARTESIAN_POINT('',(-52.06996427056,100.,0.));
#398 = ( BOUNDED_SURFACE() B_SPLINE_SURFACE(2,2,(
    (#399,#400,#401,#402,#403)
    ,(#404,#405,#406,#407,#408)
    ,(#409,#410,#411,#412,#413)
    ,(#414,#415,#416,#417,#418)
    ,(#419,#420,#421,#422,#423)
    ,(#424,#425,#426,#427,#428)
    ,(#429,#430,#431,#432,#433
)),.UNSPECIFIED.,.T.,.F.,.F.) B_SPLINE_SURFACE_WITH_KNOTS((1,2,2,2,2,1),
  (3,2,3),(-2.094395102393,0.,2.094395102393,4.188790204786,
    6.28318530718,8.377580409573),(-1.570796326795,0.,1.570796326795),
.UNSPECIFIED.) GEOMETRIC_REPRESENTATION_ITEM() RATIONAL_B_SPLINE_SURFACE
((
    (1.,0.707106781187,1.,0.707106781187,1.)
    ,(0.5,0.353553390593,0.5,0.353553390593,0.5)
    ,(1.,0.707106781187,1.,0.707106781187,1.)
    ,(0.5,0.353553390593,0.5,0.353553390593,0.5)
    ,(1.,0.707106781187,1.,0.707106781187,1.)
    ,(0.5,0.353553390593,0.5,0.353553390593,0.5)
,(1.,0.707106781187,1.,0.707106781187,1.
))) REPRESENTATION_ITEM('') SURFACE() );
#399 = CARTESIAN_POINT('',(7.960204194458E-15,0.,-130.));
#400 = CARTESIAN_POINT('',(130.,0.,-130.));
#401 = CARTESIAN_POINT('',(130.,0.,80.));
#402 = CARTESIAN_POINT('',(130.,0.,290.));
#403 = CARTESIAN_POINT('',(7.960204194458E-15,0.,290.));
#404 = CARTESIAN_POINT('',(7.960204194458E-15,1.27269028647E-14,-130.));
#405 = CARTESIAN_POINT('',(130.,207.84609690826,-130.));
#406 = CARTESIAN_POINT('',(130.,207.84609690826,80.));
#407 = CARTESIAN_POINT('',(130.,207.84609690826,290.));
#408 = CARTESIAN_POINT('',(7.960204194458E-15,1.27269028647E-14,290.));
#409 = CARTESIAN_POINT('',(-3.980102097229E-15,6.363451432349E-15,-130.)
  );
#410 = CARTESIAN_POINT('',(-65.,103.92304845413,-130.));
#411 = CARTESIAN_POINT('',(-65.,103.92304845413,80.));
#412 = CARTESIAN_POINT('',(-65.,103.92304845413,290.));
#413 = CARTESIAN_POINT('',(-3.980102097229E-15,6.363451432349E-15,290.)
  );
#414 = CARTESIAN_POINT('',(-1.592040838892E-14,1.799711739194E-30,-130.)
  );
#415 = CARTESIAN_POINT('',(-260.,2.939152317954E-14,-130.));
#416 = CARTESIAN_POINT('',(-260.,2.939152317954E-14,80.));
#417 = CARTESIAN_POINT('',(-260.,2.939152317954E-14,290.));
#418 = CARTESIAN_POINT('',(-1.592040838892E-14,1.799711739194E-30,290.)
  );
#419 = CARTESIAN_POINT('',(-3.980102097229E-15,-6.363451432349E-15,-130.
    ));
#420 = CARTESIAN_POINT('',(-65.,-103.9230484541,-130.));
#421 = CARTESIAN_POINT('',(-65.,-103.9230484541,80.));
#422 = CARTESIAN_POINT('',(-65.,-103.9230484541,290.));
#423 = CARTESIAN_POINT('',(-3.980102097229E-15,-6.363451432349E-15,290.)
  );
#424 = CARTESIAN_POINT('',(7.960204194458E-15,-1.27269028647E-14,-130.)
  );
#425 = CARTESIAN_POINT('',(130.,-207.8460969082,-130.));
#426 = CARTESIAN_POINT('',(130.,-207.8460969082,80.));
#427 = CARTESIAN_POINT('',(130.,-207.8460969082,290.));
#428 = CARTESIAN_POINT('',(7.960204194458E-15,-1.27269028647E-14,290.));
#429 = CARTESIAN_POINT('',(7.960204194458E-15,0.,-130.));
#430 = CARTESIAN_POINT('',(130.,0.,-130.));
#431 = CARTESIAN_POINT('',(130.,0.,80.));
#432 = CARTESIAN_POINT('',(130.,0.,290.));
#433 = CARTESIAN_POINT('',(7.960204194458E-15,0.,290.));
#434 = ADVANCED_FACE('',(#435,#461,#472),#483,.T.);
#435 = FACE_BOUND('',#436,.T.);
#436 = EDGE_LOOP('',(#437,#445,#446,#447,#455));
#437 = ORIENTED_EDGE('',*,*,#438,.F.);
#438 = EDGE_CURVE('',#35,#439,#441,.T.);
#439 = VERTEX_POINT('',#440);
#440 = CARTESIAN_POINT('',(160.,100.,0.));
#441 = LINE('',#442,#443);
#442 = CARTESIAN_POINT('',(-160.,100.,0.));
#443 = VECTOR('',#444,1.);
#444 = DIRECTION('',(1.,0.,0.));
#445 = ORIENTED_EDGE('',*,*,#34,.T.);
#446 = ORIENTED_EDGE('',*,*,#164,.T.);
#447 = ORIENTED_EDGE('',*,*,#448,.T.);
#448 = EDGE_CURVE('',#148,#449,#451,.T.);
#449 = VERTEX_POINT('',#450);
#450 = CARTESIAN_POINT('',(160.,-100.,0.));
#451 = LINE('',#452,#453);
#452 = CARTESIAN_POINT('',(-160.,-100.,0.));
#453 = VECTOR('',#454,1.);
#454 = DIRECTION('',(1.,0.,0.));
#455 = ORIENTED_EDGE('',*,*,#456,.T.);
#456 = EDGE_CURVE('',#449,#439,#457,.T.);
#457 = LINE('',#458,#459);
#458 = CARTESIAN_POINT('',(160.,-100.,0.));
#459 = VECTOR('',#460,1.);
#460 = DIRECTION('',(0.,1.,0.));
#461 = FACE_BOUND('',#462,.T.);
#462 = EDGE_LOOP('',(#463));
#463 = ORIENTED_EDGE('',*,*,#464,.T.);
#464 = EDGE_CURVE('',#465,#465,#467,.T.);
#465 = VERTEX_POINT('',#466);
#466 = CARTESIAN_POINT('',(136.5,-70.,0.));
#467 = CIRCLE('',#468,6.5);
#468 = AXIS2_PLACEMENT_3D('',#469,#470,#471);
#469 = CARTESIAN_POINT('',(130.,-70.,0.));
#470 = DIRECTION('',(0.,0.,-1.));
#471 = DIRECTION('',(1.,0.,0.));
#472 = FACE_BOUND('',#473,.T.);
#473 = EDGE_LOOP('',(#474));
#474 = ORIENTED_EDGE('',*,*,#475,.T.);
#475 = EDGE_CURVE('',#476,#476,#478,.T.);
#476 = VERTEX_POINT('',#477);
#477 = CARTESIAN_POINT('',(136.5,70.,0.));
#478 = CIRCLE('',#479,6.5);
#479 = AXIS2_PLACEMENT_3D('',#480,#481,#482);
#480 = CARTESIAN_POINT('',(130.,70.,0.));
#481 = DIRECTION('',(0.,0.,-1.));
#482 = DIRECTION('',(1.,0.,0.));
#483 = PLANE('',#484);
#484 = AXIS2_PLACEMENT_3D('',#485,#486,#487);
#485 = CARTESIAN_POINT('',(-160.,-100.,0.));
#486 = DIRECTION('',(0.,0.,1.));
#487 = DIRECTION('',(1.,0.,0.));
#488 = ADVANCED_FACE('',(#489),#507,.F.);
#489 = FACE_BOUND('',#490,.F.);
#490 = EDGE_LOOP('',(#491,#499,#500,#501));
#491 = ORIENTED_EDGE('',*,*,#492,.F.);
#492 = EDGE_CURVE('',#120,#493,#495,.T.);
#493 = VERTEX_POINT('',#494);
#494 = CARTESIAN_POINT('',(160.,-100.,-12.));
#495 = LINE('',#496,#497);
#496 = CARTESIAN_POINT('',(-160.,-100.,-12.));
#497 = VECTOR('',#498,1.);
#498 = DIRECTION('',(1.,0.,0.));
#499 = ORIENTED_EDGE('',*,*,#147,.F.);
#500 = ORIENTED_EDGE('',*,*,#448,.T.);
#501 = ORIENTED_EDGE('',*,*,#502,.F.);
#502 = EDGE_CURVE('',#493,#449,#503,.T.);
#503 = LINE('',#504,#505);
#504 = CARTESIAN_POINT('',(160.,-100.,-12.));
#505 = VECTOR('',#506,1.);
#506 = DIRECTION('',(0.,0.,1.));
#507 = PLANE('',#508);
#508 = AXIS2_PLACEMENT_3D('',#509,#510,#511);
#509 = CARTESIAN_POINT('',(-160.,-100.,-12.));
#510 = DIRECTION('',(0.,1.,0.));
#511 = DIRECTION('',(0.,0.,1.));
#512 = ADVANCED_FACE('',(#513,#532,#543),#554,.F.);
#513 = FACE_BOUND('',#514,.F.);
#514 = EDGE_LOOP('',(#515,#523,#524,#525,#526));
#515 = ORIENTED_EDGE('',*,*,#516,.F.);
#516 = EDGE_CURVE('',#71,#517,#519,.T.);
#517 = VERTEX_POINT('',#518);
#518 = CARTESIAN_POINT('',(160.,100.,-12.));
#519 = LINE('',#520,#521);
#520 = CARTESIAN_POINT('',(-160.,100.,-12.));
#521 = VECTOR('',#522,1.);
#522 = DIRECTION('',(1.,0.,0.));
#523 = ORIENTED_EDGE('',*,*,#80,.T.);
#524 = ORIENTED_EDGE('',*,*,#119,.T.);
#525 = ORIENTED_EDGE('',*,*,#492,.T.);
#526 = ORIENTED_EDGE('',*,*,#527,.T.);
#527 = EDGE_CURVE('',#493,#517,#528,.T.);
#528 = LINE('',#529,#530);
#529 = CARTESIAN_POINT('',(160.,-100.,-12.));
#530 = VECTOR('',#531,1.);
#531 = DIRECTION('',(0.,1.,0.));
#532 = FACE_BOUND('',#533,.F.);
#533 = EDGE_LOOP('',(#534));
#534 = ORIENTED_EDGE('',*,*,#535,.T.);
#535 = EDGE_CURVE('',#536,#536,#538,.T.);
#536 = VERTEX_POINT('',#537);
#537 = CARTESIAN_POINT('',(136.5,-70.,-12.));
#538 = CIRCLE('',#539,6.5);
#539 = AXIS2_PLACEMENT_3D('',#540,#541,#542);
#540 = CARTESIAN_POINT('',(130.,-70.,-12.));
#541 = DIRECTION('',(0.,0.,-1.));
#542 = DIRECTION('',(1.,0.,0.));
#543 = FACE_BOUND('',#544,.F.);
#544 = EDGE_LOOP('',(#545));
#545 = ORIENTED_EDGE('',*,*,#546,.T.);
#546 = EDGE_CURVE('',#547,#547,#549,.T.);
#547 = VERTEX_POINT('',#548);
#548 = CARTESIAN_POINT('',(136.5,70.,-12.));
#549 = CIRCLE('',#550,6.5);
#550 = AXIS2_PLACEMENT_3D('',#551,#552,#553);
#551 = CARTESIAN_POINT('',(130.,70.,-12.));
#552 = DIRECTION('',(0.,0.,-1.));
#553 = DIRECTION('',(1.,0.,0.));
#554 = PLANE('',#555);
#555 = AXIS2_PLACEMENT_3D('',#556,#557,#558);
#556 = CARTESIAN_POINT('',(-160.,-100.,-12.));
#557 = DIRECTION('',(0.,0.,1.));
#558 = DIRECTION('',(1.,0.,0.));
#559 = ADVANCED_FACE('',(#560),#572,.T.);
#560 = FACE_BOUND('',#561,.T.);
#561 = EDGE_LOOP('',(#562,#563,#564,#565,#566));
#562 = ORIENTED_EDGE('',*,*,#516,.F.);
#563 = ORIENTED_EDGE('',*,*,#70,.F.);
#564 = ORIENTED_EDGE('',*,*,#59,.F.);
#565 = ORIENTED_EDGE('',*,*,#438,.T.);
#566 = ORIENTED_EDGE('',*,*,#567,.F.);
#567 = EDGE_CURVE('',#517,#439,#568,.T.);
#568 = LINE('',#569,#570);
#569 = CARTESIAN_POINT('',(160.,100.,-12.));
#570 = VECTOR('',#571,1.);
#571 = DIRECTION('',(0.,0.,1.));
#572 = PLANE('',#573);
#573 = AXIS2_PLACEMENT_3D('',#574,#575,#576);
#574 = CARTESIAN_POINT('',(-160.,100.,-12.));
#575 = DIRECTION('',(0.,1.,0.));
#576 = DIRECTION('',(0.,0.,1.));
#577 = ADVANCED_FACE('',(#578),#603,.F.);
#578 = FACE_BOUND('',#579,.F.);
#579 = EDGE_LOOP('',(#580,#588,#596,#602));
#580 = ORIENTED_EDGE('',*,*,#581,.F.);
#581 = EDGE_CURVE('',#582,#190,#584,.T.);
#582 = VERTEX_POINT('',#583);
#583 = CARTESIAN_POINT('',(-160.,-100.,-12.));
#584 = LINE('',#585,#586);
#585 = CARTESIAN_POINT('',(-160.,-100.,-12.));
#586 = VECTOR('',#587,1.);
#587 = DIRECTION('',(1.,0.,0.));
#588 = ORIENTED_EDGE('',*,*,#589,.T.);
#589 = EDGE_CURVE('',#582,#590,#592,.T.);
#590 = VERTEX_POINT('',#591);
#591 = CARTESIAN_POINT('',(-160.,-100.,0.));
#592 = LINE('',#593,#594);
#593 = CARTESIAN_POINT('',(-160.,-100.,-12.));
#594 = VECTOR('',#595,1.);
#595 = DIRECTION('',(0.,0.,1.));
#596 = ORIENTED_EDGE('',*,*,#597,.T.);
#597 = EDGE_CURVE('',#590,#192,#598,.T.);
#598 = LINE('',#599,#600);
#599 = CARTESIAN_POINT('',(-160.,-100.,0.));
#600 = VECTOR('',#601,1.);
#601 = DIRECTION('',(1.,0.,0.));
#602 = ORIENTED_EDGE('',*,*,#189,.F.);
#603 = PLANE('',#604);
#604 = AXIS2_PLACEMENT_3D('',#605,#606,#607);
#605 = CARTESIAN_POINT('',(-160.,-100.,-12.));
#606 = DIRECTION('',(0.,1.,0.));
#607 = DIRECTION('',(0.,0.,1.));
#608 = ADVANCED_FACE('',(#609,#627,#638),#649,.T.);
#609 = FACE_BOUND('',#610,.T.);
#610 = EDGE_LOOP('',(#611,#619,#625,#626));
#611 = ORIENTED_EDGE('',*,*,#612,.F.);
#612 = EDGE_CURVE('',#613,#300,#615,.T.);
#613 = VERTEX_POINT('',#614);
#614 = CARTESIAN_POINT('',(-160.,100.,0.));
#615 = LINE('',#616,#617);
#616 = CARTESIAN_POINT('',(-160.,100.,0.));
#617 = VECTOR('',#618,1.);
#618 = DIRECTION('',(1.,0.,0.));
#619 = ORIENTED_EDGE('',*,*,#620,.F.);
#620 = EDGE_CURVE('',#590,#613,#621,.T.);
#621 = LINE('',#622,#623);
#622 = CARTESIAN_POINT('',(-160.,-100.,0.));
#623 = VECTOR('',#624,1.);
#624 = DIRECTION('',(0.,1.,0.));
#625 = ORIENTED_EDGE('',*,*,#597,.T.);
#626 = ORIENTED_EDGE('',*,*,#316,.T.);
#627 = FACE_BOUND('',#628,.T.);
#628 = EDGE_LOOP('',(#629));
#629 = ORIENTED_EDGE('',*,*,#630,.T.);
#630 = EDGE_CURVE('',#631,#631,#633,.T.);
#631 = VERTEX_POINT('',#632);
#632 = CARTESIAN_POINT('',(-123.5,-70.,0.));
#633 = CIRCLE('',#634,6.5);
#634 = AXIS2_PLACEMENT_3D('',#635,#636,#637);
#635 = CARTESIAN_POINT('',(-130.,-70.,0.));
#636 = DIRECTION('',(0.,0.,-1.));
#637 = DIRECTION('',(1.,0.,0.));
#638 = FACE_BOUND('',#639,.T.);
#639 = EDGE_LOOP('',(#640));
#640 = ORIENTED_EDGE('',*,*,#641,.T.);
#641 = EDGE_CURVE('',#642,#642,#644,.T.);
#642 = VERTEX_POINT('',#643);
#643 = CARTESIAN_POINT('',(-123.5,70.,0.));
#644 = CIRCLE('',#645,6.5);
#645 = AXIS2_PLACEMENT_3D('',#646,#647,#648);
#646 = CARTESIAN_POINT('',(-130.,70.,0.));
#647 = DIRECTION('',(0.,0.,-1.));
#648 = DIRECTION('',(1.,0.,0.));
#649 = PLANE('',#650);
#650 = AXIS2_PLACEMENT_3D('',#651,#652,#653);
#651 = CARTESIAN_POINT('',(-160.,-100.,0.));
#652 = DIRECTION('',(0.,0.,1.));
#653 = DIRECTION('',(1.,0.,0.));
#654 = ADVANCED_FACE('',(#655),#673,.T.);
#655 = FACE_BOUND('',#656,.T.);
#656 = EDGE_LOOP('',(#657,#665,#671,#672));
#657 = ORIENTED_EDGE('',*,*,#658,.F.);
#658 = EDGE_CURVE('',#659,#209,#661,.T.);
#659 = VERTEX_POINT('',#660);
#660 = CARTESIAN_POINT('',(-160.,100.,-12.));
#661 = LINE('',#662,#663);
#662 = CARTESIAN_POINT('',(-160.,100.,-12.));
#663 = VECTOR('',#664,1.);
#664 = DIRECTION('',(1.,0.,0.));
#665 = ORIENTED_EDGE('',*,*,#666,.T.);
#666 = EDGE_CURVE('',#659,#613,#667,.T.);
#667 = LINE('',#668,#669);
#668 = CARTESIAN_POINT('',(-160.,100.,-12.));
#669 = VECTOR('',#670,1.);
#670 = DIRECTION('',(0.,0.,1.));
#671 = ORIENTED_EDGE('',*,*,#612,.T.);
#672 = ORIENTED_EDGE('',*,*,#299,.F.);
#673 = PLANE('',#674);
#674 = AXIS2_PLACEMENT_3D('',#675,#676,#677);
#675 = CARTESIAN_POINT('',(-160.,100.,-12.));
#676 = DIRECTION('',(0.,1.,0.));
#677 = DIRECTION('',(0.,0.,1.));
#678 = ADVANCED_FACE('',(#679,#690,#701),#712,.F.);
#679 = FACE_BOUND('',#680,.F.);
#680 = EDGE_LOOP('',(#681,#682,#688,#689));
#681 = ORIENTED_EDGE('',*,*,#658,.F.);
#682 = ORIENTED_EDGE('',*,*,#683,.F.);
#683 = EDGE_CURVE('',#582,#659,#684,.T.);
#684 = LINE('',#685,#686);
#685 = CARTESIAN_POINT('',(-160.,-100.,-12.));
#686 = VECTOR('',#687,1.);
#687 = DIRECTION('',(0.,1.,0.));
#688 = ORIENTED_EDGE('',*,*,#581,.T.);
#689 = ORIENTED_EDGE('',*,*,#208,.T.);
#690 = FACE_BOUND('',#691,.F.);
#691 = EDGE_LOOP('',(#692));
#692 = ORIENTED_EDGE('',*,*,#693,.T.);
#693 = EDGE_CURVE('',#694,#694,#696,.T.);
#694 = VERTEX_POINT('',#695);
#695 = CARTESIAN_POINT('',(-123.5,-70.,-12.));
#696 = CIRCLE('',#697,6.5);
#697 = AXIS2_PLACEMENT_3D('',#698,#699,#700);
#698 = CARTESIAN_POINT('',(-130.,-70.,-12.));
#699 = DIRECTION('',(0.,0.,-1.));
#700 = DIRECTION('',(1.,0.,0.));
#701 = FACE_BOUND('',#702,.F.);
#702 = EDGE_LOOP('',(#703));
#703 = ORIENTED_EDGE('',*,*,#704,.T.);
#704 = EDGE_CURVE('',#705,#705,#707,.T.);
#705 = VERTEX_POINT('',#706);
#706 = CARTESIAN_POINT('',(-123.5,70.,-12.));
#707 = CIRCLE('',#708,6.5);
#708 = AXIS2_PLACEMENT_3D('',#709,#710,#711);
#709 = CARTESIAN_POINT('',(-130.,70.,-12.));
#710 = DIRECTION('',(0.,0.,-1.));
#711 = DIRECTION('',(1.,0.,0.));
#712 = PLANE('',#713);
#713 = AXIS2_PLACEMENT_3D('',#714,#715,#716);
#714 = CARTESIAN_POINT('',(-160.,-100.,-12.));
#715 = DIRECTION('',(0.,0.,1.));
#716 = DIRECTION('',(1.,0.,0.));
#717 = ADVANCED_FACE('',(#718),#724,.T.);
#718 = FACE_BOUND('',#719,.T.);
#719 = EDGE_LOOP('',(#720,#721,#722,#723));
#720 = ORIENTED_EDGE('',*,*,#502,.F.);
#721 = ORIENTED_EDGE('',*,*,#527,.T.);
#722 = ORIENTED_EDGE('',*,*,#567,.T.);
#723 = ORIENTED_EDGE('',*,*,#456,.F.);
#724 = PLANE('',#725);
#725 = AXIS2_PLACEMENT_3D('',#726,#727,#728);
#726 = CARTESIAN_POINT('',(160.,-100.,-12.));
#727 = DIRECTION('',(1.,0.,0.));
#728 = DIRECTION('',(0.,0.,1.));
#729 = ADVANCED_FACE('',(#730),#741,.F.);
#730 = FACE_BOUND('',#731,.T.);
#731 = EDGE_LOOP('',(#732,#733,#739,#740));
#732 = ORIENTED_EDGE('',*,*,#535,.T.);
#733 = ORIENTED_EDGE('',*,*,#734,.T.);
#734 = EDGE_CURVE('',#536,#465,#735,.T.);
#735 = LINE('',#736,#737);
#736 = CARTESIAN_POINT('',(136.5,-70.,-15.));
#737 = VECTOR('',#738,1.);
#738 = DIRECTION('',(0.,0.,1.));
#739 = ORIENTED_EDGE('',*,*,#464,.F.);
#740 = ORIENTED_EDGE('',*,*,#734,.F.);
#741 = CYLINDRICAL_SURFACE('',#742,6.5);
#742 = AXIS2_PLACEMENT_3D('',#743,#744,#745);
#743 = CARTESIAN_POINT('',(130.,-70.,-15.));
#744 = DIRECTION('',(-0.,-0.,-1.));
#745 = DIRECTION('',(1.,0.,0.));
#746 = ADVANCED_FACE('',(#747),#758,.F.);
#747 = FACE_BOUND('',#748,.T.);
#748 = EDGE_LOOP('',(#749,#750,#756,#757));
#749 = ORIENTED_EDGE('',*,*,#546,.T.);
#750 = ORIENTED_EDGE('',*,*,#751,.T.);
#751 = EDGE_CURVE('',#547,#476,#752,.T.);
#752 = LINE('',#753,#754);
#753 = CARTESIAN_POINT('',(136.5,70.,-15.));
#754 = VECTOR('',#755,1.);
#755 = DIRECTION('',(0.,0.,1.));
#756 = ORIENTED_EDGE('',*,*,#475,.F.);
#757 = ORIENTED_EDGE('',*,*,#751,.F.);
#758 = CYLINDRICAL_SURFACE('',#759,6.5);
#759 = AXIS2_PLACEMENT_3D('',#760,#761,#762);
#760 = CARTESIAN_POINT('',(130.,70.,-15.));
#761 = DIRECTION('',(-0.,-0.,-1.));
#762 = DIRECTION('',(1.,0.,0.));
#763 = ADVANCED_FACE('',(#764),#770,.F.);
#764 = FACE_BOUND('',#765,.F.);
#765 = EDGE_LOOP('',(#766,#767,#768,#769));
#766 = ORIENTED_EDGE('',*,*,#589,.F.);
#767 = ORIENTED_EDGE('',*,*,#683,.T.);
#768 = ORIENTED_EDGE('',*,*,#666,.T.);
#769 = ORIENTED_EDGE('',*,*,#620,.F.);
#770 = PLANE('',#771);
#771 = AXIS2_PLACEMENT_3D('',#772,#773,#774);
#772 = CARTESIAN_POINT('',(-160.,-100.,-12.));
#773 = DIRECTION('',(1.,0.,0.));
#774 = DIRECTION('',(0.,0.,1.));
#775 = ADVANCED_FACE('',(#776),#787,.F.);
#776 = FACE_BOUND('',#777,.T.);
#777 = EDGE_LOOP('',(#778,#779,#785,#786));
#778 = ORIENTED_EDGE('',*,*,#693,.T.);
#779 = ORIENTED_EDGE('',*,*,#780,.T.);
#780 = EDGE_CURVE('',#694,#631,#781,.T.);
#781 = LINE('',#782,#783);
#782 = CARTESIAN_POINT('',(-123.5,-70.,-15.));
#783 = VECTOR('',#784,1.);
#784 = DIRECTION('',(0.,0.,1.));
#785 = ORIENTED_EDGE('',*,*,#630,.F.);
#786 = ORIENTED_EDGE('',*,*,#780,.F.);
#787 = CYLINDRICAL_SURFACE('',#788,6.5);
#788 = AXIS2_PLACEMENT_3D('',#789,#790,#791);
#789 = CARTESIAN_POINT('',(-130.,-70.,-15.));
#790 = DIRECTION('',(-0.,-0.,-1.));
#791 = DIRECTION('',(1.,0.,0.));
#792 = ADVANCED_FACE('',(#793),#804,.F.);
#793 = FACE_BOUND('',#794,.T.);
#794 = EDGE_LOOP('',(#795,#796,#802,#803));
#795 = ORIENTED_EDGE('',*,*,#704,.T.);
#796 = ORIENTED_EDGE('',*,*,#797,.T.);
#797 = EDGE_CURVE('',#705,#642,#798,.T.);
#798 = LINE('',#799,#800);
#799 = CARTESIAN_POINT('',(-123.5,70.,-15.));
#800 = VECTOR('',#801,1.);
#801 = DIRECTION('',(0.,0.,1.));
#802 = ORIENTED_EDGE('',*,*,#641,.F.);
#803 = ORIENTED_EDGE('',*,*,#797,.F.);
#804 = CYLINDRICAL_SURFACE('',#805,6.5);
#805 = AXIS2_PLACEMENT_3D('',#806,#807,#808);
#806 = CARTESIAN_POINT('',(-130.,70.,-15.));
#807 = DIRECTION('',(-0.,-0.,-1.));
#808 = DIRECTION('',(1.,0.,0.));
#809 = ( GEOMETRIC_REPRESENTATION_CONTEXT(3) 
GLOBAL_UNCERTAINTY_ASSIGNED_CONTEXT((#813)) GLOBAL_UNIT_ASSIGNED_CONTEXT
((#810,#811,#812)) REPRESENTATION_CONTEXT('Context #1',
  '3D Context with UNIT and UNCERTAINTY') );
#810 = ( LENGTH_UNIT() NAMED_UNIT(*) SI_UNIT(.MILLI.,.METRE.) );
#811 = ( NAMED_UNIT(*) PLANE_ANGLE_UNIT() SI_UNIT($,.RADIAN.) );
#812 = ( NAMED_UNIT(*) SI_UNIT($,.STERADIAN.) SOLID_ANGLE_UNIT() );
#813 = UNCERTAINTY_MEASURE_WITH_UNIT(LENGTH_MEASURE(1.E-04),#810,
  'distance_accuracy_value','confusion accuracy');
#814 = PRODUCT_RELATED_PRODUCT_CATEGORY('part',$,(#7));
#815 = MECHANICAL_DESIGN_GEOMETRIC_PRESENTATION_REPRESENTATION('',(#816)
  ,#809);
#816 = STYLED_ITEM('color',(#817),#15);
#817 = PRESENTATION_STYLE_ASSIGNMENT((#818,#824));
#818 = SURFACE_STYLE_USAGE(.BOTH.,#819);
#819 = SURFACE_SIDE_STYLE('',(#820));
#820 = SURFACE_STYLE_FILL_AREA(#821);
#821 = FILL_AREA_STYLE('',(#822));
#822 = FILL_AREA_STYLE_COLOUR('',#823);
#823 = COLOUR_RGB('',0.678431390124,0.709803936702,0.741176476869);
#824 = CURVE_STYLE('',#825,POSITIVE_LENGTH_MEASURE(0.1),#826);
#825 = DRAUGHTING_PRE_DEFINED_CURVE_FONT('continuous');
#826 = COLOUR_RGB('',9.803921802644E-02,9.803921802644E-02,
  9.803921802644E-02);
ENDSEC;
END-ISO-10303-21;
